/* XPM */
static char *_551670772905[] = {
/* columns rows colors chars-per-pixel */
"64 64 73 1 ",
"  c #010101",
". c #080707",
"X c #070A0B",
"o c #080B0D",
"O c #090E10",
"+ c #101011",
"@ c #1E1F1F",
"# c #211E1D",
"$ c #23201E",
"% c #262524",
"& c #282727",
"* c #2B2B2B",
"= c #302F2F",
"- c #242F33",
"; c #292F32",
": c #263237",
"> c #2B3235",
", c #2D3639",
"< c #2F393C",
"1 c #323232",
"2 c #48423F",
"3 c #263C45",
"4 c #283F48",
"5 c #323D42",
"6 c #2B424B",
"7 c #344147",
"8 c #354449",
"9 c #2D4651",
"0 c #304B56",
"q c #324E59",
"w c #34525E",
"e c #365562",
"r c #385662",
"t c #375865",
"y c #494341",
"u c #4A4A4A",
"i c gray37",
"p c #605753",
"a c #685E5B",
"s c #69615D",
"d c #4E656E",
"f c #646464",
"g c #686867",
"h c #696969",
"j c #756C68",
"k c #646F74",
"l c #67767D",
"z c #777777",
"x c #787A7B",
"c c #537F90",
"v c #697B83",
"b c #548295",
"n c #558699",
"m c #56889D",
"M c #578BA0",
"N c #6EA7BE",
"B c #6FABC3",
"V c #71ABC3",
"C c #6EB3CE",
"Z c #75B3CD",
"A c #74B5D1",
"S c #78B7D1",
"D c #76BAD6",
"F c #79B9D4",
"G c #77BDDB",
"H c #79BFDB",
"J c #7AC1DE",
"K c #7AC4E1",
"L c #87CEEB",
"P c #87D0ED",
"I c #87D1F0",
"U c #89D6F5",
"Y c #89D8F8",
/* pixels */
".izzzzzzzzzzzzzzzzzzzzzzzzzzzzzzzzzzzzzzzzzzzzzzzzzzzzzzzzzzxh@+",
"  uzzzzzzzzzzzzzzzzzzzzzzzzzzzzzzzzzzzzzzzzzzzzzzzzzzzzzzzzzd.  ",
"   #gzzzzzzzzzzzzzzzzzzzzzzzzzzzzzzzzzzzzzzzzzzzzzzzzzzzzzg#    ",
"%   .2zzzzzzzzzzzzzzzzzzzzzzzzzzzzzzzzzzzzzzzzzzzzzzzzzzzu. o3 %",
"f .3  #gzzzzzzzzzzzzzzzzzzzzzzzzzzzzzzzzzzzzzzzzzzzzzzzf#  6C  f",
"z% 8Mo .uzzzzzzzzzzzzzzzzzzzzzzzzzzzzzzzzzzzzzzzzzzzzj2. onI8 %z",
"zf  KG6  #ajzzzzzzzzzzzzzzzzzzzzzzzzzzzzzzzzzzzzzzzzs-  4KLK  fz",
"zz% 8LLnX odjzzzzzzzzzzzzzzzzzzzzzzzzzzzzzzzzzzzzzz2X OmLLP8 %zz",
"zzf  FLLJ4  -szzzzzzzzzzzzzzzzzzzzzzzzzzzzzzzzzzzg#  3FLLLK  fzz",
"zzz& tLLLLbO X2zzzzzzzzzzzzzzzzzzzzzzzzzzzzzzzzzu. obLLLLL7 *zzz",
"zzzi XFLLLLF3  #szzzzzzzzzzzzzzzzzzzzzzzzzzzzza#  6FLLLLLK  izzz",
"zzzz* eLLLLLLbo oyzzzzzzzzzzzzzzzzzzzzzzzzzzzyX XnLLLLLLL7 *zzzz",
"zzzzf .SLLLLLLF4  #gzzzzzzzzzzzzzzzzzzzzzzzg#  4JLLLLLLLK  fzzzz",
"zzzzj* eLLLLLLLLbo .uzzzzzzzzzzzzzzzzzzzzzy. obLLLLLLLLL7 %zzzzz",
"zzzzzf  ZLLLLLLLLF4  #hzzzzzzzzzzzzzzzzzg#  3FLLLLLLLLLJ  fzzzzz",
"zzzzzz* rLLLLLLLLLLbX XuzzzzzzzzzzzzzzjyX onPLLLLLLLLLP5 *zzzzzz",
"zzzzzzf .HLLLLLLLLLLK3  #gzzzzzzzzzzzs:  3FLLLLLLLLLLLZ  fzzzzzz",
"zzzzzzz& 5LLLLLLLLLLLLbX .uzzzzzzzzzyo obLLLLLLLLLLLLLt *zzzzzzz",
"zzzzzzzf  ALLLLLLLLLLLLH3  #szzzzzg%  3SLLLLLLLLLLLLLH  fzzzzzzz",
"zzzzzzzz* rLLLLLLLLLLLLLLbX oyzzzu. ocLLLLLLLLLLLLLLL5 *zzzzzzzz",
"zzzzzzzzf  ZLLLLLLLLLLLLLLJ3  $p#  3ALLLLLLLLLLLLLLLZ  fzzzzzzzz",
"zzzzzzzzz* rLLLLLLLLLLLLLLLLco X XbLLLLLLLLLLLLLLLLLe *zzzzzzzzz",
"zzzzzzzzzf  HLLLLLLLLLLLLLLLLZ3b3GLLLLLLLLLLLLLLLLLZ  fzzzzzzzzz",
"zzzzzzzzzz* 5LLLLLLLLLLLLLLLLLLLLLLLLLLLLLLLLLLLLLLe *zzzzzzzzzz",
"zzzzzzzzzzf  HLLLLLLLLLLLLLLLLLLLLLLLLLLLLLLLLLLLLG  fzzzzzzzzzz",
"zzzzzzzzzzz* <LLLLLLLLLLLLLLLLLLLLLLLLLLLLLLLLLLLL5 *zzzzzzzzzzz",
"zzzzzzzzzzzf  ZLLLLLLLLLLLLLLLLLLLLLLLLLLLLLLLLLLZ  fzzzzzzzzzzz",
"zzzzzzzzzzzz* eLLLLLLLLLLLLLLLLLLLLLLLLLLLLLLLLLLw *zzzzzzzzzzzz",
"zzzzzzzzzzzzf  ZLLLLLLLLLLLLLLLLLLLLLLLLLLLLLLLLZ  fzzzzzzzzzzzz",
"zzzzzzzzzzzzz* qLLLLLLLLLLLLLLLLLLLLLLLLLLLLLLLLw *zzzzzzzzzzzzz",
"zzzzzzzzzzzzzf  ZLLLLLLLLLLLLLLLLLLLLLLLLLLLLLLD. fzzzzzzzzzzzzz",
"zzzzzzzzzzzzzz= wLLLLLLLLLLLLLLLLLLLLLLLLLLLLLL< *zzzzzzzzzzzzzz",
"zzzzzzzzzzzzzzf  DLLLLLLLLLLLLLLLLLLLLLLLLLLLLD  gzzzzzzzzzzzzzz",
"zzzzzzzzzzzzzzz* ,LLLLLLLLLLLLLLLLLLLLLLLLLLLY< *zzzzzzzzzzzzzzz",
"zzzzzzzzzzzzzzzg  DLLLLLLLLLLLLLLLLLLLLLLLLLLv  gzzzzzzzzzzzzzzz",
"zzzzzzzzzzzzzzzz* ,LLLLLLLLLLLLLLLLLLLLLLLLLL* *zzzzzzzzzzzzzzzz",
"zzzzzzzzzzzzzzzzg. ALLLLLLLLLLLLLLLLLLLLLLLLS  gzzzzzzzzzzzzzzzz",
"zzzzzzzzzzzzzzzzz* ,LLLLLLLLLLLLLLLLLLLLLLLY, ;zzzzzzzzzzzzzzzzz",
"zzzzzzzzzzzzzzzzzg  VLLLLLLLLLLLLLLLLLLLLLLv  gzzzzzzzzzzzzzzzzz",
"zzzzzzzzzzzzzzzzzz* 0LLLLLLLLLLLLLLLLLLLLLL* =zzzzzzzzzzzzzzzzzz",
"zzzzzzzzzzzzzzzzzzg  ALLLLLLLLLLLLLLLLLLLLA  gzzzzzzzzzzzzzzzzzz",
"zzzzzzzzzzzzzzzzzzz1 ,LLLLLLLLLLLLLLLLLLLL> =zzzzzzzzzzzzzzzzzzz",
"zzzzzzzzzzzzzzzzzzzg  ALLLLLLLLLLLLLLLLLLA  gzzzzzzzzzzzzzzzzzzz",
"zzzzzzzzzzzzzzzzzzzz* >LLLLLLLLLLLLLLLLLL> 1zzzzzzzzzzzzzzzzzzzz",
"zzzzzzzzzzzzzzzzzzzzg  ALLLLLLLLLLLLLLLLV  gzzzzzzzzzzzzzzzzzzzz",
"zzzzzzzzzzzzzzzzzzzzz1 ,ULLLLLLLLLLLLLLL0 =zzzzzzzzzzzzzzzzzzzzz",
"zzzzzzzzzzzzzzzzzzzzzg  vLLLLLLLLLLLLLLZ .fzzzzzzzzzzzzzzzzzzzzz",
"zzzzzzzzzzzzzzzzzzzzzz= &LLLLLLLLLLLLLU> *xzzzzzzzzzzzzzzzzzzzzz",
"zzzzzzzzzzzzzzzzzzzzzzg  ZLLLLLLLLLLLLl  hzzzzzzzzzzzzzzzzzzzzzz",
"zzzzzzzzzzzzzzzzzzzzzzx1 >ULLLLLLLLLLL* 1zzzzzzzzzzzzzzzzzzzzzzz",
"zzzzzzzzzzzzzzzzzzzzzzzh  lLLLLLLLLLLZ  hzzzzzzzzzzzzzzzzzzzzzzz",
"zzzzzzzzzzzzzzzzzzzzzzzz1 &LLLLLLLLLL; 1zzzzzzzzzzzzzzzzzzzzzzzz",
"zzzzzzzzzzzzzzzzzzzzzzzzg  ZLLLLLLLLV  hzzzzzzzzzzzzzzzzzzzzzzzz",
"zzzzzzzzzzzzzzzzzzzzzzzzz1 ;LLLLLLLL9 1zzzzzzzzzzzzzzzzzzzzzzzzz",
"zzzzzzzzzzzzzzzzzzzzzzzzzg. NLLLLLLN  hzzzzzzzzzzzzzzzzzzzzzzzzz",
"zzzzzzzzzzzzzzzzzzzzzzzzzz1 6LLLLLL6 1zzzzzzzzzzzzzzzzzzzzzzzzzz",
"zzzzzzzzzzzzzzzzzzzzzzzzzzg. BLLLLB .gzzzzzzzzzzzzzzzzzzzzzzzzzz",
"zzzzzzzzzzzzzzzzzzzzzzzzzzz1 6LLLL9 1zzzzzzzzzzzzzzzzzzzzzzzzzzz",
"zzzzzzzzzzzzzzzzzzzzzzzzzzzg  BLLB  gzzzzzzzzzzzzzzzzzzzzzzzzzzz",
"zzzzzzzzzzzzzzzzzzzzzzzzzzzz1 9YU; 1zzzzzzzzzzzzzzzxzzzzzzzzzzzz",
"zzzzzzzzzzzzzzzzzzzzzzzzzzzzh. kk .hzzzzzzzzzzzzzzzzzzzzzzzzzzzz",
"zzzzzzzzzzzzzzzzzzzzzzzzzzzzx1 %% 1zzzzzzzzzzzzzzzzzzzzzzzzzzzzz",
"zzzzzzzzzzzzzzxzzzzzzzzzzzzzzh    hzzzzzzzzzzzzzzzzzzzzzzzzzzzzz",
"zzzzzzzzzzzzzzzzzzzzzzzzzzzzzz1  1zzzzzzzzzzzzzzzzzzzzzzzzzzzzzz"
};
