/* XPM */
static char *_551670785720[] = {
/* columns rows colors chars-per-pixel */
"64 64 179 2 ",
"   c black",
".  c #010101",
"X  c #010202",
"o  c #020202",
"O  c #020203",
"+  c gray1",
"@  c #020304",
"#  c #030405",
"$  c #030506",
"%  c #040404",
"&  c #040405",
"*  c #040606",
"=  c #040607",
"-  c #060606",
";  c #070606",
":  c #070707",
">  c #080707",
",  c #050708",
"<  c #050809",
"1  c #070A0B",
"2  c #070B0C",
"3  c #070C0D",
"4  c #080A0B",
"5  c #090B0C",
"6  c #090B0D",
"7  c #080C0E",
"8  c #080D0E",
"9  c #080D0F",
"0  c #090D0F",
"q  c #090E10",
"w  c #0A0F11",
"e  c #111111",
"r  c #1E1E1E",
"t  c #201E1D",
"y  c #211E1D",
"u  c #211F1D",
"i  c #211F1E",
"p  c #221F1E",
"a  c #22201F",
"s  c #23201F",
"d  c gray13",
"f  c #222222",
"g  c #242120",
"h  c #272626",
"j  c #272727",
"k  c #282727",
"l  c #282828",
"z  c #292828",
"x  c gray16",
"c  c #2A2828",
"v  c #2A2929",
"b  c #2A2A2A",
"n  c #2B2A2A",
"m  c gray17",
"M  c #2C2B2B",
"N  c #2C2C2B",
"B  c #2D2C2C",
"V  c #2D2D2C",
"C  c #2D2D2D",
"Z  c #2E2D2D",
"A  c #2E2E2D",
"S  c gray18",
"D  c #2F2F2E",
"F  c #2F2F2F",
"G  c #302F2F",
"H  c #273338",
"J  c #25383F",
"K  c gray19",
"L  c #313131",
"P  c #333231",
"I  c #323232",
"U  c gray20",
"Y  c #333435",
"T  c #343434",
"R  c #48423F",
"E  c #253941",
"W  c #263941",
"Q  c #263A42",
"!  c #273B43",
"~  c #263B44",
"^  c #273C44",
"/  c #263C45",
"(  c #273D46",
")  c #273E47",
"_  c #283D46",
"`  c #293E47",
"'  c #2B414B",
"]  c #2B424C",
"[  c #2C434C",
"{  c #2C444D",
"}  c #2D454E",
"|  c #2E4650",
" . c #2F4751",
".. c #2F4852",
"X. c #304953",
"o. c #304A54",
"O. c #314A55",
"+. c #314B56",
"@. c #324C57",
"#. c #324D58",
"$. c #334E58",
"%. c #344F5A",
"&. c #35515C",
"*. c #36525E",
"=. c #375460",
"-. c #385662",
";. c #395764",
":. c #484240",
">. c #494240",
",. c #494340",
"<. c #494341",
"1. c #4A4542",
"2. c #4B4543",
"3. c #484848",
"4. c #494949",
"5. c gray29",
"6. c #4C4B4B",
"7. c #5F5653",
"8. c gray37",
"9. c #685F5C",
"0. c #69605C",
"q. c #68605D",
"w. c #69625F",
"e. c #626160",
"r. c #626262",
"t. c gray39",
"y. c #646363",
"u. c #646464",
"i. c #656464",
"p. c #656564",
"a. c #656565",
"s. c #666564",
"d. c #666665",
"f. c #676665",
"g. c #656567",
"h. c #656666",
"j. c gray40",
"k. c #676767",
"l. c #686868",
"z. c DimGray",
"x. c #6A6A6A",
"c. c #6B6A6A",
"v. c #6B6B6A",
"b. c gray42",
"n. c #756B67",
"m. c #777472",
"M. c #777575",
"N. c #777676",
"B. c #777776",
"V. c #777777",
"C. c #527E8F",
"Z. c #537E90",
"A. c #537F90",
"S. c #548092",
"D. c #548093",
"F. c #558193",
"G. c #568395",
"H. c #558498",
"J. c #6DA5BD",
"K. c #6FA9C1",
"L. c #6FAAC2",
"P. c #70AAC2",
"I. c #71ACC4",
"U. c #72AEC6",
"Y. c #72AEC7",
"T. c #73AFC8",
"R. c #73B0C9",
"E. c #74B1CA",
"W. c #75B3CC",
"Q. c #76B3CD",
"!. c #76B4CE",
"~. c #77B5CE",
"^. c #77B6CF",
"/. c #78B7D0",
"(. c #78B7D1",
"). c #79B8D2",
"_. c #79B9D3",
"`. c #86CDEA",
"'. c SkyBlue",
/* pixels */
"- + + f e.M.V.V.V.V.V.V.V.V.V.V.V.V.V.V.V.V.V.V.V.V.V.V.V.V.V.V.V.V.V.V.V.V.V.V.V.V.V.V.V.V.V.V.V.V.V.V.V.V.V.V.V.V.V.V.V.V.V.V.",
"8.+ + + + f e.V.V.V.V.V.V.V.V.V.V.V.V.V.V.V.V.V.V.V.V.V.V.V.V.V.V.V.V.V.V.V.V.V.V.V.V.V.V.V.V.V.V.V.V.V.V.V.V.V.V.V.V.V.V.V.V.V.",
"M.3.+ + $ + + l t.V.V.V.V.V.V.V.V.V.V.V.V.V.V.V.V.V.V.V.V.V.V.V.V.V.V.V.V.V.V.V.V.V.V.V.V.V.V.V.V.V.V.V.V.V.V.V.V.V.V.V.V.V.V.V.",
"M.M.r + J ;.$ + + l t.V.V.V.V.V.V.V.V.V.V.V.V.V.V.V.V.V.V.V.V.V.V.V.V.V.V.V.V.V.V.V.V.V.V.V.V.V.V.V.V.V.V.V.V.V.V.V.V.V.V.V.V.V.",
"V.V.z.- + F.(.;.$ + + l t.V.V.V.V.V.V.V.V.V.V.V.V.V.V.V.V.V.V.V.V.V.V.V.V.V.V.V.V.V.V.V.V.V.V.V.V.V.V.V.V.V.V.V.V.V.V.V.V.V.V.V.",
"V.V.V.4.+ q _.`.^.=.$ + @ b h.m.M.V.V.V.V.V.V.V.V.V.V.V.V.V.V.V.V.V.V.V.V.V.V.V.V.V.V.V.V.V.V.V.V.V.V.V.V.V.V.V.V.V.V.V.V.V.V.V.",
"V.V.V.V.r + ( `.'.'.^.;.@ + + b h.M.V.V.V.V.V.V.V.V.V.V.V.V.V.V.V.V.V.V.V.V.V.V.V.V.V.V.V.V.V.V.V.V.V.V.V.V.V.V.V.V.V.V.V.V.V.V.",
"V.V.V.V.z.: + A.'.'.'.`.^.=.$ + @ k u.V.V.V.V.V.V.V.V.V.V.V.V.V.V.V.V.V.V.V.V.V.V.V.V.V.V.V.V.V.V.V.V.V.V.V.V.V.V.V.V.V.V.V.V.V.",
"V.V.V.V.V.4.+ 3 _.'.'.'.'.'.^.=.- + + l u.V.V.V.V.V.V.V.V.V.V.V.V.V.V.V.V.V.V.V.V.V.V.V.V.V.V.V.V.V.V.V.V.V.V.V.V.V.V.V.V.V.V.V.",
"V.V.V.V.V.V.r + ( '.'.'.'.'.'.'.!.=.@ + @ b u.M.V.V.V.B.V.V.V.V.V.V.V.V.V.V.V.V.V.V.V.V.V.V.V.V.V.V.V.V.V.V.V.V.V.V.V.V.V.V.V.V.",
"V.V.V.V.V.V.z.q + A.'.'.'.'.'.'.'.'.W.*.- + + b h.V.B.B.V.V.V.V.V.V.V.V.V.V.V.V.V.V.V.V.V.V.V.V.V.V.V.V.V.V.V.V.V.V.V.V.V.V.V.V.",
"V.V.V.V.V.V.V.4.+ 3 _.'.'.'.'.'.'.'.'.'.W.*.@ + - N h.V.V.V.V.V.V.V.V.V.V.V.V.V.V.V.V.V.V.V.V.V.V.V.V.V.V.V.V.V.V.V.V.V.V.V.V.V.",
"V.V.V.V.V.V.V.V.d + ~ '.'.'.'.'.'.'.'.'.'.'.W.*.$ + + b h.M.M.V.V.V.V.V.V.V.V.V.V.V.V.V.V.V.V.V.V.V.V.V.V.V.V.V.V.V.V.V.V.V.V.V.",
"V.V.V.V.V.V.V.V.z.1 + A.'.'.'.'.'.'.'.'.'.'.'.'.W.%.@ + + b h.V.V.V.V.V.V.V.V.V.V.V.V.V.V.V.V.V.V.V.V.V.V.V.V.V.V.V.V.V.V.V.V.V.",
"V.V.V.V.V.V.V.V.M.:.+ 3 ).'.'.'.'.'.'.'.'.'.'.'.'.'.E.$.@ + + C h.V.V.V.V.V.V.V.V.V.V.V.V.V.V.V.V.V.V.V.V.V.V.V.V.V.V.V.V.V.V.V.",
"V.V.V.V.V.V.V.V.V.M.r + ~ '.'.'.'.'.'.'.'.'.'.'.'.'.'.'.W.$.@ + + B k.V.V.V.V.V.V.V.V.V.V.V.V.V.V.V.V.V.V.V.V.V.V.V.V.V.V.V.V.V.",
"V.V.V.V.V.V.V.V.V.V.q.5 + A.`.'.'.'.'.'.'.'.'.'.'.'.'.'.'.'.E.$.@ + @ C l.V.V.V.V.V.V.V.V.V.V.V.V.V.V.V.V.V.V.V.V.V.V.V.V.V.V.V.",
"V.V.V.V.V.V.V.V.V.V.V.<.+ 3 (.`.'.'.'.'.'.'.'.'.'.'.'.'.'.'.'.'.R.+.@ + $ C l.M.V.V.V.V.V.V.V.V.V.V.V.V.V.V.V.V.V.V.V.V.V.V.V.V.",
"V.V.V.V.V.V.V.V.V.V.V.V.r + W `.'.'.'.'.'.'.'.'.'.'.'.'.'.'.'.'.'.'.R.$.$ + @ K l.V.V.V.V.V.V.V.V.V.V.V.V.V.V.V.V.V.V.V.V.V.V.V.",
"V.V.V.V.V.V.V.V.V.V.V.V.z.> + A.'.'.'.'.'.'.'.'.'.'.'.'.'.'.'.'.'.'.'.'.T...@ @ $ K l.V.V.V.V.V.V.V.V.V.V.V.V.V.V.V.V.V.V.V.V.V.",
"V.V.V.V.V.V.V.V.V.V.V.V.M.4.+ 3 (.'.'.'.'.'.'.'.'.'.'.'.'.'.'.'.'.'.'.'.'.'.T.+.@ + $ K l.V.V.V.V.V.V.V.V.V.V.V.V.V.V.V.V.V.V.V.",
"V.V.V.V.V.V.V.V.V.V.V.V.V.M.r + ~ '.'.'.'.'.'.'.'.'.'.'.'.'.'.'.'.'.'.'.'.'.'.'.I...@ + + K z.V.V.V.V.V.V.V.V.V.V.V.V.V.V.V.V.V.",
"V.V.V.V.V.V.V.V.V.V.V.V.V.V.b.> + C.'.'.'.'.'.'.'.'.'.'.'.'.'.'.'.'.'.'.'.'.'.'.'.'.I...@ + + K z.V.V.V.V.V.V.V.V.V.V.V.V.V.V.V.",
"V.V.V.V.V.V.V.V.V.V.V.V.V.V.V.4.+ 5 (.'.'.'.'.'.'.'.'.'.'.'.'.'.'.'.'.'.'.'.'.'.'.'.'.'.I. .+ + + L z.V.V.V.V.V.V.V.V.V.V.V.V.V.",
"V.V.V.V.V.V.V.V.V.V.V.V.V.V.V.V.t + E `.'.'.'.'.'.'.'.'.'.'.'.'.'.'.'.'.'.'.'.'.'.'.'.'.'.'.I...+ + + L b.V.V.V.V.V.V.V.V.V.V.V.",
"V.V.V.V.V.V.V.V.V.V.V.V.V.V.V.V.z.> + C.'.'.'.'.'.'.'.'.'.'.'.'.'.'.'.'.'.'.'.'.'.'.'.'.'.'.'.'.L.{ + + $ L z.V.V.V.V.V.V.V.V.V.",
"V.V.V.V.V.V.V.V.V.V.V.V.V.V.V.V.V.4.+ , ^.`.'.'.'.'.'.'.'.'.'.'.'.'.'.'.'.'.'.'.'.'.'.'.'.'.'.'.`.'.P. .+ + + L z.V.V.V.V.V.V.V.",
"V.V.V.V.V.V.V.V.V.V.V.V.V.V.V.V.V.M.t + ( `.'.'.'.'.'.'.'.'.'.'.'.'.'.'.'.'.'.'.'.'.'.'.'.'.'.'.'.'.`.`.L.] + + + Y c.V.V.V.V.V.",
"V.V.V.V.V.V.V.V.V.V.V.V.V.V.V.V.V.V.q.6 + C.'.'.'.'.'.'.'.'.'.'.'.'.'.'.'.'.'.'.'.'.'.'.'.'.'.'.'.'.'.'.'.'.L.{ + + - L b.V.V.V.",
"V.V.V.V.V.V.V.V.V.V.V.V.V.V.V.V.V.V.V.2.+ 3 ^.'.'.'.'.'.'.'.'.'.'.'.'.'.'.'.'.'.'.'.'.'.'.'.'.'.'.'.'.'.'.'.'.'.L.' + + , T b.V.",
"V.V.V.V.V.V.V.V.V.V.V.V.V.V.V.V.V.V.V.M.t + W '.'.'.'.'.'.'.'.'.'.'.'.'.'.'.'.'.'.'.'.'.'.'.'.'.'.'.'.'.'.'.'.'.`.`.L.] + + + Y ",
"V.V.V.V.V.V.V.V.V.V.V.V.V.V.V.V.V.V.V.V.7.4 C.`.'.'.'.'.'.'.'.'.'.'.'.'.'.'.'.'.'.'.'.'.'.'.'.'.'.'.'.'.'.'.'.`.`.`.`.`.J.` + + ",
"V.V.V.V.V.V.V.V.V.V.V.V.V.V.V.V.V.V.V.V.t + ! '.'.'.'.'.'.'.'.'.'.'.'.'.'.'.'.'.'.'.'.'.'.'.'.'.'.'.'.'.'.'.'.'.'.'.`.`.L.' + + ",
"V.V.V.V.V.V.V.V.V.V.V.V.V.V.V.V.V.V.V.6.+ 3 !.'.'.'.'.'.'.'.'.'.'.'.'.'.'.'.'.'.'.'.'.'.'.'.'.'.'.'.'.'.'.'.'.'.'.'.L.' + + + L ",
"V.V.V.V.V.V.V.V.V.V.V.V.V.V.V.V.V.V.z.> + C.'.'.'.'.'.'.'.'.'.'.'.'.'.'.'.'.'.'.'.'.'.'.'.'.'.'.'.'.'.'.'.'.`.`.P.] + + - Y z.M.",
"V.V.V.V.V.V.V.V.V.V.V.V.V.V.V.V.V.V.t + J `.'.'.'.'.'.'.'.'.'.'.'.'.'.'.'.'.'.'.'.'.'.'.'.'.'.'.'.'.'.'.'.`.P.] + + @ L z.V.V.V.",
"V.V.V.V.V.V.V.V.V.V.V.V.V.V.V.V.V.<.+ 6 ).`.`.'.'.'.'.'.'.'.'.'.'.'.'.'.'.'.'.'.'.'.'.'.'.'.'.'.'.'.`.'.L. .+ + $ U z.V.V.V.V.V.",
"V.V.V.V.V.V.V.V.V.V.V.V.V.V.V.V.q.5 + A.'.'.'.'.'.'.'.'.'.'.'.'.'.'.'.'.'.'.'.'.'.'.'.'.'.'.'.'.'.'.I.{ + + $ L z.V.V.V.V.V.V.V.",
"V.V.V.V.V.V.V.V.V.V.V.V.V.V.M.n.H + W `.'.'.'.'.'.'.'.'.'.'.'.'.'.'.'.'.'.'.'.'.'.'.'.'.'.'.`.'.I. .+ + + L z.V.V.V.V.V.V.V.V.V.",
"V.V.V.V.V.V.V.V.V.V.V.V.V.V.V.>.+ 3 ^.`.'.'.'.'.'.'.'.'.'.'.'.'.'.'.'.'.'.'.'.'.'.'.'.'.'.'.I. .+ + @ K h.M.V.V.V.V.V.V.V.V.V.V.",
"V.V.V.V.V.V.V.V.V.V.V.V.V.V.z.> + C.'.'.'.'.'.'.'.'.'.'.'.'.'.'.'.'.'.'.'.'.'.'.'.'.'.'.I...+ + $ L z.V.V.V.V.V.V.V.V.V.V.V.V.V.",
"V.V.V.V.V.V.V.V.V.V.V.V.V.V.t + W `.'.'.'.'.'.'.'.'.'.'.'.'.'.'.'.'.'.'.'.'.'.'.'.'.T.+.+ + + K z.V.V.V.V.V.V.V.V.V.V.V.V.V.V.V.",
"V.V.V.V.V.V.V.V.V.V.V.V.V.R + 3 ^.'.'.'.'.'.'.'.'.'.'.'.'.'.'.'.'.'.'.'.'.'.'.'.I...@ + @ G z.V.V.V.V.V.V.V.V.V.V.V.V.V.V.V.V.V.",
"V.V.V.V.V.V.V.V.V.V.V.V.b.1 + A.'.'.'.'.'.'.'.'.'.'.'.'.'.'.'.'.'.'.'.'.'.'.R...@ + + C l.V.V.V.V.V.V.V.V.V.V.V.V.V.V.V.V.V.V.V.",
"V.V.V.V.V.V.V.V.V.V.V.V.r + ( '.'.'.'.'.'.'.'.'.'.'.'.'.'.'.'.'.'.'.'.'.T.+.@ + $ C z.M.V.V.V.V.V.V.V.V.V.V.V.V.V.V.V.V.V.V.V.V.",
"V.V.V.V.V.V.V.V.V.V.V.<.+ q ^.'.'.'.'.'.'.'.'.'.'.'.'.'.'.'.'.'.'.'.R.+.@ + $ C z.V.V.V.V.V.V.V.V.V.V.V.V.V.V.V.V.V.V.V.V.V.V.V.",
"V.V.V.V.V.V.V.V.V.V.9.1 + A.'.'.'.'.'.'.'.'.'.'.'.'.'.'.'.'.`.'.R.+.@ + @ C z.V.V.V.V.V.V.V.V.V.V.V.V.V.V.V.V.V.V.V.V.V.V.V.V.V.",
"V.V.V.V.V.V.V.V.M.M.t + ( `.'.'.'.'.'.'.'.'.'.'.'.'.'.'.'.'.E.@.@ + @ C h.M.V.V.V.V.V.V.V.V.V.V.V.V.V.V.V.V.V.V.V.V.V.V.V.V.V.V.",
"V.V.V.V.V.V.V.V.V.4.+ 1 (.'.'.'.'.'.'.'.'.'.'.'.'.'.'.'.R.$.$ + @ C k.V.V.V.V.V.V.V.V.V.V.V.V.V.V.V.V.V.V.V.V.V.V.V.V.V.V.V.V.V.",
"V.V.V.V.V.V.V.V.z., + H.`.`.'.'.'.'.'.'.'.'.'.'.'.'.W.&.+ + @ C h.V.V.V.V.V.V.V.V.V.V.V.V.V.V.V.V.V.V.V.V.V.V.V.V.V.V.V.V.V.V.V.",
"V.V.V.V.V.V.V.M.s + ( `.'.'.'.'.'.'.'.'.'.'.'.'.W.$.$ + $ b h.V.V.V.V.V.V.V.V.V.V.V.V.V.V.V.V.V.V.V.V.V.V.V.V.V.V.V.V.V.V.V.V.V.",
"V.V.V.V.V.V.V.R + 6 ).`.'.'.'.'.'.'.'.'.'.'.!.*.@ + + b h.V.M.V.V.V.V.V.V.V.V.V.V.V.V.V.V.V.V.V.V.V.V.V.V.V.V.V.V.V.V.V.V.V.V.V.",
"V.V.V.V.V.V.z.1 + F.'.'.'.'.'.'.`.`.'.'.!.$.$ + + b h.V.V.V.V.V.V.V.V.V.V.V.V.V.V.V.V.V.V.V.V.V.V.V.V.V.V.V.V.V.V.V.V.V.V.V.V.V.",
"V.V.V.V.V.V.d + ( '.'.'.'.'.'.'.`.`.!.*.$ + + b h.M.V.V.V.V.V.V.V.V.V.V.V.V.V.V.V.V.V.V.V.V.V.V.V.V.V.V.V.V.V.V.V.V.V.V.V.V.V.V.",
"V.V.V.V.V.4.+ 3 ).`.'.'.'.'.'.'.!.*.$ + + b h.M.M.V.V.V.V.V.V.V.V.V.V.V.V.V.V.V.V.V.V.V.V.V.V.V.V.V.V.V.V.V.V.V.V.V.V.V.V.V.V.V.",
"V.V.V.V.z.6 + S.'.`.'.'.'.`.(.=.@ + + b t.M.V.V.M.V.V.V.V.V.V.V.V.V.V.V.V.V.V.V.V.V.V.V.V.V.V.V.V.V.V.V.V.V.V.V.V.V.V.V.V.V.V.V.",
"V.V.V.V.r + ) '.'.'.`.'.).*.$ + + z y.V.V.V.V.V.V.V.V.V.V.V.V.V.V.V.V.V.V.V.V.V.V.V.V.V.V.V.V.V.V.V.V.V.V.V.V.V.V.V.V.V.V.V.V.V.",
"V.V.V.4.+ q _.'.'.'.).-.$ + + z t.V.M.V.V.V.V.V.V.V.V.V.V.V.V.V.V.V.V.V.V.V.V.V.V.V.V.V.V.V.V.V.V.V.V.V.V.V.V.V.V.V.V.V.V.V.V.V.",
"V.V.z.- + D.'.'.(.=.$ $ + l e.M.V.V.V.V.V.V.V.V.V.V.V.V.V.V.V.V.V.V.V.V.V.V.V.V.V.V.V.V.V.V.V.V.V.V.V.V.V.V.V.V.V.V.V.V.V.V.V.V.",
"V.V.r + _ `.).;.- + + f e.V.V.V.V.V.V.V.V.V.V.V.V.V.V.V.V.V.V.V.V.V.V.V.V.V.V.V.V.V.V.V.V.V.V.V.V.V.V.V.V.V.V.V.V.V.V.V.V.V.V.V.",
"V.4.+ 6 J.;.$ + + l e.V.V.V.V.V.V.V.V.V.V.V.V.V.V.V.V.V.V.V.V.V.V.V.V.V.V.V.V.V.V.V.V.V.V.V.V.V.V.V.V.V.V.V.V.V.V.V.V.V.V.V.V.V.",
"z.3 + W $ + + j e.V.V.V.V.V.V.V.V.V.V.V.V.V.V.V.V.V.V.V.V.V.V.V.V.V.V.V.V.V.V.V.V.V.V.V.V.V.V.V.V.V.V.V.V.V.V.V.V.V.V.V.V.V.V.V.",
"r + + + + f u.V.V.V.V.V.V.V.V.V.V.V.V.V.V.V.V.V.V.V.V.V.V.V.V.V.V.V.V.V.V.V.V.V.V.V.V.V.V.V.V.V.V.V.V.V.V.V.V.V.V.V.V.V.V.V.V.V.",
"0 + + f r.V.V.V.V.V.V.V.V.V.V.V.V.V.V.V.V.V.V.V.V.V.V.V.V.V.V.V.V.V.V.V.V.V.V.V.V.V.V.V.V.V.V.V.V.V.V.V.V.V.V.V.V.V.V.V.V.V.V.V."
};
