/* XPM */
static char *_551670793594[] = {
/* columns rows colors chars-per-pixel */
"64 64 64 1 ",
"  c #020202",
". c #080707",
"X c #080807",
"o c #060708",
"O c #060809",
"+ c #0A0A0B",
"@ c #12100F",
"# c #0D0F10",
"$ c #0C1112",
"% c #0F1619",
"& c #141414",
"* c #181717",
"= c #121A1D",
"- c #1B1B1B",
"; c #201E1D",
": c #161F22",
"> c #191E20",
", c #172124",
"< c #1C2326",
"1 c #162329",
"2 c #1C2629",
"3 c #1C282D",
"4 c #1B2B31",
"5 c #232323",
"6 c #282625",
"7 c #2B2827",
"8 c #232A2D",
"9 c #2B2B2A",
"0 c #322F2E",
"q c #34302E",
"w c #232D32",
"e c #233035",
"r c #283235",
"t c #23343B",
"y c #29373D",
"u c #353434",
"i c #383535",
"p c #393837",
"a c #393939",
"s c #263A41",
"d c #2B3E45",
"f c #273F49",
"g c #2A424B",
"h c #374348",
"j c #39454B",
"k c #2D4751",
"l c #2E4852",
"z c #364850",
"x c #3B4F56",
"c c #334E59",
"v c #394F58",
"b c #36515B",
"n c #3A545D",
"m c #375560",
"M c #395763",
"N c #3C5A65",
"B c #3C5D6A",
"V c #3E616E",
"C c #3F6372",
"Z c #405F6C",
"A c #41626F",
"S c #416370",
"D c #426877",
"F c #426A7A",
/* pixels */
"aaaaaaaaaaaaaaaaaaaaaaaaaaaaaaaaaaaaaaaaaaaaaaaaaaaaaaaaaaaaaaaa",
"aaaaaaaaaaaaaaaaaaaaaaaaaaaaaaaaaaaaaaaaaaaaaaaaaaaaaaaaaaaaaaaa",
"aaaaaaaaaaaaaaaaaaaaaaaaaaaaaaaaaaaaaaaaaaaaaaaaaaaaaaaaaaaaaaaa",
"aaaaaaaaaaaaaaaaaaaaaaaaaaaaaaaaaaaaaaaaaaaaaaaaaaaaaaaaaaaaaaaa",
"aaaaaaaaaaaaaaaaaaaaaaaaaaaaaaaOXaaaaaaaaaaaaaaaaaaaaaaaaaaaaaaa",
"aaaaaaaaaaaaaaaaaaaaaaaaaaaaaa9  9aaaaaaaaaaaaaaaaaaaaaaaaaaaaaa",
"aaaaaaaaaaaaaaaaaaaaaaaaaaaaaa+  +aaaaaaaaaaaaaaaaaaaaaaaaaaaaaa",
"aaaaaaaaaaaaaaaaaaaaaaaaaaaaa9 && 6aaaaaaaaaaaaaaaaaaaaaaaaaaaaa",
"aaaaaaaaaaaaaaaaaaaaaaaaaaaaaX bz Xaaaaaaaaaaaaaaaaaaaaaaaaaaaaa",
"aaaaaaaaaaaaaaaaaaaaaaaaaaai6 3DF, 6aaaaaaaaaaaaaaaaaaaaaaaaaaaa",
"aaaaaaaaaaaaaaaaaaaaaaaaaaai# MACB +aaaaaaaaaaaaaaaaaaaaaaaaaaaa",
"aaaaaaaaaaaaaaaaaaaaaaaaaaa5 4SSVS4 5aaaaaaaaaaaaaaaaaaaaaaaaaaa",
"aaaaaaaaaaaaaaaaaaaaaaaaaaaX BSSSSB .aaaaaaaaaaaaaaaaaaaaaaaaaaa",
"aaaaaaaaaaaaaaaaaaaaaaaaaa5 >FSASSD2 5aaaaaaaaaaaaaaaaaaaaaaaaaa",
"aaaaaaaaaaaaaaaaaaaaaaaaaaX MSSSSSAB Xaaaaaaaaaaaaaaaaaaaaaaaaaa",
"aaaaaaaaaaaaaaaaaaaaaaaaa5 -FAASSASD> 5aaaaaaaaaaaaaaaaaaaaaaaaa",
"aaaaaaaaaaaaaaaaaaaaaaaaaX hDASSSSSSM Xaaaaaaaaaaaaaaaaaaaaaaaaa",
"aaaaaaaaaaaaaaaaaaaaaaaa5 <DAAASSSSSS- 5aaaaaaaaaaaaaaaaaaaaaaaa",
"aaaaaaaaaaaaaaaaaaaaaaaa. NDSASSSSSSDz .paaaaaaaaaaaaaaaaaaaaaaa",
"aaaaaaaaaaaaaaaaaaaaaaa5 -ZSSSSSSASSSD2 5aaaaaaaaaaaaaaaaaaaaaaa",
"aaaaaaaaaaaaaaaaaaaaaaa. xSSSSSSSSASSSV .aaaaaaaaaaaaaaaaaaaaaaa",
"aaaaaaaaaaaaaaaaaaaaaa5 2FSSSASSSSSSASF3 5aaaaaaaaaaaaaaaaaaaaaa",
"aaaaaaaaaaaaaaaaaaaapp. MDSSSSASSSSSSSDn .paaaaaaaaaaaaaaaaaaaaa",
"aaaaaaaaaaaaaaaaaappp5 2FAASSASSASSASSSF< <aaaaaaaaaaaaaaaaaaaaa",
"aaaaaaaaaaaaaaaaaaaaa. MDASSSSASSSSSSSSSN..pppaaaaaaaaaaaaaaaaaa",
"aaaaaaaaaaaaaaaaaaaa; eDAASSSSSSSSSSASSSF< 5ppaaaaaaaaaaaaaaaaaa",
"aaaaaaaaaaaaaaaaaaap. CAASSASASASSSAASSSFj .aaaaaaaaaaaaaaaaaaaa",
"aaaaaaaaaaaaaaaaaaa< 2SSSSSSSSSSASSSSSSSSS< <aaaaaaaaaaaaaaaaaaa",
"aaaaaaaaaaaaaaaaaaa. BSSSSSSASSSSSSASSASSSV..aaaaaaaaaaaaaaaaaaa",
"aaaaaaaaaaaaaaaaaa- 8SSSSSSSSSSSASSSSSSSSSA- ;aaaaaaaaaaaaaaaaaa",
"aaaaaaaaaaaaaaaaaa. BDASASSSSSSASSSSSSSSSSSx .aaaaaaaaaaaaaaaaaa",
"aaaaaaaaaaaaaaaaa- wDSAASSSAASSSSSSSASSASSSF3 ;aaaaaaaaaaaaaaaaa",
"aaaaaaaaaaaaaaaaa .CSSSSASSSSSSSSASSSSSSSSSDN .paaaaaaaaaaaaaaaa",
"aaaaaaaaaaaaaaaa- sASASSSSSASASSSSSASAASSASAFe ;aaaaaaaaaaaaaaaa",
"aaaaaaaaaaaaaaap ODSSSASSSSSSSSASSSSSASSSSSSAF. uaaaaaaaaaaaaaaa",
"aaaaaaaaaaaaaaa- tSSSSSSASSSSASSSASSSSSSSSASSSt -aaaaaaaaaaaaaaa",
"aaaaaaaaaaaappu .CSSSSASSSSASSSSSSSSSASSSSSSSADO aaaaaaaaaaaaaaa",
"aaaaaaaaaaaapp> 8DSSSSSSSSSSSSASASSSSSSSSSASSSD8 -aaaaaaaaaaaaaa",
"aaaaaaaaaaaaap .VSSSASSASSSSSASASSSSSSSZSASASSSVO paaaaaaaaaaaaa",
"aaaaaaaaaaaaa- wSSSSSSSSSSASSSSSSSSSSSSSSSSSSSSSs -aaaaaaaaaaaaa",
"aaaaaaaaaaaap OSSSSASSSASASSSZDFDDSSSSSSSASSSSSSVO paaaaaaaaaaaa",
"aaaaaaaaaaaa- sDSSSSSSSSSSSSSC:88>VSSSSSSSSSASSSDs -aaaaaaaaaaaa",
"aaaaaaaaaaau XSSSSSSSASSSSSCkO @@ OkSSSASSSASSSSSN. paaaaaaaaaaa",
"aaaaaaaaaaa- tFSSSSSSSSADDn&  5aa5  ,BSVASSSSSASADt *aaaaaaaaaaa",
"aaaaaaaaaau XNDASASSSSSDZy. $uaaaau@  gDASSSSSSSASFX uaaaaaaaaaa",
"aaaaaaaaai- gSASSSSSASFM$  6aaaaaaaa5O =BASSSAASSSFe -aaaaaaaaaa",
"aaaaaaaap0 $ASSSSSSSSAw  &paaaaaaaaaau@  fCASSASSADZX uaaaaaaaaa",
"aaaaaaaap- fSSSSASSSM$ .6aaaaaaaaaaaaaa6O %mSSSSSSAFw *aaaaaaaaa",
"aaaaaaaaq $VASSAASSt  *ppaaaaaaaaaaaaaaau*  tCSSSSASAX uaaaaaaaa",
"aaaaaaaa* gSSSSADc$ X9aappaaaaaaaaaaaaaapa7X $bSASSSDr *aaaaaaaa",
"aaaaaaiu #CSSAASt  -paaaaaaaaaaaaaaaaaaaaaai-  tSASSSSX uaaaaaaa",
"aaaaaaa* fSSSSc$ +9aaaaaaaaaaaaaaaaaaaaaaaaaprX $cSASSy &aaaaaaa",
"aaaaaau +BSSC4  -aaaaaaaaaaaaaaaaaaaaaaaaaaaaaa-  4BSDAX uaaaaaa",
"aaaaaa& ySFdO $9aaaaaaaaaaaaaaaaaaaaaaaaaaaaaaaa0$ +lSSy &aaaaaa",
"aaaaau +AC<  ;iaaaaaaaaaaaaaaaaaaaaaaaaaaaaaaaaaii5  1VVX uaaaaa",
"aaaaa* fgO +uaaaaaaaaaaaaaaaaaaaaaaaaaaaaaaaaaaaapaq# Ols *aaaaa",
"aaaau #:  5aaaaaaaaaaaaaaaaaaaaaaaaaaaaaaaaaaaaaaaaai5  1# 0aaaa",
"aaaa&   &paaaaaaaaaaaaaaaaaaaaaaaaaaaaaaaaaaaaaaaaaaaau&   &aaaa",
"aaaaO  5aaaaaaaaaaaaaaaaaaaaaaaaaaaaaaaaaaaaaaaaaaaaaaaar. Xaaaa",
"aaap5&uaaaaaaaaaaaaaaaaaaaaaaaaaaaaaaaaaaaaaaaaaaaaaaaaaap&<aaaa",
"aaaaaaaaaaaaaaaaaaaaaaaaaaaaaaaaaaaaaaaaaaaaaaaaaaaaaaaaaaaaaaaa",
"aaaaaaaaaaaaaaaaaaaaaaaaaaaaaaaaaaaaaaaaaaaaaaaaaaaaaaaaaaaaaaaa",
"aaaaaaaaaaaaaaaaaaaaaaaaaaaaaaaaaaaaaaaaaaaaaaaaaaaaaaaaaaaaaaaa",
"aaaaaaaaaaaaaaaaaaaaaaaaaaaaaaaaaaaaaaaaaaaaaaaaaaaaaaaaaaaaaaaa"
};
