/* XPM */
static char *_551670776674[] = {
/* columns rows colors chars-per-pixel */
"64 64 153 2 ",
"   c black",
".  c #000101",
"X  c #010101",
"o  c #010202",
"O  c #020303",
"+  c gray1",
"@  c #030505",
"#  c #030506",
"$  c #040404",
"%  c #040505",
"&  c gray2",
"*  c #060606",
"=  c #060607",
"-  c #070707",
";  c #040708",
":  c #070909",
">  c #06090A",
",  c #06090B",
"<  c #090909",
"1  c #08090A",
"2  c #090A0B",
"3  c gray4",
"4  c #0B0B0B",
"5  c #080C0D",
"6  c gray5",
"7  c #0D0E0E",
"8  c #0E0E0E",
"9  c gray6",
"0  c #0A0F11",
"q  c #0A1012",
"w  c #0C1417",
"e  c #0F1619",
"r  c #0F1719",
"t  c #0F171A",
"y  c #0F181B",
"u  c #101010",
"i  c #111111",
"p  c gray7",
"a  c #131313",
"s  c #141211",
"d  c #151313",
"f  c #131515",
"g  c #131617",
"h  c gray8",
"j  c #161616",
"k  c #181514",
"l  c #10181B",
"z  c #10181C",
"x  c #10191C",
"c  c #11191D",
"v  c #111A1D",
"b  c #111A1E",
"n  c #111B1E",
"m  c #121B1E",
"M  c #121B1F",
"N  c #121C1F",
"B  c #1B1B1B",
"V  c #191C1D",
"C  c #1E1E1E",
"Z  c #231F1D",
"A  c #121C20",
"S  c #131C20",
"D  c #131D21",
"F  c #131E21",
"G  c #141E22",
"H  c #141F23",
"J  c #151F24",
"K  c #152024",
"L  c #152025",
"P  c #152125",
"I  c #162125",
"U  c #152126",
"Y  c #162126",
"T  c #162226",
"R  c #18252A",
"E  c #19272D",
"W  c #1B2A2F",
"Q  c #1E2E34",
"!  c #1F3037",
"~  c gray13",
"^  c #262323",
"/  c gray14",
"(  c #272727",
")  c #282523",
"_  c #2B2725",
"`  c gray16",
"'  c #2A2A2A",
"]  c gray17",
"[  c #2D2928",
"{  c #2C2C2C",
"}  c #2D2D2D",
"|  c gray18",
" . c #2F2F2F",
".. c #33302E",
"X. c #36312F",
"o. c #22343A",
"O. c #22363E",
"+. c gray19",
"@. c #323232",
"#. c #343131",
"$. c #353230",
"%. c #343434",
"&. c #353535",
"*. c gray21",
"=. c #373737",
"-. c #383332",
";. c #383533",
":. c gray22",
">. c #393939",
",. c #393A3A",
"<. c #253940",
"1. c #263D45",
"2. c #283D45",
"3. c #273F48",
"4. c #29414B",
"5. c #2B424B",
"6. c #2C424B",
"7. c #2B434D",
"8. c #2F4751",
"9. c #2F4851",
"0. c #2F4852",
"q. c #304952",
"w. c #304953",
"e. c #304A53",
"r. c #314A54",
"t. c #314B54",
"y. c #314B55",
"u. c #324C56",
"i. c #324C57",
"p. c #324D57",
"a. c #334D57",
"s. c #334E58",
"d. c #334E59",
"f. c #344F59",
"g. c #344F5A",
"h. c #34505A",
"j. c #35505A",
"k. c #35505B",
"l. c #35515B",
"z. c #35515C",
"x. c #36525C",
"c. c #36525D",
"v. c #35535E",
"b. c #37535E",
"n. c #395662",
"m. c #395762",
"M. c #3B5A65",
"N. c #3C5C68",
"B. c #3E5E6A",
"V. c #3F606C",
"C. c #40616E",
"Z. c #40626F",
"A. c #416370",
/* pixels */
">.>.>.>.>.>.>.>.>.>.>.>.>.>.>.>.>.>.>.>.>.>.>.>.>.>.>.>.>.>.>.>.>.>.>.>.>.>.>.>.>.>.>.>.>.>.>.>.>.>.>.>.>.>.>.>.>.>.>.>.>.>.>.>.",
">.>.>.>.>.>.>.>.>.>.>.>.>.>.>.>.>.>.>.>.>.>.>.>.>.>.>.>.>.>.>.>.>.>.>.>.>.>.>.>.>.>.>.>.>.>.>.>.>.>.>.>.>.>.>.>.>.>.>.>.>.>.>.>.",
">.>.>.>.>.>.>.>.>.>.>.>.>.>.>.>.>.>.>.>.>.>.>.>.>.>.>.>.>.>.>.>.>.>.>.>.>.>.>.>.>.>.>.>.>.>.>.>.>.>.>.>.>.>.>.>.>.>.>.>.>.>.>.>.",
">.>.>.>.>.>.>.>.>.>.>.>.>.>.>.>.>.>.>.>.>.>.>.>.>.>.>.>.>.>.>.>.>.>.>.>.>.>.>.>.>.>.>.>.>.>.>.>.>.>.>.>.>.>.>.>.>.>.>.>.>.>.>.>.",
">.>.>.>.a * =.>.>.>.>.>.>.>.>.>.>.>.>.>.>.>.>.>.>.>.>.>.>.>.>.>.>.>.>.>.>.>.>.>.>.>.>.>.>.>.>.>.>.>.>.>.>.>.>.>.=.=.* d >.>.>.>.",
">.>.>.>.*     ` >.>.>.>.>.>.>.>.>.>.>.>.>.>.>.>.>.>.>.>.>.>.>.>.>.>.>.>.>.>.>.>.>.>.>.>.>.>.>.>.>.>.>.>.>.>.>.>./ *   - >.>.>.>.",
">.>.>.>.+.      a =.>.>.>.>.>.>.>.>.>.>.>.>.>.>.>.>.>.>.>.>.>.>.>.>.>.>.>.>.>.>.>.>.>.>.>.>.>.>.>.>.>.>.>.>.=.a       +.>.>.>.>.",
">.>.>.>.>.h   9     / >.>.>.>.>.>.>.>.>.>.>.>.>.>.>.>.>.>.>.>.>.>.>.>.>.>.>.>.>.>.>.>.>.>.>.>.>.>.>.>.>.>./     9   h >.>.>.>.>.",
">.>.>.>.>.+.  t 6.,   a +.>.>.>.>.>.>.>.>.>.>.>.>.>.>.>.>.>.>.>.>.>.>.>.>.>.>.>.>.>.>.>.>.>.>.>.>.>.>.%.a   * 6.t   +.>.>.>.>.>.",
">.>.>.>.>.>.h   9.N.R   @ ~ >.>.>.>.>.>.>.>.>.>.>.>.>.>.>.>.>.>.>.>.>.>.>.>.>.>.>.>.>.>.>.>.>.>.>.>.~     R N.9.  h >.>.>.>.>.>.",
">.>.>.>.>.>.+.  y A.A.8.5   9  .>.>.>.>.>.>.>.>.>.>.>.>.>.>.>.>.>.>.>.>.>.>.>.>.>.>.>.>.>.>.>.>.+.9   2 8.Z.Z.l   +.>.>.>.>.>.>.",
">.>.>.>.>.>.>.f   9.A.A.N.Q     C >.>.>.>.>.>.>.>.>.>.>.>.>.>.>.>.>.>.>.>.>.>.>.>.>.>.>.>.>.>.C     Q N.A.A.w.  d >.>.>.>.>.>.>.",
">.>.>.>.>.>.>.+.  t A.A.A.A.a.q   4 [ >.>.>.>.>.>.>.>.>.>.>.>.>.>.>.>.>.>.>.>.>.>.>.>.>.>. .5   q a.A.A.A.A.l   +.>.>.>.>.>.>.>.",
">.>.>.>.>.>.>.>.h   w.A.A.A.A.V.!     B $.>.>.>.>.>.>.>.>.>.>.>.>.>.>.>.>.>.>.>.>.>.>.=.B     Q V.A.A.A.A.w.  h >.>.>.>.>.>.>.>.",
">.>.>.>.>.>.>.>...  t A.A.A.A.A.A.b.w   2 _ >.>.>.>.>.>.>.>.>.>.>.>.>.>.>.>.>.>.>.>.{ 4   t d.A.A.A.A.A.Z.l    .>.>.>.>.>.>.>.>.",
">.>.>.>.>.>.>.>.>.f   w.A.A.A.A.A.A.Z.O.@   k $.>.>.>.>.>.>.>.>.>.>.>.>.>.>.>.>.=.B   O o.V.A.A.A.A.A.A.y.  L >.>.>.>.>.>.>.>.>.",
">.>.>.>.>.>.>.>.>. .  l A.A.A.A.A.A.A.A.b.y   , ) >.>.>.>.>.>.>.>.>.>.>.>.>.>.` 4   y b.A.A.A.A.A.A.A.A.l   +.>.>.>.>.>.>.>.>.>.",
">.>.>.>.>.>.>.>.>.>.a   w.A.A.A.A.A.A.A.A.Z.1.*   d $.>.>.>.>.>.>.>.>.>.>.=.j   @ <.Z.A.A.A.A.A.A.A.A.y.  a >.>.>.>.>.>.>.>.>.>.",
">.>.>.>.>.>.>.>.>.>. .  v Z.A.A.A.A.A.A.A.A.Z.m.A   * ^ =.>.>.>.>.>.>.>.( *   v n.V.A.A.A.A.A.A.A.A.A.v    .>.>.>.>.>.>.>.>.>.>.",
">.>.>.>.>.>.>.>.>.>.>.a   y.A.A.A.A.A.A.A.A.A.Z.A.7.;   f ..>.>.>.>.%.a   ; 1.A.A.A.A.A.A.A.A.A.A.Z.y.  a >.>.>.>.>.>.>.>.>.>.>.",
">.>.>.>.>.>.>.>.>.>.>. .  v A.A.A.A.A.A.A.A.A.A.A.A.M.L   * Z $.$.Z *   L M.A.A.A.A.A.A.A.A.A.A.A.A.v    .>.>.>.>.>.>.>.>.>.>.>.",
">.>.>.>.>.>.>.>.>.>.>.>.a   y.A.A.A.A.A.A.A.A.A.A.A.A.A.7.,   f h   , 7.A.A.A.A.A.A.A.A.A.A.A.A.A.y.  a >.>.>.>.>.>.>.>.>.>.>.>.",
">.>.>.>.>.>.>.>.>.>.>.>. .  v A.A.A.A.A.A.A.A.A.A.A.A.A.A.N.E 3.3.E N.A.A.A.A.A.A.A.A.A.A.A.A.A.A.v    .>.>.>.>.>.>.>.>.>.>.>.>.",
">.>.>.>.>.>.>.>.>.>.>.>.>.a   y.A.A.A.A.A.A.A.A.A.A.A.A.A.A.A.A.A.A.A.A.A.A.A.A.A.A.A.A.A.A.A.A.a.  a >.>.>.>.>.>.>.>.>.>.>.>.>.",
">.>.>.>.>.>.>.>.>.>.>.>.>. .  v A.A.A.A.A.A.A.A.A.A.A.A.A.A.A.A.A.A.A.A.A.A.A.A.A.A.A.A.A.A.A.A.v    .>.>.>.>.>.>.>.>.>.>.>.>.>.",
">.>.>.>.>.>.>.>.>.>.>.>.>.>.a   a.Z.A.A.A.A.A.A.A.A.A.A.A.A.A.A.A.A.A.A.A.A.A.A.A.A.A.A.A.A.A.a.  a >.>.>.>.>.>.>.>.>.>.>.>.>.>.",
">.>.>.>.>.>.>.>.>.>.>.>.>.>. .  v Z.A.A.A.A.A.A.A.A.A.A.A.A.A.A.A.A.A.A.A.A.A.A.A.A.A.A.A.A.A.v    .>.>.>.>.>.>.>.>.>.>.>.>.>.>.",
">.>.>.>.>.>.>.>.>.>.>.>.>.>.>.a   a.A.A.A.A.A.A.A.A.A.A.A.A.A.A.A.A.A.A.A.A.A.A.A.A.A.A.A.A.a.  a >.>.>.>.>.>.>.>.>.>.>.>.>.>.>.",
">.>.>.>.>.>.>.>.>.>.>.>.>.>.>. .  v A.A.A.A.A.A.A.A.A.A.A.A.A.A.A.A.A.A.A.A.A.A.A.A.A.A.A.A.v    .>.>.>.>.>.>.>.>.>.>.>.>.>.>.>.",
">.>.>.>.>.>.>.>.>.>.>.>.>.>.>.>.a   a.A.A.A.A.A.A.A.A.A.A.A.A.A.A.A.A.A.A.A.A.A.A.A.A.A.A.d.  9 =.>.>.>.>.>.>.>.>.>.>.>.>.>.>.>.",
">.>.>.>.>.>.>.>.>.>.>.>.>.>.>.>. .  v A.A.A.A.A.A.A.A.A.A.A.A.A.A.A.A.A.A.A.A.A.A.A.A.A.A.v    .>.>.>.>.>.>.>.>.>.>.>.>.>.>.>.>.",
">.>.>.>.>.>.>.>.>.>.>.>.>.>.>.>.>.a   a.A.A.A.A.A.A.A.A.A.A.A.A.A.A.A.A.A.A.A.A.A.A.A.A.d.  a >.>.>.>.>.>.>.>.>.>.>.>.>.>.>.>.>.",
">.>.>.>.>.>.>.>.>.>.>.>.>.>.>.>.=. .  A A.A.A.A.A.A.A.A.A.A.A.A.A.A.A.A.A.A.A.A.A.A.A.Z.G    .=.>.>.>.>.>.>.>.>.>.>.>.>.>.>.>.>.",
">.>.>.>.>.>.>.>.>.>.>.>.>.>.>.>.>.>.a   a.A.A.A.A.A.A.A.A.A.A.A.A.A.A.A.A.A.A.A.A.A.A.d.  a >.>.>.>.>.>.>.>.>.>.>.>.>.>.>.>.>.>.",
">.>.>.>.>.>.>.>.>.>.>.>.>.>.>.>.>.>. .  G Z.A.A.A.A.A.A.A.A.A.A.A.A.A.A.A.A.A.A.A.A.Z.G    .=.>.>.>.>.>.>.>.>.>.>.>.>.>.>.>.>.>.",
">.>.>.>.>.>.>.>.>.>.>.>.>.>.>.>.>.>.>.a   a.A.A.A.A.A.A.A.A.A.A.A.A.A.A.A.A.A.A.A.Z.d.  a >.>.>.>.>.>.>.>.>.>.>.>.>.>.>.>.>.>.>.",
">.>.>.>.>.>.>.>.>.>.>.>.>.>.>.>.>.>.>. .  G Z.A.A.A.A.A.A.A.A.A.A.A.A.A.A.A.A.A.Z.A.G    .>.>.>.>.>.>.>.>.>.>.>.>.>.>.>.>.>.>.>.",
">.>.>.>.>.>.>.>.>.>.>.>.>.>.>.>.>.>.>.=.a   d.A.A.A.A.A.A.A.A.A.A.A.A.A.A.A.A.A.Z.g.  a =.>.>.>.>.>.>.>.>.>.>.>.>.>.>.>.>.>.>.>.",
">.>.>.>.>.>.>.>.>.>.>.>.>.>.>.>.>.>.>.>.[   G Z.A.A.A.A.A.A.A.A.A.A.A.A.A.A.A.A.Z.G   ` >.>.>.>.>.>.>.>.>.>.>.>.>.>.>.>.>.>.>.>.",
">.>.>.>.>.>.>.>.>.>.>.>.>.>.>.>.>.>.>.>.=.a   g.A.A.A.A.A.A.A.A.A.A.A.A.A.A.A.A.g.  a >.>.>.>.>.>.>.>.>.>.>.>.>.>.>.>.>.>.>.>.>.",
">.>.>.>.>.>.>.>.>.>.>.>.>.>.>.>.>.>.>.>.>.`   G A.A.A.A.A.A.A.A.A.A.A.A.A.A.A.A.G   ` >.>.>.>.>.>.>.>.>.>.>.>.>.>.>.>.>.>.>.>.>.",
">.>.>.>.>.>.>.>.>.>.>.>.>.>.>.>.>.>.>.>.>.>.a   g.A.A.A.A.A.A.A.A.A.A.A.A.A.A.g.  a >.>.>.>.>.>.>.>.>.>.>.>.>.>.>.>.>.>.>.>.>.>.",
">.>.>.>.>.>.>.>.>.>.>.>.>.>.>.>.>.>.>.>.>.>.`   G A.A.A.A.A.A.A.A.A.A.A.A.A.A.G    .>.>.>.>.>.>.>.>.>.>.>.>.>.>.>.>.>.>.>.>.>.>.",
">.>.>.>.>.>.>.>.>.>.>.>.>.>.>.>.>.>.>.>.>.>.>.9   h.A.A.A.A.A.A.A.A.A.A.A.A.h.  9 >.>.>.>.>.>.>.>.>.>.>.>.>.>.>.>.>.>.>.>.>.>.>.",
">.>.>.>.>.>.>.>.>.>.>.>.>.>.>.>.>.>.>.>.>.>.>. .  a Z.A.A.A.A.A.A.A.A.A.A.A.G    .=.>.>.>.>.>.>.>.>.>.>.>.>.>.>.>.>.>.>.>.>.>.>.",
">.>.>.>.>.>.>.>.>.>.>.>.>.>.>.>.>.>.>.>.>.>.>.=.9   h.A.A.A.A.A.A.A.A.A.A.b.  9 >.>.>.>.>.>.>.>.>.>.>.>.>.>.>.>.>.>.>.>.>.>.>.>.",
">.>.>.>.>.>.>.>.>.>.>.>.>.>.>.>.>.>.>.>.>.>.>.>. .  a A.A.A.A.A.A.A.A.A.A.J    .>.>.>.>.>.>.>.>.>.>.>.>.>.>.>.>.>.>.>.>.>.>.>.>.",
">.>.>.>.>.>.>.>.>.>.>.>.>.>.>.>.>.>.>.>.>.>.>.>.>.9   h.A.A.A.A.A.A.A.A.h.  9 >.>.>.>.>.>.>.>.>.>.>.>.>.>.>.>.>.>.>.>.>.>.>.>.>.",
">.>.>.>.>.>.>.>.>.>.>.>.>.>.>.>.>.>.>.>.>.>.>.>.>.{   L Z.Z.A.A.A.A.Z.Z.G   ` >.>.>.>.>.>.>.>.>.>.>.>.>.>.>.>.>.>.>.>.>.>.>.>.>.",
">.>.>.>.>.>.>.>.>.>.>.>.>.>.>.>.>.>.>.>.>.>.>.>.>.>.9   b.A.A.A.A.A.A.b.  a >.>.>.>.>.>.>.>.>.>.>.>.>.>.>.>.>.>.>.>.>.>.>.>.>.>.",
">.>.>.>.>.>.>.>.>.>.>.>.>.>.>.>.>.>.>.>.>.>.>.>.>.>.`   K Z.A.A.A.A.A.L   ` >.>.>.>.>.>.>.>.>.>.>.>.>.>.>.>.>.>.>.>.>.>.>.>.>.>.",
">.>.>.>.>.>.>.>.>.>.>.>.>.>.>.>.>.>.>.>.>.>.>.>.>.>.>.9   b.A.A.A.A.b.  9 >.>.>.>.>.>.>.>.>.>.>.>.>.>.>.>.>.>.>.>.>.>.>.>.>.>.>.",
">.>.>.>.>.>.>.>.>.>.>.>.>.>.>.>.>.>.>.>.>.>.>.>.>.>.>.{   L Z.Z.A.Z.L   ` >.>.>.>.>.>.>.>.>.>.>.>.>.>.>.>.>.>.>.>.>.>.>.>.>.>.>.",
">.>.>.>.>.>.>.>.>.>.>.>.>.>.>.>.>.>.>.>.>.>.>.>.>.>.>.>.9   b.A.A.b.  9 >.>.>.>.>.>.>.>.>.>.>.>.>.>.>.>.>.>.>.>.>.>.>.>.>.>.>.>.",
">.>.>.>.>.>.>.>.>.>.>.>.>.>.>.>.>.>.>.>.>.>.>.>.>.>.>.>.`   L A.A.L   ` >.>.>.>.>.>.>.>.>.>.>.>.>.>.>.>.>.>.>.>.>.>.>.>.>.>.>.>.",
">.>.>.>.>.>.>.>.>.>.>.>.>.>.>.>.>.>.>.>.>.>.>.>.>.>.>.>.>.9   b.b.  l >.>.>.>.>.>.>.>.>.>.>.>.>.>.>.>.>.>.>.>.>.>.>.>.>.>.>.>.>.",
">.>.>.>.>.>.>.>.>.>.>.>.>.>.>.>.>.>.>.>.>.>.>.>.>.>.>.>.>.`   L T   ` >.>.>.>.>.>.>.>.>.>.>.>.>.>.>.>.>.>.>.>.>.>.>.>.>.>.>.>.>.",
">.>.>.>.>.>.>.>.>.>.>.>.>.>.>.>.>.>.>.>.>.>.>.>.>.>.>.>.>.>.9     9 >.>.>.>.>.>.>.>.>.>.>.>.>.>.>.>.>.>.>.>.>.>.>.>.>.>.>.>.>.>.",
">.>.>.>.>.>.>.>.>.>.>.>.>.>.>.>.>.>.>.>.>.>.>.>.>.>.>.>.>.>.`     ` >.>.>.>.>.>.>.>.>.>.>.>.>.>.>.>.>.>.>.>.>.>.>.>.>.>.>.>.>.>.",
">.>.>.>.>.>.>.>.>.>.>.>.>.>.>.>.>.>.>.>.>.>.>.>.>.>.>.>.>.>.>.4 4 >.>.>.>.>.>.>.>.>.>.>.>.>.>.>.>.>.>.>.>.>.>.>.>.>.>.>.>.>.>.>.",
">.>.>.>.>.>.>.>.>.>.>.>.>.>.>.>.>.>.>.>.>.>.>.>.>.>.>.>.>.>.>.>.>.>.>.>.>.>.>.>.>.>.>.>.>.>.>.>.>.>.>.>.>.>.>.>.>.>.>.>.>.>.>.>.",
">.>.>.>.>.>.>.>.>.>.>.>.>.>.>.>.>.>.>.>.>.>.>.>.>.>.>.>.>.>.>.>.>.>.>.>.>.>.>.>.>.>.>.>.>.>.>.>.>.>.>.>.>.>.>.>.>.>.>.>.>.>.>.>.",
">.>.>.>.>.>.>.>.>.>.>.>.>.>.>.>.>.>.>.>.>.>.>.>.>.>.>.>.>.>.>.>.>.>.>.>.>.>.>.>.>.>.>.>.>.>.>.>.>.>.>.>.>.>.>.>.>.>.>.>.>.>.>.>.",
">.>.>.>.>.>.>.>.>.>.>.>.>.>.>.>.>.>.>.>.>.>.>.>.>.>.>.>.>.>.>.>.>.>.>.>.>.>.>.>.>.>.>.>.>.>.>.>.>.>.>.>.>.>.>.>.>.>.>.>.>.>.>.>."
};
