/* XPM */
static char *_551670791343[] = {
/* columns rows colors chars-per-pixel */
"64 64 113 2 ",
"   c black",
".  c #010101",
"X  c #010202",
"o  c #020202",
"O  c #020203",
"+  c gray1",
"@  c #020304",
"#  c #030405",
"$  c #030506",
"%  c #040404",
"&  c #040506",
"*  c #040606",
"=  c #040607",
"-  c #070707",
";  c #070B0D",
":  c gray3",
">  c #080C0E",
",  c #080D0F",
"<  c #0E0E0E",
"1  c #090E10",
"2  c gray13",
"3  c #222222",
"4  c #232323",
"5  c gray14",
"6  c gray15",
"7  c #272727",
"8  c #282828",
"9  c gray16",
"0  c #2A2A2A",
"q  c gray17",
"w  c #2C2C2C",
"e  c #2D2D2D",
"r  c gray18",
"t  c #2F2F2F",
"y  c #25383F",
"u  c gray19",
"i  c #313131",
"p  c #323232",
"a  c gray20",
"s  c #343434",
"d  c #253840",
"f  c #263A42",
"g  c #273B43",
"h  c #273C44",
"j  c #283D45",
"k  c #283D46",
"l  c #293E47",
"z  c #2C444D",
"x  c #2D454E",
"c  c #2E454F",
"v  c #2F4751",
"b  c #2F4852",
"n  c #304953",
"m  c #314A55",
"M  c #314B56",
"N  c #324C57",
"B  c #324D58",
"V  c #334E58",
"C  c #34505B",
"Z  c #35525D",
"A  c #36525E",
"S  c #37535F",
"D  c #375460",
"F  c #385561",
"G  c #395663",
"H  c #395764",
"J  c #3A5864",
"K  c #484848",
"L  c #494949",
"P  c gray29",
"I  c #4B4B4B",
"U  c #4C4C4C",
"Y  c gray38",
"T  c #626262",
"R  c gray39",
"E  c #646464",
"W  c #656565",
"Q  c gray40",
"!  c #676767",
"~  c #686868",
"^  c DimGray",
"/  c #6A6A6A",
"(  c gray42",
")  c #777777",
"_  c #527D8F",
"`  c #527E8F",
"'  c #537E90",
"]  c #537F91",
"[  c #548092",
"{  c #548093",
"}  c #558193",
"|  c #558294",
" . c #568395",
".. c #6DA6BD",
"X. c #6FA9C1",
"o. c #6FAAC2",
"O. c #70AAC2",
"+. c #70ABC3",
"@. c #71ADC5",
"#. c #72AEC7",
"$. c #73AFC8",
"%. c #74B1CA",
"&. c #75B3CC",
"*. c #76B3CD",
"=. c #76B4CE",
"-. c #77B6CF",
";. c #78B7D0",
":. c #78B7D1",
">. c #79B8D2",
",. c #79B9D3",
"<. c #7ABAD4",
"1. c #86CDEA",
"2. c SkyBlue",
/* pixels */
") ) ) ) ) ) ) ) ) ) ) ) ) ) ) ) ) ) ) ) ) ) ) ) ) ) ) ) ) ) ^ < < ^ ) ) ) ) ) ) ) ) ) ) ) ) ) ) ) ) ) ) ) ) ) ) ) ) ) ) ) ) ) ) ",
") ) ) ) ) ) ) ) ) ) ) ) ) ) ) ) ) ) ) ) ) ) ) ) ) ) ) ) ) ) s + + s ) ) ) ) ) ) ) ) ) ) ) ) ) ) ) ) ) ) ) ) ) ) ) ) ) ) ) ) ) ) ",
") ) ) ) ) ) ) ) ) ) ) ) ) ) ) ) ) ) ) ) ) ) ) ) ) ) ) ) ) ^ + + + + ^ ) ) ) ) ) ) ) ) ) ) ) ) ) ) ) ) ) ) ) ) ) ) ) ) ) ) ) ) ) ",
") ) ) ) ) ) ) ) ) ) ) ) ) ) ) ) ) ) ) ) ) ) ) ) ) ) ) ) ) i + 5 5 + i ) ) ) ) ) ) ) ) ) ) ) ) ) ) ) ) ) ) ) ) ) ) ) ) ) ) ) ) ) ",
") ) ) ) ) ) ) ) ) ) ) ) ) ) ) ) ) ) ) ) ) ) ) ) ) ) ) ) ^ & + o...+ & ^ ) ) ) ) ) ) ) ) ) ) ) ) ) ) ) ) ) ) ) ) ) ) ) ) ) ) ) ) ",
") ) ) ) ) ) ) ) ) ) ) ) ) ) ) ) ) ) ) ) ) ) ) ) ) ) ) ) i + x 2.1.z + i ) ) ) ) ) ) ) ) ) ) ) ) ) ) ) ) ) ) ) ) ) ) ) ) ) ) ) ) ",
") ) ) ) ) ) ) ) ) ) ) ) ) ) ) ) ) ) ) ) ) ) ) ) ) ) ) ^ & + ..2.1.o.+ + ^ ) ) ) ) ) ) ) ) ) ) ) ) ) ) ) ) ) ) ) ) ) ) ) ) ) ) ) ",
") ) ) ) ) ) ) ) ) ) ) ) ) ) ) ) ) ) ) ) ) ) ) ) ) ) ) i + z 1.1.2.2.x + i ) ) ) ) ) ) ) ) ) ) ) ) ) ) ) ) ) ) ) ) ) ) ) ) ) ) ) ",
") ) ) ) ) ) ) ) ) ) ) ) ) ) ) ) ) ) ) ) ) ) ) ) ) ) ! + + o.2.2.2.2.o.+ + ^ ) ) ) ) ) ) ) ) ) ) ) ) ) ) ) ) ) ) ) ) ) ) ) ) ) ) ",
") ) ) ) ) ) ) ) ) ) ) ) ) ) ) ) ) ) ) ) ) ) ) ) ) ) i + x 2.2.2.2.2.2.x + i ) ) ) ) ) ) ) ) ) ) ) ) ) ) ) ) ) ) ) ) ) ) ) ) ) ) ",
") ) ) ) ) ) ) ) ) ) ) ) ) ) ) ) ) ) ) ) ) ) ) ) ) ^ + + o.1.2.2.2.2.2.o.+ + ^ ) ) ) ) ) ) ) ) ) ) ) ) ) ) ) ) ) ) ) ) ) ) ) ) ) ",
") ) ) ) ) ) ) ) ) ) ) ) ) ) ) ) ) ) ) ) ) ) ) ) ) i + v 2.2.2.2.2.2.2.2.z + i ) ) ) ) ) ) ) ) ) ) ) ) ) ) ) ) ) ) ) ) ) ) ) ) ) ",
") ) ) ) ) ) ) ) ) ) ) ) ) ) ) ) ) ) ) ) ) ) ) ) ^ + + o.2.2.2.2.2.2.2.2.+.+ + ^ ) ) ) ) ) ) ) ) ) ) ) ) ) ) ) ) ) ) ) ) ) ) ) ) ",
") ) ) ) ) ) ) ) ) ) ) ) ) ) ) ) ) ) ) ) ) ) ) ) i + 0 1.2.2.2.2.2.2.2.2.1.v + e ) ) ) ) ) ) ) ) ) ) ) ) ) ) ) ) ) ) ) ) ) ) ) ) ",
") ) ) ) ) ) ) ) ) ) ) ) ) ) ) ) ) ) ) ) ) ) ) ^ + + o.1.2.2.2.2.2.2.2.2.1.+.+ + ! ) ) ) ) ) ) ) ) ) ) ) ) ) ) ) ) ) ) ) ) ) ) ) ",
") ) ) ) ) ) ) ) ) ) ) ) ) ) ) ) ) ) ) ) ) ) ) e + v 1.1.2.2.2.2.2.2.2.2.2.2.0 + i ) ) ) ) ) ) ) ) ) ) ) ) ) ) ) ) ) ) ) ) ) ) ) ",
") ) ) ) ) ) ) ) ) ) ) ) ) ) ) ) ) ) ) ) ) ) ^ + + @.1.2.2.2.2.2.2.2.2.2.2.2.o.+ + ^ ) ) ) ) ) ) ) ) ) ) ) ) ) ) ) ) ) ) ) ) ) ) ",
") ) ) ) ) ) ) ) ) ) ) ) ) ) ) ) ) ) ) ) ) ) e + 0 2.1.2.2.2.2.2.2.2.2.2.2.2.2.b + i ) ) ) ) ) ) ) ) ) ) ) ) ) ) ) ) ) ) ) ) ) ) ",
") ) ) ) ) ) ) ) ) ) ) ) ) ) ) ) ) ) ) ) ) ^ + + @.2.2.2.2.2.2.2.2.2.2.2.2.2.2.@.+ + ! ) ) ) ) ) ) ) ) ) ) ) ) ) ) ) ) ) ) ) ) ) ",
") ) ) ) ) ) ) ) ) ) ) ) ) ) ) ) ) ) ) ) ) e + b 2.2.2.2.2.2.2.2.2.2.2.2.2.2.2.2.v + i ) ) ) ) ) ) ) ) ) ) ) ) ) ) ) ) ) ) ) ) ) ",
") ) ) ) ) ) ) ) ) ) ) ) ) ) ) ) ) ) ) ) ! + + @.2.2.2.2.2.2.2.2.2.2.2.2.2.2.2.2.@.+ + ! ) ) ) ) ) ) ) ) ) ) ) ) ) ) ) ) ) ) ) ) ",
") ) ) ) ) ) ) ) ) ) ) ) ) ) ) ) ) ) ) ) e + b 1.2.2.2.2.2.2.2.2.2.2.2.2.2.2.2.2.1.b + e ) ) ) ) ) ) ) ) ) ) ) ) ) ) ) ) ) ) ) ) ",
") ) ) ) ) ) ) ) ) ) ) ) ) ) ) ) ) ) ) ! + + @.2.2.2.2.2.2.2.2.2.2.2.2.2.2.2.2.2.2.@.+ + ! ) ) ) ) ) ) ) ) ) ) ) ) ) ) ) ) ) ) ) ",
") ) ) ) ) ) ) ) ) ) ) ) ) ) ) ) ) ) ) e + M 2.2.2.2.2.2.2.2.2.2.2.2.2.2.2.2.2.2.2.1.v + e ) ) ) ) ) ) ) ) ) ) ) ) ) ) ) ) ) ) ) ",
") ) ) ) ) ) ) ) ) ) ) ) ) ) ) ) ) ) ! + + @.2.2.2.2.2.2.2.2.2.2.2.2.2.2.2.2.2.2.2.2.$.+ + ! ) ) ) ) ) ) ) ) ) ) ) ) ) ) ) ) ) ) ",
") ) ) ) ) ) ) ) ) ) ) ) ) ) ) ) ) ) e + M 1.2.2.2.2.2.2.2.2.2.2.2.2.2.2.2.2.2.2.2.2.1.q + e ) ) ) ) ) ) ) ) ) ) ) ) ) ) ) ) ) ) ",
") ) ) ) ) ) ) ) ) ) ) ) ) ) ) ) ) ! + + %.1.2.2.2.2.2.2.2.2.2.2.2.2.2.2.2.2.2.2.2.2.2.$.+ + ! ) ) ) ) ) ) ) ) ) ) ) ) ) ) ) ) ) ",
") ) ) ) ) ) ) ) ) ) ) ) ) ) ) ) ) e + b 2.2.2.2.2.2.2.2.2.2.2.2.2.2.2.2.2.2.2.2.2.2.2.2.M + e ) ) ) ) ) ) ) ) ) ) ) ) ) ) ) ) ) ",
") ) ) ) ) ) ) ) ) ) ) ) ) ) ) ) ! + + $.1.1.2.2.2.2.2.2.2.2.2.2.2.2.2.2.2.2.2.2.2.2.2.2.@.+ + ! ) ) ) ) ) ) ) ) ) ) ) ) ) ) ) ) ",
") ) ) ) ) ) ) ) ) ) ) ) ) ) ) ) 0 + B 2.2.2.2.2.2.2.2.2.2.2.2.2.2.2.2.2.2.2.2.2.2.2.2.2.1.0 + 0 ) ) ) ) ) ) ) ) ) ) ) ) ) ) ) ) ",
") ) ) ) ) ) ) ) ) ) ) ) ) ) ) ! + + $.1.2.2.2.2.2.2.2.2.2.2.2.2.2.2.2.2.2.2.2.2.2.2.2.2.2.%.+ + ! ) ) ) ) ) ) ) ) ) ) ) ) ) ) ) ",
") ) ) ) ) ) ) ) ) ) ) ) ) ) ) e + M 1.1.2.2.2.2.2.2.2.2.2.2.2.2.2.2.2.2.2.2.2.2.2.2.2.2.2.2.M + e ) ) ) ) ) ) ) ) ) ) ) ) ) ) ) ",
") ) ) ) ) ) ) ) ) ) ) ) ) ) T + + %.2.2.2.2.2.2.2.2.2.2.2.2.2.2.2.2.2.2.2.2.2.2.2.2.2.2.2.2.%.+ + ! ) ) ) ) ) ) ) ) ) ) ) ) ) ) ",
") ) ) ) ) ) ) ) ) ) ) ) ) ) 0 + B 2.2.2.2.2.2.2.2.2.2.2.2.2.2.2.2.2.2.2.2.2.2.2.2.2.2.2.2.2.1.N + 0 ) ) ) ) ) ) ) ) ) ) ) ) ) ) ",
") ) ) ) ) ) ) ) ) ) ) ) ) ! + + -.1.2.2.2.2.2.2.2.2.2.2.2.2.2.2.2.2.2.2.2.2.2.2.2.2.2.2.2.2.2.-.+ + ! ) ) ) ) ) ) ) ) ) ) ) ) ) ",
") ) ) ) ) ) ) ) ) ) ) ) ) e + B 2.1.2.2.2.2.2.2.2.2.2.2.2.2.2.2.2.2.2.2.2.2.2.2.2.2.2.2.2.2.2.2.N + 0 ) ) ) ) ) ) ) ) ) ) ) ) ) ",
") ) ) ) ) ) ) ) ) ) ) ) T + + -.2.2.2.2.2.2.2.2.2.2.2.2.2.2.2.2.2.2.2.2.2.2.2.2.2.2.2.2.2.2.2.2.%.@ + T ) ) ) ) ) ) ) ) ) ) ) ) ",
") ) ) ) ) ) ) ) ) ) ) ) 0 + B 2.2.2.2.2.2.2.2.2.2.2.2.2.2.2.2.2.2.2.2.2.2.2.2.2.2.2.2.2.2.2.2.2.1.C + 0 ) ) ) ) ) ) ) ) ) ) ) ) ",
") ) ) ) ) ) ) ) ) ) ) ! + + =.2.2.2.2.2.2.2.2.2.2.2.2.2.2.2.2.2.2.2.2.2.2.2.2.2.2.2.2.2.2.2.2.2.1.-.+ + ! ) ) ) ) ) ) ) ) ) ) ) ",
") ) ) ) ) ) ) ) ) ) ) 0 + Z 1.2.2.2.2.2.2.2.2.2.2.2.2.2.2.2.2.2.2.2.2.2.2.2.2.2.2.2.2.2.2.2.2.2.2.2.B + 0 ) ) ) ) ) ) ) ) ) ) ) ",
") ) ) ) ) ) ) ) ) ) T + + %.2.2.2.2.2.2.2.2.2.2.2.2.2.2.2.2.2.2.2.2.2.2.2.2.2.2.2.2.2.2.2.2.2.2.2.2.=.# + E ) ) ) ) ) ) ) ) ) ) ",
") ) ) ) ) ) ) ) ) ) 0 + Z 1.2.2.2.2.2.2.2.2.2.2.2.2.2.2.2.2.2.1.2.2.2.2.2.2.2.2.2.2.2.2.2.2.2.2.2.1.1.Z + 0 ) ) ) ) ) ) ) ) ) ) ",
") ) ) ) ) ) ) ) ) ! + @ =.1.2.2.2.2.2.2.2.2.2.2.2.2.2.1.2.;.h _ h :.2.2.2.2.2.2.2.2.2.2.2.2.2.2.2.2.2.=.+ + ! ) ) ) ) ) ) ) ) ) ",
") ) ) ) ) ) ) ) ) 8 + Z 1.1.2.2.2.2.2.2.2.2.2.2.2.2.2.1.' > + & + = ' 2.2.2.2.2.2.2.2.2.2.2.2.2.2.2.2.1.B + 0 ) ) ) ) ) ) ) ) ) ",
") ) ) ) ) ) ) ) ! + + -.2.2.2.2.2.2.2.2.2.2.2.2.1.1.:.d + + 3 T 3 + + d ;.1.1.1.2.2.2.2.2.2.2.2.2.2.2.2.=.@ + E ) ) ) ) ) ) ) ) ",
") ) ) ) ) ) ) ) 7 + C 1.2.2.2.2.2.2.2.2.2.2.2.2.1._ & + & U ) ) ) P & + > ' 1.1.2.2.2.2.2.2.2.2.2.2.2.2.2.Z + 8 ) ) ) ) ) ) ) ) ",
") ) ) ) ) ) ) T + + -.2.2.2.2.2.2.2.2.2.2.2.2.>.d + + 5 ^ ) ) ) ) ) ^ 5 + + d -.2.2.2.2.2.2.2.2.2.2.2.2.2.-.+ + T ) ) ) ) ) ) ) ",
") ) ) ) ) ) ) 0 + S 1.2.2.2.2.2.2.2.2.2.2.2.} & + - P ) ) ) ) ) ) ) ) ) P : + ; [ 1.2.2.2.2.2.2.2.2.2.2.2.1.Z + 0 ) ) ) ) ) ) ) ",
") ) ) ) ) ) E + @ -.2.2.2.2.2.2.2.2.2.1.>.d + + 3 ^ ) ) ) ) ) ) ) ) ) ) ) ^ 3 + + d ;.1.2.2.2.2.2.2.2.2.2.2.;.+ + R ) ) ) ) ) ) ",
") ) ) ) ) ) 0 + Z 1.2.2.2.2.2.2.2.2.2.} & + : U ) ) ) ) ) ) ) ) ) ) ) ) ) ) ) U & + ; ' 2.2.2.2.2.2.2.2.2.2.1.S + 0 ) ) ) ) ) ) ",
") ) ) ) ) T + = ;.2.2.2.2.2.2.2.1.>.d + + 3 ^ ) ) ) ) ) ) ) ) ) ) ) ) ) ) ) ) ) ^ 3 + + h >.1.1.2.2.2.2.2.2.1.;.+ + T ) ) ) ) ) ",
") ) ) ) ) 7 + D 2.2.2.2.2.2.2.2.' ; + & P ) ) ) ) ) ) ) ) ) ) ) ) ) ) ) ) ) ) ) ) ) I & + > } 1.2.2.2.2.2.2.2.2.Z + 5 ) ) ) ) ) ",
") ) ) ) T + # >.2.2.2.2.2.2.>.h + + 3 ^ ) ) ) ) ) ) ) ) ) ) ) ) ) ) ) ) ) ) ) ) ) ) ) ^ 3 + + d >.2.2.2.2.2.2.2.;.+ + E ) ) ) ) ",
") ) ) ) 5 + D 2.2.2.2.2.2.{ ; + : P ) ) ) ) ) ) ) ) ) ) ) ) ) ) ) ) ) ) ) ) ) ) ) ) ) ) ) P & + = { 2.1.2.2.2.2.1.Z + 5 ) ) ) ) ",
") ) ) T + # ;.2.2.2.2.>.d + + 3 ^ ) ) ) ) ) ) ) ) ) ) ) ) ) ) ) ) ) ) ) ) ) ) ) ) ) ) ) ) ) ^ 3 + + g :.2.2.2.2.2.:.+ + T ) ) ) ",
") ) ) 0 + D 2.2.2.2.{ ; + & P ) ) ) ) ) ) ) ) ) ) ) ) ) ) ) ) ) ) ) ) ) ) ) ) ) ) ) ) ) ) ) ) ) P & + > } 2.2.2.2.2.D + 0 ) ) ) ",
") ) Y + # >.1.1.<.h + + 3 ^ ) ) ) ) ) ) ) ) ) ) ) ) ) ) ) ) ) ) ) ) ) ) ) ) ) ) ) ) ) ) ) ) ) ) ) ^ 3 + + h >.1.2.2.:.+ + T ) ) ",
") ) 5 + G 2.1.[ - + & P ) ) ) ) ) ) ) ) ) ) ) ) ) ) ) ) ) ) ) ) ) ) ) ) ) ) ) ) ) ) ) ) ) ) ) ) ) ) ) P & + > [ 2.2.2.H + 5 ) ) ",
") T + + >.<.h + + 3 ~ ) ) ) ) ) ) ) ) ) ) ) ) ) ) ) ) ) ) ) ) ) ) ) ) ) ) ) ) ) ) ) ) ) ) ) ) ) ) ) ) ) ^ 3 + + k >.2.>.+ + T ) ",
") 5 + J { 1 + & K ) ) ) ) ) ) ) ) ) ) ) ) ) ) ) ) ) ) ) ) ) ) ) ) ) ) ) ) ) ) ) ) ) ) ) ) ) ) ) ) ) ) ) ) ) P & + &  .2.G + 5 ) ",
"T + # y + + 2 ! ) ) ) ) ) ) ) ) ) ) ) ) ) ) ) ) ) ) ) ) ) ) ) ) ) ) ) ) ) ) ) ) ) ) ) ) ) ) ) ) ) ) ) ) ) ) ) ! 3 + + h ..# + T ",
"5 + + + & K ) ) ) ) ) ) ) ) ) ) ) ) ) ) ) ) ) ) ) ) ) ) ) ) ) ) ) ) ) ) ) ) ) ) ) ) ) ) ) ) ) ) ) ) ) ) ) ) ) ) ) K & + > d + 5 ",
"+ + + 2 ! ) ) ) ) ) ) ) ) ) ) ) ) ) ) ) ) ) ) ) ) ) ) ) ) ) ) ) ) ) ) ) ) ) ) ) ) ) ) ) ) ) ) ) ) ) ) ) ) ) ) ) ) ) ! 2 + + + + ",
"+ + K ) ) ) ) ) ) ) ) ) ) ) ) ) ) ) ) ) ) ) ) ) ) ) ) ) ) ) ) ) ) ) ) ) ) ) ) ) ) ) ) ) ) ) ) ) ) ) ) ) ) ) ) ) ) ) ) ) K & + + "
};
