/* XPM */
static char * arr_left_xpm[] = {
"64 64 166 2",
"  	c None",
". 	c #000000",
"+ 	c #000202",
"@ 	c #000101",
"# 	c #010000",
"$ 	c #021F27",
"% 	c #05313E",
"& 	c #020A0C",
"* 	c #03232C",
"= 	c #035E77",
"- 	c #0495BE",
"; 	c #034558",
"> 	c #031E25",
", 	c #036B89",
"' 	c #029DC9",
") 	c #01BDF3",
"! 	c #027596",
"~ 	c #000102",
"{ 	c #031013",
"] 	c #046F8D",
"^ 	c #01A7D6",
"/ 	c #01B9EE",
"( 	c #00BCF1",
"_ 	c #02A4D3",
": 	c #021015",
"< 	c #020708",
"[ 	c #05637D",
"} 	c #02B4E7",
"| 	c #00BAEF",
"1 	c #00B9EE",
"2 	c #033C4C",
"3 	c #000203",
"4 	c #020F13",
"5 	c #05576F",
"6 	c #03B5E8",
"7 	c #00BFF6",
"8 	c #00BDF3",
"9 	c #03789B",
"0 	c #021E25",
"a 	c #03546B",
"b 	c #03A8D8",
"c 	c #00C2F9",
"d 	c #00BBF1",
"e 	c #00BEF4",
"f 	c #02A2D0",
"g 	c #010609",
"h 	c #035F79",
"i 	c #039DC9",
"j 	c #01C2F9",
"k 	c #01B8EC",
"l 	c #02313E",
"m 	c #031C22",
"n 	c #036D8B",
"o 	c #029ECB",
"p 	c #01C3FA",
"q 	c #02627E",
"r 	c #030D10",
"s 	c #046D8B",
"t 	c #01AAD9",
"u 	c #00B9ED",
"v 	c #00BBF0",
"w 	c #00BEF5",
"x 	c #0291BB",
"y 	c #01181E",
"z 	c #05607A",
"A 	c #02B5E8",
"B 	c #01B0E2",
"C 	c #024052",
"D 	c #021217",
"E 	c #04566D",
"F 	c #03B3E6",
"G 	c #00C0F7",
"H 	c #027697",
"I 	c #021F28",
"J 	c #03556D",
"K 	c #03A6D4",
"L 	c #00BAF0",
"M 	c #01A0CD",
"N 	c #02151B",
"O 	c #03222B",
"P 	c #03627D",
"Q 	c #029DC8",
"R 	c #01C1F8",
"S 	c #01BCF2",
"T 	c #033B4D",
"U 	c #03191F",
"V 	c #036F8D",
"W 	c #02A0CD",
"X 	c #020B0D",
"Y 	c #056C89",
"Z 	c #02ACDD",
"` 	c #03A1CF",
" .	c #000809",
"..	c #02080A",
"+.	c #055E77",
"@.	c #02B6E9",
"#.	c #00BCF2",
"$.	c #01BEF3",
"%.	c #022A36",
"&.	c #02151A",
"*.	c #04556C",
"=.	c #03B1E3",
"-.	c #00C1F8",
";.	c #00BFF5",
">.	c #026480",
",.	c #000506",
"'.	c #022129",
").	c #03576F",
"!.	c #03A3D1",
"~.	c #00C2FA",
"{.	c #0295C0",
"].	c #01161D",
"^.	c #03222A",
"/.	c #036581",
"(.	c #029CC8",
"_.	c #01C1F7",
":.	c #023F51",
"<.	c #03171C",
"[.	c #046F8E",
"}.	c #02A2CF",
"|.	c #01BBF0",
"1.	c #02090B",
"2.	c #056986",
"3.	c #02AFE0",
"4.	c #02A8D8",
"5.	c #020C10",
"6.	c #02090C",
"7.	c #055C74",
"8.	c #02B6EA",
"9.	c #033A49",
"0.	c #02181E",
"a.	c #04546B",
"b.	c #03AFE0",
"c.	c #037495",
"d.	c #020D10",
"e.	c #045D77",
"f.	c #03A5D3",
"g.	c #02BEF3",
"h.	c #020A0D",
"i.	c #037595",
"j.	c #033B4A",
"k.	c #01A8D8",
"l.	c #01B0E3",
"m.	c #0296C0",
"n.	c #01171D",
"o.	c #026581",
"p.	c #022B36",
"q.	c #03A2CF",
"r.	c #00080A",
"s.	c #036D8C",
"t.	c #033C4D",
"u.	c #02161B",
"v.	c #01B1E2",
"w.	c #024152",
"x.	c #0292BB",
"y.	c #01181F",
"z.	c #00C3FA",
"A.	c #02637E",
"B.	c #02313F",
"C.	c #010709",
"D.	c #03799B",
"E.	c #033D4D",
"F.	c #01A4D3",
"G.	c #021115",
"H.	c #0495BF",
"I.	c #034659",
"                                                                                                                          . .   ",
"                                                                                                                      . . . . . ",
"                                                                                                                  . . . . . . . ",
"                                                                                                            . . . . . . . . .   ",
"                                                                                                        . . . . . . . . . . .   ",
"                                                                                                    . . . . . . . . . . . .     ",
"                                                                                                  . . . . . . + @ . . . .       ",
"                                                                                              . . . . . . # $ % & . . . .       ",
"                                                                                          . . . . . . # * = - ; . . . .         ",
"                                                                                    . . . . . . . . > , ' ) ! ~ . . .           ",
"                                                                                . . . . . . . . { ] ^ / ( _ : . . . .           ",
"                                                                            . . . . . . . . < [ } | | | 1 2 . . . .             ",
"                                                                          . . . . . . 3 4 5 6 7 | | | 8 9 . . . .               ",
"                                                                      . . . . . . # 0 a b c d | | | e f g . . . .               ",
"                                                                  . . . . . . # * h i j 8 | | | | d k l . . . .                 ",
"                                                            . . . . . . . . m n o ) 8 | | | | | | p q 3 . . .                   ",
"                                                        . . . . . . . . r s t u v | | | | | | | w x y . . . .                   ",
"                                                      . . . . . . . < z A d | | | | | | | | | v B C . . . .                     ",
"                                                  . . . . . . 3 D E F G | | | | | | | | | | | | H # . . .                       ",
"                                              . . . . . . # I J K c d | | | | | | | | | | | L M N . . . .                       ",
"                                        . . . . . . . # O P Q R 8 | | | | | | | | | | | | | S T . . . .                         ",
"                                    . . . . . . . . U V W S 8 | | | | | | | | | | | | | | c n . . . .                           ",
"                                . . . . . . . . X Y Z u v | | | | | | | | | | | | | | | 8 `  .. . . .                           ",
"                              . . . . . . @ ..+.@.#.| | | | | | | | | | | | | | | | | v $.%.. . . .                             ",
"                          . . . . . . 3 &.*.=.-.L | | | | | | | | | | | | | | | | | | ;.>.,.. . .                               ",
"                      . . . . . . # '.).!.~.( | | | | | | | | | | | | | | | | | | | 8 {.].. . . .                               ",
"                . . . . . . . . ^./.(._.8 | | | | | | | | | | | | | | | | | | | | v B :.. . . .                                 ",
"            . . . . . . . . <.[.}.|.#.| | | | | | | | | | | | | | | | | | | | | | 1 H . . . .                                   ",
"        . . . . . . . . 1.2.3.u L | | | | | | | | | | | | | | | | | | | | | | | | 4.5.. . . .                                   ",
"      . . . . . . ~ 6.7.8.8 | | | | | | | | | | | | | | | | | | | | | | | | | | | 9.. . . .                                     ",
"  . . . . . . + 0.a.b.-.v | | | | | | | | | | | | | | | | | | | | | | | | | | ;.c.. . . .                                       ",
". . . . . . d.e.f.~.#.| | | | | | | | | | | | | | | | | | | | | | | | | | | v g.& . . . .                                       ",
". . . . . . d.e.f.~.#.| | | | | | | | | | | | | | | | | | | | | | | | | | | v g.h.. . . .                                       ",
"  . . . . . . + 0.a.b.-.v | | | | | | | | | | | | | | | | | | | | | | | | | | ;.i.. . . .                                       ",
"      . . . . . . ~ 6.7.8.8 | | | | | | | | | | | | | | | | | | | | | | | | | | | j.. . . .                                     ",
"        . . . . . . . . 1.2.3.u L | | | | | | | | | | | | | | | | | | | | | | | | k.d.. . . .                                   ",
"            . . . . . . . . <.[.}.|.#.| | | | | | | | | | | | | | | | | | | | | | 1 H . . . .                                   ",
"                . . . . . . . . ^./.(._.8 | | | | | | | | | | | | | | | | | | | | v l.C . . . .                                 ",
"                      . . . . . . # '.).!.~.( | | | | | | | | | | | | | | | | | | | 8 m.n.. . . .                               ",
"                          . . . . . . 3 &.*.=.-.L | | | | | | | | | | | | | | | | | | ;.o.,.. . .                               ",
"                              . . . . . . @ ..+.@.#.| | | | | | | | | | | | | | | | | v $.p.. . . .                             ",
"                                . . . . . . . . X Y Z u v | | | | | | | | | | | | | | | 8 q.r.. . . .                           ",
"                                    . . . . . . . . U V W S 8 | | | | | | | | | | | | | | c s.. . . .                           ",
"                                        . . . . . . . # O P Q R 8 | | | | | | | | | | | | | #.t.. . . .                         ",
"                                              . . . . . . # I J K c d | | | | | | | | | | | L M u.. . . .                       ",
"                                                  . . . . . . 3 D E F G | | | | | | | | | | | | H # . . .                       ",
"                                                      . . . . . . . < z A d | | | | | | | | | v v.w.. . . .                     ",
"                                                        . . . . . . . . r s t u v | | | | | | | w x.y.. . . .                   ",
"                                                            . . . . . . . . m n o ) 8 | | | | | | z.A.3 . . .                   ",
"                                                                  . . . . . . # * h i j 8 | | | | d k B.. . . .                 ",
"                                                                      . . . . . . # 0 a b c d | | | e f C.. . . .               ",
"                                                                          . . . . . . 3 4 5 6 7 | | | 8 D.. . . .               ",
"                                                                            . . . . . . . . < [ } | | | 1 E.. . . .             ",
"                                                                                . . . . . . . . { ] ^ / ( F.G.. . . .           ",
"                                                                                    . . . . . . . . > , ' $.H + . . .           ",
"                                                                                          . . . . . . # * = H.I.. . . .         ",
"                                                                                              . . . . . . # $ % & . . . .       ",
"                                                                                                  . . . . . . + @ . . . .       ",
"                                                                                                    . . . . . . . . . . . .     ",
"                                                                                                        . . . . . . . . . . .   ",
"                                                                                                            . . . . . . . . .   ",
"                                                                                                                  . . . . . . . ",
"                                                                                                                      . . . . . ",
"                                                                                                                          . .   "};
