/* XPM */
static char *_551670779808[] = {
/* columns rows colors chars-per-pixel */
"64 64 181 2 ",
"   c black",
".  c #010101",
"X  c #010202",
"o  c #020202",
"O  c #020203",
"+  c gray1",
"@  c #020304",
"#  c #030405",
"$  c #030506",
"%  c #040404",
"&  c #040505",
"*  c gray2",
"=  c #040606",
"-  c #040607",
";  c #050607",
":  c #060606",
">  c #070606",
",  c #070707",
"<  c #080707",
"1  c #050708",
"2  c #070A0B",
"3  c #070B0C",
"4  c #080A0B",
"5  c #080A0C",
"6  c #090B0D",
"7  c #080C0E",
"8  c #080D0E",
"9  c #090E10",
"0  c #0A0F11",
"q  c #111111",
"w  c #1E1E1E",
"e  c #201E1D",
"r  c #211E1D",
"t  c #211F1D",
"y  c #211F1E",
"u  c #221F1E",
"i  c #22201E",
"p  c #23201E",
"a  c #23201F",
"s  c gray13",
"d  c #222222",
"f  c #242120",
"g  c #272626",
"h  c #272727",
"j  c #282727",
"k  c #282828",
"l  c #292828",
"z  c gray16",
"x  c #2A2828",
"c  c #2A2929",
"v  c #2B2A29",
"b  c #2A2A2A",
"n  c #2B2A2A",
"m  c gray17",
"M  c #2C2B2B",
"N  c #2C2C2B",
"B  c #2C2C2C",
"V  c #2D2D2C",
"C  c #2D2D2D",
"Z  c #2E2E2D",
"A  c gray18",
"S  c #2F2F2E",
"D  c #2F2F2F",
"F  c #302F2F",
"G  c #263337",
"H  c #25383F",
"J  c gray19",
"K  c #313131",
"L  c #333231",
"P  c #323232",
"I  c gray20",
"U  c #333435",
"Y  c #343434",
"T  c #48423F",
"R  c #253941",
"E  c #263A42",
"W  c #273B43",
"Q  c #263B44",
"!  c #263C45",
"~  c #273D46",
"^  c #273E47",
"/  c #283D45",
"(  c #293E47",
")  c #283F48",
"_  c #2B414B",
"`  c #2B424C",
"'  c #2C434C",
"]  c #2D454E",
"[  c #2E454F",
"{  c #2E4650",
"}  c #2F4751",
"|  c #2F4852",
" . c #304953",
".. c #304A54",
"X. c #314A55",
"o. c #314B56",
"O. c #324C57",
"+. c #324D58",
"@. c #334E58",
"#. c #334E59",
"$. c #344F5A",
"%. c #34505B",
"&. c #35515C",
"*. c #35525D",
"=. c #36525E",
"-. c #375460",
";. c #385662",
":. c #395764",
">. c gray28",
",. c #484240",
"<. c #494240",
"1. c #484340",
"2. c #494340",
"3. c #494341",
"4. c #494442",
"5. c #4A4543",
"6. c #484848",
"7. c #494949",
"8. c gray29",
"9. c #4C4B4B",
"0. c #5E5553",
"q. c gray37",
"w. c #685F5C",
"e. c #69605C",
"r. c #68605D",
"t. c #69625F",
"y. c #626160",
"u. c #626262",
"i. c gray39",
"p. c #646363",
"a. c #646464",
"s. c #656464",
"d. c #656564",
"f. c #656565",
"g. c #666564",
"h. c #666665",
"j. c #676665",
"k. c #646566",
"l. c #656567",
"z. c gray40",
"x. c #676767",
"c. c #686868",
"v. c DimGray",
"b. c #6A6A6A",
"n. c #6B6A6A",
"m. c #6B6B6A",
"M. c gray42",
"N. c #756B67",
"B. c #777472",
"V. c #777575",
"C. c #777676",
"Z. c #777776",
"A. c #777777",
"S. c #527E8F",
"D. c #537E90",
"F. c #537F90",
"G. c #537F91",
"H. c #548093",
"J. c #558294",
"K. c #568496",
"L. c #558498",
"P. c #6DA6BD",
"I. c #6FA9C1",
"U. c #6FAAC2",
"Y. c #70AAC2",
"T. c #71ACC4",
"R. c #72AEC6",
"E. c #72AEC7",
"W. c #73AFC8",
"Q. c #74B1CA",
"!. c #74B2CB",
"~. c #75B3CC",
"^. c #76B3CD",
"/. c #76B4CE",
"(. c #77B5CE",
"). c #77B6CF",
"_. c #78B7D0",
"`. c #78B7D1",
"'. c #79B9D3",
"]. c #86CDEA",
"[. c SkyBlue",
/* pixels */
"A.A.A.A.A.A.A.A.A.A.A.A.A.A.A.A.A.A.A.A.A.A.A.A.A.A.A.A.A.A.A.A.A.A.A.A.A.A.A.A.A.A.A.A.A.A.A.A.A.A.A.A.A.A.A.A.A.A.A.r.h     1 ",
"A.A.A.A.A.A.A.A.A.A.A.A.A.A.A.A.A.A.A.A.A.A.A.A.A.A.A.A.A.A.A.A.A.A.A.A.A.A.A.A.A.A.A.A.A.A.A.A.A.A.A.A.A.A.A.A.A.i.k       X q.",
"A.A.A.A.A.A.A.A.A.A.A.A.A.A.A.A.A.A.A.A.A.A.A.A.A.A.A.A.A.A.A.A.A.A.A.A.A.A.A.A.A.A.A.A.A.A.A.A.A.A.A.A.A.A.A.i.h X   1 :   6.A.",
"A.A.A.A.A.A.A.A.A.A.A.A.A.A.A.A.A.A.A.A.A.A.A.A.A.A.A.A.A.A.A.A.A.A.A.A.A.A.A.A.A.A.A.A.A.A.A.A.A.A.A.A.A.i.c     1 :.R   t A.A.",
"A.A.A.A.A.A.A.A.A.A.A.A.A.A.A.A.A.A.A.A.A.A.A.A.A.A.A.A.A.A.A.A.A.A.A.A.A.A.A.A.A.A.A.A.A.A.A.A.A.A.A.a.c     1 :.`.K.  : M.A.A.",
"A.A.A.A.A.A.A.A.A.A.A.A.A.A.A.A.A.A.A.A.A.A.A.A.A.A.A.A.A.A.A.A.A.A.A.A.A.A.A.A.A.A.A.A.A.A.A.A.B.a.c @   1 ;.`.[.'.9   6.A.A.A.",
"A.A.A.A.A.A.A.A.A.A.A.A.A.A.A.A.A.A.A.A.A.A.A.A.A.A.A.A.A.A.A.A.A.A.A.A.A.A.A.A.A.A.A.A.A.A.A.x.c @   # :.`.[.[.[.(   s A.A.A.A.",
"A.A.A.A.A.A.A.A.A.A.A.A.A.A.A.A.A.A.A.A.A.A.A.A.A.A.A.A.A.A.A.A.A.A.A.A.A.A.A.A.A.A.A.A.A.i.c X   # -.'.[.[.[.[.J.  : M.A.A.A.A.",
"A.A.A.A.A.A.A.A.A.A.A.A.A.A.A.A.A.A.A.A.A.A.A.A.A.A.A.A.A.A.A.A.A.A.A.A.A.A.A.A.A.A.A.p.N     1 -.^.[.[.[.[.[.'.9   6.A.A.A.A.A.",
"A.A.A.A.A.A.A.A.A.A.A.A.A.A.A.A.A.A.A.A.A.A.A.A.A.A.A.A.A.A.A.A.A.A.A.A.A.A.A.A.A.i.N   X - -.^.[.[.[.[.[.[.[.(   s A.A.A.A.A.A.",
"A.A.A.A.A.A.A.A.A.A.A.A.A.A.A.A.A.A.A.A.A.A.A.A.A.A.A.A.A.A.A.A.A.A.A.A.A.A.A.x.N #   : *.^.[.[.[.[.[.[.[.[.H.  7 M.A.A.A.A.A.A.",
"A.A.A.A.A.A.A.A.A.A.A.A.A.A.A.A.A.A.A.A.A.A.A.A.A.A.A.A.A.A.A.A.A.A.A.A.A.x.N #   # *.^.[.[.[.[.[.[.[.[.[.'.9   6.A.A.A.A.A.A.A.",
"A.A.A.A.A.A.A.A.A.A.A.A.A.A.A.A.A.A.A.A.A.A.A.A.A.A.A.A.A.A.A.A.A.A.A.x.N #   # %.^.[.[.[.[.[.[.[.[.[.[.[.(   s A.A.A.A.A.A.A.A.",
"A.A.A.A.A.A.A.A.A.A.A.A.A.A.A.A.A.A.A.A.A.A.A.A.A.A.A.A.A.A.A.A.A.x.N     # %.^.[.[.[.[.[.[.[.[.[.[.[.[.H.  4 M.A.A.A.A.A.A.A.A.",
"A.A.A.A.A.A.A.A.A.A.A.A.A.A.A.A.A.A.A.A.A.A.A.A.A.A.A.A.A.A.A.x.N     : %.~.[.[.[.[.[.[.[.[.[.[.[.[.[.'.9   ,.A.A.A.A.A.A.A.A.A.",
"A.A.A.A.A.A.A.A.A.A.A.A.A.A.A.A.A.A.A.A.A.A.A.A.A.A.A.A.A.x.A     # %.^.[.[.[.[.[.[.[.[.[.[.[.[.[.[.[.W   t A.A.A.A.A.A.A.A.A.A.",
"A.A.A.A.A.A.A.A.A.A.A.A.A.A.A.A.A.A.A.A.A.A.A.A.A.A.A.x.A     # @.Q.[.[.[.[.[.[.[.[.[.[.[.[.[.[.[.[.H.  5 r.A.A.A.A.A.A.A.A.A.A.",
"A.A.A.A.A.A.A.A.A.A.A.A.A.A.A.A.A.A.A.A.A.A.A.A.A.M.A # # # X.Q.[.[.[.[.[.[.[.[.[.[.[.[.[.[.[.[.[.'.9   ,.A.A.A.A.A.A.A.A.A.A.A.",
"A.A.A.A.A.A.A.A.A.A.A.A.A.A.A.A.A.A.A.A.A.A.A.x.J #   # O.Q.[.[.[.[.[.[.[.[.[.[.[.[.[.[.[.[.[.[.[.R   t A.A.A.A.A.A.A.A.A.A.A.A.",
"A.A.A.A.A.A.A.A.A.A.A.A.A.A.A.A.A.A.A.A.A.c.A :   # O.Q.[.[.[.[.[.[.[.[.[.[.[.[.[.[.[.[.[.[.[.[.J.  : M.A.A.A.A.A.A.A.A.A.A.A.A.",
"A.A.A.A.A.A.A.A.A.A.A.A.A.A.A.A.A.A.A.M.J :   # X.T.[.[.[.[.[.[.[.[.[.[.[.[.[.[.[.[.[.[.[.[.[.`.7   9.A.A.A.A.A.A.A.A.A.A.A.A.A.",
"A.A.A.A.A.A.A.A.A.A.A.A.A.A.A.A.A.M.A #   @ | W.[.[.[.[.[.[.[.[.[.[.[.[.[.[.[.[.[.[.[.[.[.[.[.W   t A.A.A.A.A.A.A.A.A.A.A.A.A.A.",
"A.A.A.A.A.A.A.A.A.A.A.A.A.A.A.M.J     # | W.[.[.[.[.[.[.[.[.[.[.[.[.[.[.[.[.[.[.[.[.[.[.[.[.G.  < M.A.A.A.A.A.A.A.A.A.A.A.A.A.A.",
"A.A.A.A.A.A.A.A.A.A.A.A.A.x.P :   # | T.[.[.[.[.[.[.[.[.[.[.[.[.[.[.[.[.[.[.[.[.[.[.[.[.[.`.7   6.A.A.A.A.A.A.A.A.A.A.A.A.A.A.A.",
"A.A.A.A.A.A.A.A.A.A.A.M.P @     | T.[.[.[.[.[.[.[.[.[.[.[.[.[.[.[.[.[.[.[.[.[.[.[.[.[.[.[.W   t A.A.A.A.A.A.A.A.A.A.A.A.A.A.A.A.",
"A.A.A.A.A.A.A.A.A.M.P     @ { T.[.[.[.[.[.[.[.[.[.[.[.[.[.[.[.[.[.[.[.[.[.[.[.[.[.[.[.[.F.  4 M.A.A.A.A.A.A.A.A.A.A.A.A.A.A.A.A.",
"A.A.A.A.A.A.A.M.P :     { Y.[.[.[.[.[.[.[.[.[.[.[.[.[.[.[.[.[.[.[.[.[.[.[.[.[.[.[.[.[.^.4   6.A.A.A.A.A.A.A.A.A.A.A.A.A.A.A.A.A.",
"A.A.A.A.A.M.P :   @ ' T.[.[.[.[.[.[.[.[.[.[.[.[.[.[.[.[.[.[.[.[.[.[.[.[.[.[.[.[.[.[.[.~   p A.A.A.A.A.A.A.A.A.A.A.A.A.A.A.A.A.A.",
"A.A.A.M.P :   # ' I.[.[.[.[.[.[.[.[.[.[.[.[.[.[.[.[.[.[.[.[.[.[.[.[.[.[.[.[.[.[.[.[.H.  7 r.A.A.A.A.A.A.A.A.A.A.A.A.A.A.A.A.A.A.",
"A.M.P 2     ' I.[.[.[.[.[.[.[.[.[.[.[.[.[.[.[.[.[.[.[.[.[.[.[.[.[.[.[.[.[.[.[.[.[.).7   5.A.A.A.A.A.A.A.A.A.A.A.A.A.A.A.A.A.A.A.",
"Y :     ' I.[.[.[.[.[.[.[.[.[.[.[.[.[.[.[.[.[.[.[.[.[.[.[.[.[.[.[.[.[.[.[.[.[.[.[.~   a V.A.A.A.A.A.A.A.A.A.A.A.A.A.A.A.A.A.A.A.",
"    _ I.[.[.[.[.[.[.[.[.[.[.[.[.[.[.[.[.[.[.[.[.[.[.[.[.[.[.[.[.[.[.[.[.[.[.[.[.[.S.4 0.A.A.A.A.A.A.A.A.A.A.A.A.A.A.A.A.A.A.A.A.",
"    ` I.[.[.[.[.[.[.[.[.[.[.[.[.[.[.[.[.[.[.[.[.[.[.[.[.[.[.[.[.[.[.[.[.[.[.[.[.[.W   a V.A.A.A.A.A.A.A.A.A.A.A.A.A.A.A.A.A.A.A.",
"P :     ' I.[.[.[.[.[.[.[.[.[.[.[.[.[.[.[.[.[.[.[.[.[.[.[.[.[.[.[.[.[.[.[.[.[.[.[.).4   9.A.A.A.A.A.A.A.A.A.A.A.A.A.A.A.A.A.A.A.",
"A.M.P :   # ' I.[.[.[.[.[.[.[.[.[.[.[.[.[.[.[.[.[.[.[.[.[.[.[.[.[.[.[.[.[.[.[.[.[.[.S.  4 n.V.A.A.A.A.A.A.A.A.A.A.A.A.A.A.A.A.A.",
"A.A.A.M.P #     ' I.[.[.[.[.[.[.[.[.[.[.[.[.[.[.[.[.[.[.[.[.[.[.[.[.[.[.[.[.[.[.[.[.[.R   f V.A.A.A.A.A.A.A.A.A.A.A.A.A.A.A.A.A.",
"A.A.A.A.A.M.P   X   | Y.[.[.[.[.[.[.[.[.[.[.[.[.[.[.[.[.[.[.[.[.[.[.[.[.[.[.[.[.[.[.[.`.7   2.V.A.A.A.A.A.A.A.A.A.A.A.A.A.A.A.A.",
"A.A.A.A.A.A.A.M.P #     { T.[.[.[.[.[.[.[.[.[.[.[.[.[.[.[.[.[.[.[.[.[.[.[.[.[.[.[.[.[.[.G.  6 g.A.A.A.A.A.A.A.A.A.A.A.A.A.A.A.A.",
"A.A.A.A.A.A.A.A.A.M.P %   # | T.[.[.[.[.[.[.[.[.[.[.[.[.[.[.[.[.[.[.[.[.[.[.[.[.[.[.[.[.[.W   G N.A.A.A.A.A.A.A.A.A.A.A.A.A.A.A.",
"A.A.A.A.A.A.A.A.A.A.A.M.P #     | T.[.[.[.[.[.[.[.[.[.[.[.[.[.[.[.[.[.[.[.[.[.[.[.[.[.[.[.`.7   ,.A.A.A.A.A.A.A.A.A.A.A.A.A.A.A.",
"A.A.A.A.A.A.A.A.A.A.A.A.A.x.S #   X  .T.[.[.[.[.[.[.[.[.[.[.[.[.[.[.[.[.[.[.[.[.[.[.[.[.[.[.G.  < m.A.A.A.A.A.A.A.A.A.A.A.A.A.A.",
"A.A.A.A.A.A.A.A.A.A.A.A.A.A.A.M.J #   X O.T.[.[.[.[.[.[.[.[.[.[.[.[.[.[.[.[.[.[.[.[.[.[.[.[.[.W   a A.A.A.A.A.A.A.A.A.A.A.A.A.A.",
"A.A.A.A.A.A.A.A.A.A.A.A.A.A.A.A.A.M.A     # O.T.[.[.[.[.[.[.[.[.[.[.[.[.[.[.[.[.[.[.[.[.[.[.[.`.7   T V.A.A.A.A.A.A.A.A.A.A.A.A.",
"A.A.A.A.A.A.A.A.A.A.A.A.A.A.A.A.A.A.A.c.P X   # O.W.[.[.[.[.[.[.[.[.[.[.[.[.[.[.[.[.[.[.[.[.[.[.H.  4 n.A.A.A.A.A.A.A.A.A.A.A.A.",
"A.A.A.A.A.A.A.A.A.A.A.A.A.A.A.A.A.A.A.A.A.x.S #   # O.W.[.[.[.[.[.[.[.[.[.[.[.[.[.[.[.[.[.[.[.[.[.~   t V.A.A.A.A.A.A.A.A.A.A.A.",
"A.A.A.A.A.A.A.A.A.A.A.A.A.A.A.A.A.A.A.A.A.A.A.M.A #   # O.Q.[.[.[.[.[.[.[.[.[.[.[.[.[.[.[.[.[.[.[.'.9   5.V.A.A.A.A.A.A.A.A.A.A.",
"A.A.A.A.A.A.A.A.A.A.A.A.A.A.A.A.A.A.A.A.A.A.A.A.A.c.A #   # O.Q.[.[.[.[.[.[.[.[.[.[.[.[.[.[.[.[.[.[.H.  5 r.A.A.A.A.A.A.A.A.A.A.",
"A.A.A.A.A.A.A.A.A.A.A.A.A.A.A.A.A.A.A.A.A.A.A.A.A.A.A.x.A #   # @.Q.[.[.[.[.[.[.[.[.[.[.[.[.[.[.[.[.[.~   t A.A.A.A.A.A.A.A.A.A.",
"A.A.A.A.A.A.A.A.A.A.A.A.A.A.A.A.A.A.A.A.A.A.A.A.A.A.A.A.A.x.N X   # O.^.[.[.[.[.[.[.[.[.[.[.[.[.[.[.[.'.5   6.A.A.A.A.A.A.A.A.A.",
"A.A.A.A.A.A.A.A.A.A.A.A.A.A.A.A.A.A.A.A.A.A.A.A.A.A.A.A.A.A.A.x.A #   # %.^.[.[.[.[.[.[.[.[.[.[.[.[.[.[.L.  < M.A.A.A.A.A.A.A.A.",
"A.A.A.A.A.A.A.A.A.A.A.A.A.A.A.A.A.A.A.A.A.A.A.A.A.A.A.A.A.A.A.A.A.x.c #   : %.^.[.[.[.[.[.[.[.[.[.[.[.[.[.)   t A.A.A.A.A.A.A.A.",
"A.A.A.A.A.A.A.A.A.A.A.A.A.A.A.A.A.A.A.A.A.A.A.A.A.A.A.A.A.A.A.A.A.A.A.x.B     # =.^.[.[.[.[.[.[.[.[.[.[.[.'.9   T A.A.A.A.A.A.A.",
"A.A.A.A.A.A.A.A.A.A.A.A.A.A.A.A.A.A.A.A.A.A.A.A.A.A.A.A.A.A.A.A.A.A.A.A.A.a.N   X # *.^.[.[.[.[.[.[.[.[.[.[.H.  2 M.A.A.A.A.A.A.",
"A.A.A.A.A.A.A.A.A.A.A.A.A.A.A.A.A.A.A.A.A.A.A.A.A.A.A.A.A.A.A.A.A.A.A.A.A.A.A.i.N     - =.^.[.[.[.[.[.[.[.[.[.(   s A.A.A.A.A.A.",
"A.A.A.A.A.A.A.A.A.A.A.A.A.A.A.A.A.A.A.A.A.A.A.A.A.A.A.A.A.A.A.A.A.A.A.A.A.A.A.A.A.x.N     1 -.^.[.[.[.[.[.[.[.'.9   6.A.A.A.A.A.",
"A.A.A.A.A.A.A.A.A.A.A.A.A.A.A.A.A.A.A.A.A.A.A.A.A.A.A.A.A.A.A.A.A.A.A.A.A.A.A.A.A.A.A.a.N     # -._.[.[.[.[.[.[.J.  3 M.A.A.A.A.",
"A.A.A.A.A.A.A.A.A.A.A.A.A.A.A.A.A.A.A.A.A.A.A.A.A.A.A.A.A.A.A.A.A.A.A.A.A.A.A.A.A.A.A.A.A.a.c     : =.'.[.[.[.[.[.(   s A.A.A.A.",
"A.A.A.A.A.A.A.A.A.A.A.A.A.A.A.A.A.A.A.A.A.A.A.A.A.A.A.A.A.A.A.A.A.A.A.A.A.A.A.A.A.A.A.A.A.A.A.a.c     # -._.[.[.[.'.9   6.A.A.A.",
"A.A.A.A.A.A.A.A.A.A.A.A.A.A.A.A.A.A.A.A.A.A.A.A.A.A.A.A.A.A.A.A.A.A.A.A.A.A.A.A.A.A.A.A.A.A.A.A.A.a.h     2 ;.'.[.[.K.  : M.A.A.",
"A.A.A.A.A.A.A.A.A.A.A.A.A.A.A.A.A.A.A.A.A.A.A.A.A.A.A.A.A.A.A.A.A.A.A.A.A.A.A.A.A.A.A.A.A.A.A.A.A.A.A.i.c     # :.`.[.(   s A.A.",
"A.A.A.A.A.A.A.A.A.A.A.A.A.A.A.A.A.A.A.A.A.A.A.A.A.A.A.A.A.A.A.A.A.A.A.A.A.A.A.A.A.A.A.A.A.A.A.A.A.A.A.A.A.i.h     1 :.P.9   6.A.",
"A.A.A.A.A.A.A.A.A.A.A.A.A.A.A.A.A.A.A.A.A.A.A.A.A.A.A.A.A.A.A.A.A.A.A.A.A.A.A.A.A.A.A.A.A.A.A.A.A.A.A.A.A.A.A.i.k     2 R   3 M.",
"A.A.A.A.A.A.A.A.A.A.A.A.A.A.A.A.A.A.A.A.A.A.A.A.A.A.A.A.A.A.A.A.A.A.A.A.A.A.A.A.A.A.A.A.A.A.A.A.A.A.A.A.A.A.A.A.A.i.k         w ",
"A.A.A.A.A.A.A.A.A.A.A.A.A.A.A.A.A.A.A.A.A.A.A.A.A.A.A.A.A.A.A.A.A.A.A.A.A.A.A.A.A.A.A.A.A.A.A.A.A.A.A.A.A.A.A.A.A.A.A.i.c     q "
};
