/* XPM */
static char *_551670788971[] = {
/* columns rows colors chars-per-pixel */
"64 64 163 2 ",
"   c black",
".  c #000101",
"X  c #010101",
"o  c #010202",
"O  c #020303",
"+  c gray1",
"@  c #030505",
"#  c #030506",
"$  c #040404",
"%  c #040505",
"&  c gray2",
"*  c #040707",
"=  c #060606",
"-  c #060607",
";  c #070707",
":  c #040708",
">  c #070809",
",  c #06090A",
"<  c #06090B",
"1  c #060A0B",
"2  c #090909",
"3  c #090B0B",
"4  c gray4",
"5  c #0B0A0A",
"6  c #0B0B0B",
"7  c #080C0D",
"8  c gray5",
"9  c #0E0C0C",
"0  c #0E0D0D",
"q  c #0F0E0D",
"w  c #0E0E0E",
"e  c #0F0E0E",
"r  c #0F0F0E",
"t  c #110E0D",
"y  c #110F0F",
"u  c #11100F",
"i  c #12100F",
"p  c #0A0F11",
"a  c #0C1315",
"s  c #0F1619",
"d  c #0F1719",
"f  c #0F171A",
"g  c #101010",
"h  c #111111",
"j  c #121110",
"k  c #121111",
"l  c gray7",
"z  c #131313",
"x  c #151312",
"c  c #131516",
"v  c #131617",
"b  c gray8",
"n  c #151515",
"m  c #171514",
"M  c #10181B",
"N  c #11191B",
"B  c #10181C",
"V  c #10191C",
"C  c #11191C",
"Z  c #111A1D",
"A  c #111B1E",
"S  c #121B1E",
"D  c #121B1F",
"F  c #121C1F",
"G  c #181818",
"H  c #1B1B1B",
"J  c #1E1D1C",
"K  c #121C20",
"L  c #131D21",
"P  c #131E21",
"I  c #131E22",
"U  c #151D20",
"Y  c #141E22",
"T  c #141E23",
"R  c #141F23",
"E  c #151F24",
"W  c #152024",
"Q  c #152025",
"!  c #152125",
"~  c #162125",
"^  c #162126",
"/  c #182429",
"(  c #18252A",
")  c #1B2A2F",
"_  c #1F2F35",
"`  c gray13",
"'  c #262322",
"]  c gray14",
"[  c gray15",
"{  c #292524",
"}  c #2A2525",
"|  c #2B2725",
" . c gray16",
".. c #2A2828",
"X. c #2A2929",
"o. c #2A2A2A",
"O. c #2B2A2A",
"+. c #2B2B2A",
"@. c gray17",
"#. c #2D2928",
"$. c #2E2928",
"%. c #2E2A28",
"&. c #2C2C2C",
"*. c #2D2D2D",
"=. c #2E2D2D",
"-. c #2F2E2D",
";. c gray18",
":. c #2E2E2F",
">. c #2F2F2F",
",. c #36312F",
"<. c #2F3030",
"1. c #22343A",
"2. c gray19",
"3. c #313131",
"4. c #323232",
"5. c #343130",
"6. c #353230",
"7. c #373533",
"8. c #343434",
"9. c #353535",
"0. c gray21",
"q. c #373737",
"w. c #383533",
"e. c #393737",
"r. c #393837",
"t. c gray22",
"y. c #393939",
"u. c #39393A",
"i. c #393A3A",
"p. c #253840",
"a. c #273B43",
"s. c #283D45",
"d. c #2C424B",
"f. c #2C444D",
"g. c #2F4751",
"h. c #2F4851",
"j. c #2F4852",
"k. c #304953",
"l. c #314A54",
"z. c #314B54",
"x. c #314B55",
"c. c #324C56",
"v. c #324D57",
"b. c #334D57",
"n. c #334E58",
"m. c #334E59",
"M. c #344F59",
"N. c #34505A",
"B. c #35505A",
"V. c #35505B",
"C. c #35515B",
"Z. c #35515C",
"A. c #36525C",
"S. c #36535E",
"D. c #37535E",
"F. c #395662",
"G. c #3B5965",
"H. c #3C5C68",
"J. c #3E5E6B",
"K. c #3F606C",
"L. c #40616E",
"P. c #40626F",
"I. c #416370",
/* pixels */
"y.y.y.y.y.y.y.y.y.y.y.y.y.y.y.y.y.y.y.y.y.y.y.y.y.y.y.y.y.y.y.y.y.y.y.y.y.y.y.y.y.y.y.y.y.y.y.y.y.y.y.y.y.y.y.y.y.y.y.y.y.y.y.y.",
"y.y.y.y.y.y.y.y.y.y.y.y.y.y.y.y.y.y.y.y.y.y.y.y.y.y.y.y.y.y.y.y.y.y.y.y.y.y.y.y.y.y.y.y.y.y.y.y.y.y.y.y.y.y.y.y.y.y.y.y.y.y.y.y.",
"y.y.y.y.y.y.y.y.y.y.y.y.y.y.y.y.y.y.y.y.y.y.y.y.y.y.y.y.y.y.y.y.y.y.y.y.y.y.y.y.y.y.y.y.y.y.y.y.y.y.y.y.y.y.y.y.y.y.y.y.y.y.y.y.",
"y.y.y.y.y.y.y.y.y.y.y.y.y.y.y.y.y.y.y.y.y.y.y.y.y.y.y.y.y.y.y.y.y.y.y.y.y.y.y.y.y.y.y.y.y.y.y.y.y.y.y.y.y.y.y.y.y.y.y.y.y.y.y.y.",
"y.y.y.y.z ; 3.y.y.y.y.y.y.y.y.y.y.y.y.y.y.y.y.y.y.y.y.y.y.y.y.y.y.y.y.y.y.y.y.y.y.y.y.y.y.y.y.y.y.y.y.y.y.y.y.y.y.y.y.y.y.y.y.y.",
"y.y.y.y.;     n >.y.y.y.y.y.y.y.y.y.y.y.y.y.y.y.y.y.y.y.y.y.y.y.y.y.y.y.y.y.y.y.y.y.y.y.y.y.y.y.y.y.y.y.y.y.y.y.y.y.y.y.y.y.y.y.",
"y.y.y.y.8.;       n 3.y.y.y.y.y.y.y.y.y.y.y.y.y.y.y.y.y.y.y.y.y.y.y.y.y.y.y.y.y.y.y.y.y.y.y.y.y.y.y.y.y.y.y.y.y.y.y.y.y.y.y.y.y.",
"y.y.y.y.y.[   f f     n 3.y.y.y.y.y.y.y.y.y.y.y.y.y.y.y.y.y.y.y.y.y.y.y.y.y.y.y.y.y.y.y.y.y.y.y.y.y.y.y.y.y.y.y.y.y.y.y.y.y.y.y.",
"y.y.y.y.y.y.n   d.g.f     n >.y.y.y.y.y.y.y.y.y.y.y.y.y.y.y.y.y.y.y.y.y.y.y.y.y.y.y.y.y.y.y.y.y.y.y.y.y.y.y.y.y.y.y.y.y.y.y.y.y.",
"y.y.y.y.y.y.8.  , H.I.j.f     U %.y.y.y.y.y.y.y.y.y.y.y.y.y.y.y.y.y.y.y.y.y.y.y.y.y.y.y.y.y.y.y.y.y.y.y.y.y.y.y.y.y.y.y.y.y.y.y.",
"y.y.y.y.y.y.y.[   / I.I.I.k.M     U %.r.y.y.y.y.y.y.y.y.y.y.y.y.y.y.y.y.y.y.y.y.y.y.y.y.y.y.y.y.y.y.y.y.y.y.y.y.y.y.y.y.y.y.y.y.",
"y.y.y.y.y.y.y.y.z   g.I.I.I.I.k.M     z >.y.y.y.y.y.y.y.y.y.y.y.y.y.y.y.y.y.y.y.y.y.y.y.y.y.y.y.y.y.y.y.y.y.y.y.y.y.y.y.y.y.y.y.",
"y.y.y.y.y.y.y.y.3.# 7 H.I.I.I.I.I.x.f     i <.y.y.y.y.y.y.y.y.y.y.y.y.y.y.y.y.y.y.y.y.y.y.y.y.y.y.y.y.y.y.y.y.y.y.y.y.y.y.y.y.y.",
"y.y.y.y.y.y.y.y.y.`   _ I.I.I.I.I.I.I.x.Z     i >.t.y.y.y.y.y.y.y.y.y.y.y.y.y.y.y.y.y.y.y.y.y.y.y.y.y.y.y.y.y.y.y.y.y.y.y.y.y.y.",
"y.y.y.y.y.y.y.y.y.y.w   c.I.I.I.I.I.I.I.I.x.Z     z >.t.y.y.y.y.y.y.y.y.y.y.y.y.y.y.y.y.y.y.y.y.y.y.y.y.y.y.y.y.y.y.y.y.y.y.y.y.",
"y.y.y.y.y.y.y.y.y.y.3.  p K.I.I.I.I.I.I.I.I.I.x.Z     t >.y.y.y.y.y.y.y.y.y.y.y.y.y.y.y.y.y.y.y.y.y.y.y.y.y.y.y.y.y.y.y.y.y.y.y.",
"y.y.y.y.y.y.y.y.y.y.y.J   1.I.I.I.I.I.I.I.I.I.I.I.c.K     t >.y.y.y.y.y.y.y.y.y.y.y.y.y.y.y.y.y.y.y.y.y.y.y.y.y.y.y.y.y.y.y.y.y.",
"y.y.y.y.y.y.y.y.y.y.y.8.5   B.I.I.I.I.I.I.I.I.I.I.I.I.c.F     i >.y.y.y.y.y.y.y.y.y.y.y.y.y.y.y.y.y.y.y.y.y.y.y.y.y.y.y.y.y.y.y.",
"y.y.y.y.y.y.y.y.y.y.y.y.%.  a L.I.I.I.I.I.I.I.I.I.I.I.I.I.c.K     z >.y.y.y.y.y.y.y.y.y.y.y.y.y.y.y.y.y.y.y.y.y.y.y.y.y.y.y.y.y.",
"y.y.y.y.y.y.y.y.y.y.y.y.e.H   1.I.I.I.I.I.I.I.I.I.I.I.I.I.I.I.b.Z     t >.y.y.y.y.y.y.y.y.y.y.y.y.y.y.y.y.y.y.y.y.y.y.y.y.y.y.y.",
"y.y.y.y.y.y.y.y.y.y.y.y.y.,.3 # D.I.I.I.I.I.I.I.I.I.I.I.I.I.I.I.I.m.K     z >.e.y.y.y.y.y.y.y.y.y.y.y.y.y.y.y.y.y.y.y.y.y.y.y.y.",
"y.y.y.y.y.y.y.y.y.y.y.y.y.y.|   d L.I.I.I.I.I.I.I.I.I.I.I.I.I.I.I.I.I.m.K     a >.t.y.y.y.y.y.y.y.y.y.y.y.y.y.y.y.y.y.y.y.y.y.y.",
"y.y.y.y.y.y.y.y.y.y.y.y.y.y.y.n   p.I.I.I.I.I.I.I.I.I.I.I.I.I.I.I.I.I.I.I.M.K     z o.y.y.y.y.y.y.y.y.y.y.y.y.y.y.y.y.y.y.y.y.y.",
"y.y.y.y.y.y.y.y.y.y.y.y.y.y.y.6., # F.I.I.I.I.I.I.I.I.I.I.I.I.I.I.I.I.I.I.I.I.M.K     z o.y.y.y.y.y.y.y.y.y.y.y.y.y.y.y.y.y.y.y.",
"y.y.y.y.y.y.y.y.y.y.y.y.y.y.y.y.{   F I.I.I.I.I.I.I.I.I.I.I.I.I.I.I.I.I.I.I.I.I.I.B.W     i >.t.y.y.y.y.y.y.y.y.y.y.y.y.y.y.y.y.",
"y.y.y.y.y.y.y.y.y.y.y.y.y.y.y.y.y.x   s.I.I.I.I.I.I.I.I.I.I.I.I.I.I.I.I.I.I.I.I.I.I.L.B.W     Z o.y.y.y.y.y.y.y.y.y.y.y.y.y.y.y.",
"y.y.y.y.y.y.y.y.y.y.y.y.y.y.y.y.y.3.; ; G.I.I.I.I.I.I.I.I.I.I.I.I.I.I.I.I.I.I.I.I.I.I.I.L.B.^     Z o.y.y.y.y.y.y.y.y.y.y.y.y.y.",
"y.y.y.y.y.y.y.y.y.y.y.y.y.y.y.y.y.y.'   ^ I.I.I.I.I.I.I.I.I.I.I.I.I.I.I.I.I.I.I.I.I.I.I.I.I.I.B.^     w &.y.y.y.y.y.y.y.y.y.y.y.",
"y.y.y.y.y.y.y.y.y.y.y.y.y.y.y.y.y.y.w.n   d.I.I.I.I.I.I.I.I.I.I.I.I.I.I.I.I.I.I.I.I.I.I.I.I.I.I.L.S.W     w %.y.y.y.y.y.y.y.y.y.",
"y.y.y.y.y.y.y.y.y.y.y.y.y.y.y.y.y.y.y.8.; , H.I.I.I.I.I.I.I.I.I.I.I.I.I.I.I.I.I.I.I.I.I.I.I.I.I.I.I.I.B.^     w o.y.y.y.y.y.y.y.",
"y.y.y.y.y.y.y.y.y.y.y.y.y.y.y.y.y.y.y.y.`   ( I.I.I.I.I.I.I.I.I.I.I.I.I.I.I.I.I.I.I.I.I.I.I.I.I.I.I.I.I.I.S.^     w o.y.y.y.y.y.",
"y.y.y.y.y.y.y.y.y.y.y.y.y.y.y.y.y.y.y.y.y.v p.I.I.I.I.I.I.I.I.I.I.I.I.I.I.I.I.I.I.I.I.I.I.I.I.I.I.I.I.I.I.I.I.S.^     4 y.y.y.y.",
"y.y.y.y.y.y.y.y.y.y.y.y.y.y.y.y.y.y.y.y.y.n p.I.I.I.I.I.I.I.I.I.I.I.I.I.I.I.I.I.I.I.I.I.I.I.I.I.I.I.I.I.I.I.I.D.^     4 y.y.y.y.",
"y.y.y.y.y.y.y.y.y.y.y.y.y.y.y.y.y.y.y.y.[   ( I.I.I.I.I.I.I.I.I.I.I.I.I.I.I.I.I.I.I.I.I.I.I.I.I.I.I.I.I.I.S.^     w o.y.y.y.y.y.",
"y.y.y.y.y.y.y.y.y.y.y.y.y.y.y.y.y.y.y.8.# , H.I.I.I.I.I.I.I.I.I.I.I.I.I.I.I.I.I.I.I.I.I.I.I.I.I.I.L.I.S.^     w o.y.y.y.y.y.y.y.",
"y.y.y.y.y.y.y.y.y.y.y.y.y.y.y.y.y.y.y.z   f.I.I.I.I.I.I.I.I.I.I.I.I.I.I.I.I.I.I.I.I.I.I.I.I.I.I.I.S.^     w | y.y.y.y.y.y.y.y.y.",
"y.y.y.y.y.y.y.y.y.y.y.y.y.y.y.y.y.y.[   ^ I.I.I.I.I.I.I.I.I.I.I.I.I.I.I.I.I.I.I.I.I.I.I.I.I.I.B.^     w } e.y.y.y.y.y.y.y.y.y.y.",
"y.y.y.y.y.y.y.y.y.y.y.y.y.y.y.y.y.8.; : G.I.I.I.I.I.I.I.I.I.I.I.I.I.I.I.I.I.I.I.I.I.I.I.I.B.E     w o.y.y.y.y.y.y.y.y.y.y.y.y.y.",
"y.y.y.y.y.y.y.y.y.y.y.y.y.y.y.y.y.n   s.I.I.I.I.I.I.I.I.I.I.I.I.I.I.I.I.I.I.I.I.I.I.I.B.E     w o.y.y.y.y.y.y.y.y.y.y.y.y.y.y.y.",
"y.y.y.y.y.y.y.y.y.y.y.y.y.y.y.y.o.  Z I.I.I.I.I.I.I.I.I.I.I.I.I.I.I.I.I.I.I.I.I.I.B.U     w &.y.y.y.y.y.y.y.y.y.y.y.y.y.y.y.y.y.",
"y.y.y.y.y.y.y.y.y.y.y.y.y.y.y.8.: ; F.I.I.I.I.I.I.I.I.I.I.I.I.I.I.I.I.I.I.I.I.B.U     w &.y.y.y.y.y.y.y.y.y.y.y.y.y.y.y.y.y.y.y.",
"y.y.y.y.y.y.y.y.y.y.y.y.y.y.y.H   1.I.I.I.I.I.I.I.I.I.I.I.I.I.I.I.I.I.I.I.m.K     z &.y.y.y.y.y.y.y.y.y.y.y.y.y.y.y.y.y.y.y.y.y.",
"y.y.y.y.y.y.y.y.y.y.y.y.y.y.>.  M I.I.I.I.I.I.I.I.I.I.I.I.I.I.I.I.I.I.m.K     a &.y.y.y.y.y.y.y.y.y.y.y.y.y.y.y.y.y.y.y.y.y.y.y.",
"y.y.y.y.y.y.y.y.y.y.y.y.y.q.,   S.I.I.I.I.I.I.I.I.I.I.I.I.I.I.I.I.M.K     z %.y.y.y.y.y.y.y.y.y.y.y.y.y.y.y.y.y.y.y.y.y.y.y.y.y.",
"y.y.y.y.y.y.y.y.y.y.y.y.y.H   1.I.I.I.I.I.I.I.I.I.I.I.I.I.I.I.c.K     z o.y.y.y.y.y.y.y.y.y.y.y.y.y.y.y.y.y.y.y.y.y.y.y.y.y.y.y.",
"y.y.y.y.y.y.y.y.y.y.y.y.>.  a L.I.I.I.I.I.I.I.I.I.I.I.I.I.c.F     z >.y.y.y.y.y.y.y.y.y.y.y.y.y.y.y.y.y.y.y.y.y.y.y.y.y.y.y.y.y.",
"y.y.y.y.y.y.y.y.y.y.y.y.6   B.I.I.I.I.I.I.I.I.I.I.I.I.c.Z     z >.y.y.y.y.y.y.y.y.y.y.y.y.y.y.y.y.y.y.y.y.y.y.y.y.y.y.y.y.y.y.y.",
"y.y.y.y.y.y.y.y.y.y.y.J   _ I.I.I.I.I.I.I.I.I.I.I.c.Z     z >.y.r.y.y.y.y.y.y.y.y.y.y.y.y.y.y.y.y.y.y.y.y.y.y.y.y.y.y.y.y.y.y.y.",
"y.y.y.y.y.y.y.y.y.y.>.  a L.L.I.I.I.I.I.I.I.I.x.Z     z >.y.y.y.y.y.y.y.y.y.y.y.y.y.y.y.y.y.y.y.y.y.y.y.y.y.y.y.y.y.y.y.y.y.y.y.",
"y.y.y.y.y.y.y.y.y.y.w   x.L.I.I.I.I.I.I.I.x.Z     t >.y.y.y.y.y.y.y.y.y.y.y.y.y.y.y.y.y.y.y.y.y.y.y.y.y.y.y.y.y.y.y.y.y.y.y.y.y.",
"y.y.y.y.y.y.y.y.y.`   _ I.I.I.I.I.I.I.k.Z     t >.y.t.y.y.y.y.y.y.y.y.y.y.y.y.y.y.y.y.y.y.y.y.y.y.y.y.y.y.y.y.y.y.y.y.y.y.y.y.y.",
"y.y.y.y.y.y.y.y.3.$ 7 H.I.I.I.I.I.k.Z     z >.y.q.y.y.y.y.y.y.y.y.y.y.y.y.y.y.y.y.y.y.y.y.y.y.y.y.y.y.y.y.y.y.y.y.y.y.y.y.y.y.y.",
"y.y.y.y.y.y.y.y.z   g.I.I.I.I.k.M     z >.y.y.y.y.y.y.y.y.y.y.y.y.y.y.y.y.y.y.y.y.y.y.y.y.y.y.y.y.y.y.y.y.y.y.y.y.y.y.y.y.y.y.y.",
"y.y.y.y.y.y.y.`   ( I.I.I.k.M     z >.y.y.y.y.y.y.y.y.y.y.y.y.y.y.y.y.y.y.y.y.y.y.y.y.y.y.y.y.y.y.y.y.y.y.y.y.y.y.y.y.y.y.y.y.y.",
"y.y.y.y.y.y.8.; , H.I.j.f     x >.y.y.y.y.y.y.y.y.y.y.y.y.y.y.y.y.y.y.y.y.y.y.y.y.y.y.y.y.y.y.y.y.y.y.y.y.y.y.y.y.y.y.y.y.y.y.y.",
"y.y.y.y.y.y.z   d.j.f     z <.y.y.y.y.y.y.y.y.y.y.y.y.y.y.y.y.y.y.y.y.y.y.y.y.y.y.y.y.y.y.y.y.y.y.y.y.y.y.y.y.y.y.y.y.y.y.y.y.y.",
"y.y.y.y.y.[   f f     n <.y.y.y.y.y.y.y.y.y.y.y.y.y.y.y.y.y.y.y.y.y.y.y.y.y.y.y.y.y.y.y.y.y.y.y.y.y.y.y.y.y.y.y.y.y.y.y.y.y.y.y.",
"y.y.y.y.8.;       x <.y.y.y.y.y.y.y.y.y.y.y.y.y.y.y.y.y.y.y.y.y.y.y.y.y.y.y.y.y.y.y.y.y.y.y.y.y.y.y.y.y.y.y.y.y.y.y.y.y.y.y.y.y.",
"y.y.y.y.;     n 3.y.y.y.y.y.y.y.y.y.y.y.y.y.y.y.y.y.y.y.y.y.y.y.y.y.y.y.y.y.y.y.y.y.y.y.y.y.y.y.y.y.y.y.y.y.y.y.y.y.y.y.y.y.y.y.",
"y.y.y.y.z ; 3.y.y.y.y.y.y.y.y.y.y.y.y.y.y.y.y.y.y.y.y.y.y.y.y.y.y.y.y.y.y.y.y.y.y.y.y.y.y.y.y.y.y.y.y.y.y.y.y.y.y.y.y.y.y.y.y.y.",
"y.y.y.y.y.y.y.y.y.y.y.y.y.y.y.y.y.y.y.y.y.y.y.y.y.y.y.y.y.y.y.y.y.y.y.y.y.y.y.y.y.y.y.y.y.y.y.y.y.y.y.y.y.y.y.y.y.y.y.y.y.y.y.y.",
"y.y.y.y.y.y.y.y.y.y.y.y.y.y.y.y.y.y.y.y.y.y.y.y.y.y.y.y.y.y.y.y.y.y.y.y.y.y.y.y.y.y.y.y.y.y.y.y.y.y.y.y.y.y.y.y.y.y.y.y.y.y.y.y.",
"y.y.y.y.y.y.y.y.y.y.y.y.y.y.y.y.y.y.y.y.y.y.y.y.y.y.y.y.y.y.y.y.y.y.y.y.y.y.y.y.y.y.y.y.y.y.y.y.y.y.y.y.y.y.y.y.y.y.y.y.y.y.y.y.",
"y.y.y.y.y.y.y.y.y.y.y.y.y.y.y.y.y.y.y.y.y.y.y.y.y.y.y.y.y.y.y.y.y.y.y.y.y.y.y.y.y.y.y.y.y.y.y.y.y.y.y.y.y.y.y.y.y.y.y.y.y.y.y.y."
};
