/* XPM */
static char * arr_down_xpm[] = {
"64 64 166 2",
"  	c None",
". 	c #000000",
"+ 	c #000101",
"@ 	c #020A0C",
"# 	c #000202",
"$ 	c #05313E",
"% 	c #034558",
"& 	c #000102",
"* 	c #034659",
"= 	c #021F27",
"- 	c #0495BE",
"; 	c #027596",
"> 	c #021015",
", 	c #021115",
"' 	c #027697",
") 	c #0495BF",
"! 	c #010000",
"~ 	c #035E77",
"{ 	c #01BDF3",
"] 	c #02A4D3",
"^ 	c #033C4C",
"/ 	c #033D4D",
"( 	c #01A4D3",
"_ 	c #01BEF3",
": 	c #03232C",
"< 	c #029DC9",
"[ 	c #00BCF1",
"} 	c #00B9EE",
"| 	c #03789B",
"1 	c #010609",
"2 	c #010709",
"3 	c #03799B",
"4 	c #036B89",
"5 	c #01B9EE",
"6 	c #00BAEF",
"7 	c #00BDF3",
"8 	c #02A2D0",
"9 	c #02313E",
"0 	c #000203",
"a 	c #02313F",
"b 	c #031E25",
"c 	c #01A7D6",
"d 	c #00BEF4",
"e 	c #01B8EC",
"f 	c #02627E",
"g 	c #01181E",
"h 	c #01181F",
"i 	c #02637E",
"j 	c #046F8D",
"k 	c #00BBF1",
"l 	c #01C3FA",
"m 	c #0291BB",
"n 	c #024052",
"o 	c #024152",
"p 	c #0292BB",
"q 	c #00C3FA",
"r 	c #031013",
"s 	c #02B4E7",
"t 	c #00BEF5",
"u 	c #01B0E2",
"v 	c #02151B",
"w 	c #02161B",
"x 	c #01B1E2",
"y 	c #05637D",
"z 	c #00BFF6",
"A 	c #00BBF0",
"B 	c #01A0CD",
"C 	c #033B4D",
"D 	c #033C4D",
"E 	c #020708",
"F 	c #03B5E8",
"G 	c #00BAF0",
"H 	c #01BCF2",
"I 	c #036D8B",
"J 	c #000809",
"K 	c #00080A",
"L 	c #036D8C",
"M 	c #00BCF2",
"N 	c #05576F",
"O 	c #00C2F9",
"P 	c #03A1CF",
"Q 	c #022A36",
"R 	c #000506",
"S 	c #022B36",
"T 	c #03A2CF",
"U 	c #020F13",
"V 	c #03A8D8",
"W 	c #026480",
"X 	c #01161D",
"Y 	c #01171D",
"Z 	c #026581",
"` 	c #03546B",
" .	c #01C2F9",
"..	c #00BFF5",
"+.	c #0295C0",
"@.	c #023F51",
"#.	c #0296C0",
"$.	c #021E25",
"%.	c #039DC9",
"&.	c #020C10",
"*.	c #020D10",
"=.	c #01B0E3",
"-.	c #035F79",
";.	c #02A8D8",
">.	c #033A49",
",.	c #033B4A",
"'.	c #01A8D8",
").	c #029ECB",
"!.	c #037495",
"~.	c #020A0D",
"{.	c #037595",
"].	c #00B9ED",
"^.	c #02BEF3",
"/.	c #031C22",
"(.	c #01AAD9",
"_.	c #046D8B",
":.	c #030D10",
"<.	c #02B5E8",
"[.	c #05607A",
"}.	c #00C0F7",
"|.	c #03B3E6",
"1.	c #04566D",
"2.	c #021217",
"3.	c #03A6D4",
"4.	c #03556D",
"5.	c #01C1F8",
"6.	c #021F28",
"7.	c #029DC8",
"8.	c #03627D",
"9.	c #03222B",
"0.	c #02A0CD",
"a.	c #036F8D",
"b.	c #03191F",
"c.	c #02ACDD",
"d.	c #056C89",
"e.	c #020B0D",
"f.	c #02B6E9",
"g.	c #055E77",
"h.	c #00C1F8",
"i.	c #02080A",
"j.	c #03B1E3",
"k.	c #04556C",
"l.	c #00C2FA",
"m.	c #02151A",
"n.	c #03A3D1",
"o.	c #03576F",
"p.	c #01C1F7",
"q.	c #022129",
"r.	c #029CC8",
"s.	c #036581",
"t.	c #01BBF0",
"u.	c #03222A",
"v.	c #02A2CF",
"w.	c #046F8E",
"x.	c #03171C",
"y.	c #02AFE0",
"z.	c #056986",
"A.	c #02090B",
"B.	c #02B6EA",
"C.	c #055C74",
"D.	c #02090C",
"E.	c #03AFE0",
"F.	c #04546B",
"G.	c #02181E",
"H.	c #03A5D3",
"I.	c #045D77",
"  . .                                                                                                                     . .   ",
". . . . .                                                                                                             . . . . . ",
". . . . . .                                                                                                         . . . . . . ",
"  . . . . . . .                                                                                                 . . . . . . .   ",
"  . . . . . . . .                                                                                             . . . . . . . .   ",
"    . . . . . . . . .                                                                                     . . . . . . . . .     ",
"    . . . . . . . . . .                                                                                 . . . . . . . . . .     ",
"      . . . + @ . . . . . .                                                                         . . . . . . @ + . . .       ",
"      . . . # $ % & . . . . .                                                                     . . . . . # * $ # . . .       ",
"      . . . . = - ; > . . . . . .                                                             . . . . . . , ' ) = . . . .       ",
"        . . . ! ~ { ] ^ . . . . . .                                                         . . . . . . / ( _ ~ ! . . .         ",
"        . . . . : < [ } | 1 . . . . . .                                                 . . . . . . 2 3 } [ < : . . . .         ",
"          . . . ! 4 5 6 7 8 9 0 . . . . .                                             . . . . . 0 a 8 7 6 5 4 ! . . .           ",
"          . . . . b c 6 6 d e f g . . . . . .                                     . . . . . . h i e d 6 6 c b . . . .           ",
"            . . . . j 6 6 6 k l m n ! . . . . .                                 . . . . . ! o p q k 6 6 6 j . . . .             ",
"              . . . r s 6 6 6 6 t u ' v . . . . . .                         . . . . . . w ' x t 6 6 6 6 s r . . .               ",
"              . . . . y z 6 6 6 6 A 6 B C . . . . . .                     . . . . . . D B 6 A 6 6 6 6 z y . . . .               ",
"                . . . E F k 6 6 6 6 6 G H I J . . . . . .             . . . . . . K L M G 6 6 6 6 6 k F E . . .                 ",
"                . . . . N O 6 6 6 6 6 6 6 O P Q R . . . . .         . . . . . R S T O 6 6 6 6 6 6 6 O N . . . .                 ",
"                  . . . U V 7 6 6 6 6 6 6 6 7 _ W X . . . . . . . . . . . . Y Z _ 7 6 6 6 6 6 6 6 7 V U . . .                   ",
"                  . . . 0 `  .6 6 6 6 6 6 6 6 A ..+.@.. . . . . . . . . . n #...A 6 6 6 6 6 6 6 6  .` 0 . . .                   ",
"                  . . . . $.%.7 6 6 6 6 6 6 6 6 6 7 u ' &.. . . . . . *.' =.7 6 6 6 6 6 6 6 6 6 7 %.$.. . . .                   ",
"                    . . . ! -.{ 6 6 6 6 6 6 6 6 6 6 A } ;.>.. . . . ,.'.} A 6 6 6 6 6 6 6 6 6 6 { -.! . . .                     ",
"                    . . . . : ).A 6 6 6 6 6 6 6 6 6 6 6 6 6 !.@ ~.{.6 6 6 6 6 6 6 6 6 6 6 6 6 A ).: . . . .                     ",
"                      . . . ! I ].6 6 6 6 6 6 6 6 6 6 6 6 6 ..^.^...6 6 6 6 6 6 6 6 6 6 6 6 6 ].I ! . . .                       ",
"                      . . . . /.(.6 6 6 6 6 6 6 6 6 6 6 6 6 6 A A 6 6 6 6 6 6 6 6 6 6 6 6 6 6 (./.. . . .                       ",
"                        . . . . _.k 6 6 6 6 6 6 6 6 6 6 6 6 6 6 6 6 6 6 6 6 6 6 6 6 6 6 6 6 k _.. . . .                         ",
"                          . . . :.<.6 6 6 6 6 6 6 6 6 6 6 6 6 6 6 6 6 6 6 6 6 6 6 6 6 6 6 6 <.:.. . .                           ",
"                          . . . . [.}.6 6 6 6 6 6 6 6 6 6 6 6 6 6 6 6 6 6 6 6 6 6 6 6 6 6 }.[.. . . .                           ",
"                            . . . E |.k 6 6 6 6 6 6 6 6 6 6 6 6 6 6 6 6 6 6 6 6 6 6 6 6 k |.E . . .                             ",
"                            . . . . 1.O 6 6 6 6 6 6 6 6 6 6 6 6 6 6 6 6 6 6 6 6 6 6 6 6 O 1.. . . .                             ",
"                              . . . 2.3.7 6 6 6 6 6 6 6 6 6 6 6 6 6 6 6 6 6 6 6 6 6 6 7 3.2.. . .                               ",
"                              . . . 0 4.5.6 6 6 6 6 6 6 6 6 6 6 6 6 6 6 6 6 6 6 6 6 6 5.4.0 . . .                               ",
"                              . . . . 6.7.7 6 6 6 6 6 6 6 6 6 6 6 6 6 6 6 6 6 6 6 6 7 7.6.. . . .                               ",
"                                . . . ! 8.H 6 6 6 6 6 6 6 6 6 6 6 6 6 6 6 6 6 6 6 6 H 8.! . . .                                 ",
"                                . . . . 9.0.A 6 6 6 6 6 6 6 6 6 6 6 6 6 6 6 6 6 6 A 0.9.. . . .                                 ",
"                                  . . . ! a.].6 6 6 6 6 6 6 6 6 6 6 6 6 6 6 6 6 6 ].a.! . . .                                   ",
"                                    . . . b.c.6 6 6 6 6 6 6 6 6 6 6 6 6 6 6 6 6 6 c.b.. . .                                     ",
"                                    . . . . d.M 6 6 6 6 6 6 6 6 6 6 6 6 6 6 6 6 M d.. . . .                                     ",
"                                      . . . e.f.G 6 6 6 6 6 6 6 6 6 6 6 6 6 6 G f.e.. . .                                       ",
"                                      . . . . g.h.6 6 6 6 6 6 6 6 6 6 6 6 6 6 h.g.. . . .                                       ",
"                                        . . . i.j.[ 6 6 6 6 6 6 6 6 6 6 6 6 [ j.i.. . .                                         ",
"                                        . . . + k.l.6 6 6 6 6 6 6 6 6 6 6 6 l.k.+ . . .                                         ",
"                                        . . . . m.n.7 6 6 6 6 6 6 6 6 6 6 7 n.m.. . . .                                         ",
"                                          . . . 0 o.p.6 6 6 6 6 6 6 6 6 6 p.o.0 . . .                                           ",
"                                          . . . . q.r.M 6 6 6 6 6 6 6 6 M r.q.. . . .                                           ",
"                                            . . . ! s.t.6 6 6 6 6 6 6 6 t.s.! . . .                                             ",
"                                            . . . . u.v.G 6 6 6 6 6 6 G v.u.. . . .                                             ",
"                                              . . . . w.].6 6 6 6 6 6 ].w.. . . .                                               ",
"                                                . . . x.y.6 6 6 6 6 6 y.x.. . .                                                 ",
"                                                . . . . z.7 6 6 6 6 7 z.. . . .                                                 ",
"                                                  . . . A.B.A 6 6 A B.A.. . .                                                   ",
"                                                  . . . . C.h.6 6 h.C.. . . .                                                   ",
"                                                    . . . D.E.M M E.D.. . .                                                     ",
"                                                    . . . & F.l.l.F.& . . .                                                     ",
"                                                    . . . . G.H.H.G.. . . .                                                     ",
"                                                      . . . # I.I.# . . .                                                       ",
"                                                      . . . . *.*.. . . .                                                       ",
"                                                        . . . . . . . .                                                         ",
"                                                        . . . . . . . .                                                         ",
"                                                          . . . . . .                                                           ",
"                                                            . . . .                                                             ",
"                                                            . . . .                                                             ",
"                                                              . .                                                               "};
