/* XPM */
static char *_551673263819[] = {
/* columns rows colors chars-per-pixel */
"64 64 84 1 ",
"  c #010101",
". c #050708",
"X c #0D0D0D",
"o c #090E10",
"O c #0C1113",
"+ c #0F171B",
"@ c #141414",
"# c #11191D",
"$ c #1B1B1B",
"% c #20201F",
"& c #172327",
"* c #182327",
"= c #172328",
"- c #1A2529",
"; c #1D292D",
": c #1F2E35",
"> c #232323",
", c #282827",
"< c #2C2C2C",
"1 c #223137",
"2 c #24343A",
"3 c #343434",
"4 c #3C3C3C",
"5 c #40403F",
"6 c #263A42",
"7 c #2B3E45",
"8 c #2A4049",
"9 c #2F4852",
"0 c #344C55",
"q c #354E59",
"w c #394F58",
"e c #34505B",
"r c #39515A",
"t c #395662",
"y c #3D5863",
"u c #3E5D69",
"i c #434342",
"p c #484847",
"a c #4B4B4B",
"s c #50504F",
"d c #535353",
"f c #585857",
"g c #5B5B5B",
"h c #415B64",
"j c #425E68",
"k c #41626F",
"l c #456672",
"z c #466876",
"x c #4B6B77",
"c c #456978",
"v c #496C7B",
"b c #50717E",
"n c #646464",
"m c #6D6D6D",
"M c #767676",
"N c #4E7382",
"B c #507584",
"V c #517887",
"C c #527A8A",
"Z c #557F90",
"A c #578293",
"S c #5B8394",
"D c #5E8897",
"F c #5D899A",
"G c #618D9E",
"H c #5C8CA0",
"J c #6292A5",
"K c #6294A9",
"L c #6599AD",
"P c #6A9BAF",
"I c #6B9EB2",
"U c #6DA1B5",
"Y c #6FA4BA",
"T c #70A2B6",
"R c #71A7BC",
"E c #74AEC6",
"W c #77B0C7",
"Q c #76B0C8",
"! c #78B4CC",
"~ c #7CBBD5",
"^ c #80C1DC",
"/ c #83C6E1",
"( c #85CAE6",
") c #87CDEA",
/* pixels */
"MMMMMMMMMMMMMMMMMMMMMMMMMMMMMMMMMMMMMMMMMMMMMMMMMMMMMMMMMMMMMMMM",
"MMMMMMMMMMMf<@X@3aMMMMMMMMMMMMMg<$XX<imMMMMMMMMMMMMMMMMMMMMMMMMM",
"MMMMMMMMMn$       @gMMMMMMMMMM<       .pMMMMMMMMMMMMMMMMMMMMMMMM",
"MMMMMMMMg    $>$    dMMMMMMMm.   @>>.   3MMMMMMMMMMMMMMMMMMMMMMM",
"MMMMMMMm   9Q)))!y   nMMMMMMX  :U)))^N   iMMMMMMMMMMMMMMMMMMMMMM",
"MMMMMMM$  c)))))))C  XMMMMMi  2)))))))U   mMMMMMMMMMMMMMMMMMMMMM",
"MMMMMMn  2)))()(())8  gMMMM  X())()(())z  3MMMMMMMMMMMMMMMMMMMMM",
"MMMMMM3  Y))/)())()Q  4MMMf  b))()(()()(. $MMMMMMMMMMMMMMMMMMMMM",
"MMMMMM< o))()(()()))X $MMMd  U)()(()()))1  mMMMMMMMMMMMMMMMMMMMM",
"MMMMMM> #)))(()()()); >MMMi  E))(()()())0  mMMMMMMMMMMMMMMMMMMMM",
"MMMMMM< .^)(()/)(()(X >MMMa  P))()(((())= .MMMMMMMMMMMMMMMMMMMMM",
"MMMMMMp  F)()()(())K  4MMMn  0)()()()))Q  $MMMMMMMMMMMMMMMMMMMMM",
"MMMMMMm  O))()(()))X  mMMMM@  E)())()))1  fMMMMMMMMMMMMMMMMMMMmM",
"MMMMMMM3  :^)))))(6  3MMMMMg  XE))))))e  XMMMMMMMMMmMMMMMMMMMMMM",
"MMMMMMMMO  obE~WV+  XMMMMMMM3   lY~WA-   gMMMMMMMMMMMMMMMMMMMMMM",
"MMMMMMMMM$         @mMMMMMMMM3          fMMMMMMMMMMMMMMMMMMMMMMM",
"MMMMMMMMMM5.      iMMMMMMMMMMMf@      <nMMMMMMMMMMMMMMMMMMMMMMMM",
"MMMMMMMMMMMMgipigMMMMMMMMMMMMMMMnpa5dmMMMMMMMMMMMMMMMMMMMMMMMMMM",
"MMMMMMMMMMMMMMMMMMMMMMMMMMMMMMMMMMMMMMMMMMMMMMMMMMMMMMMMMMMMMMMM",
"MMMp$XXX@oXXX$X@@XXXXXXXXXXoXXXXX$X@@XOXXXX@o@3mMMMMMMMMMMMMMMMM",
"Mm@                                             dMMMMMMMMMMMMg4n",
"M.   ;=;-@$@$@@$=;--;&$@@%@$@@$-;&&;@%@@$@$@@X   nMMMMMMMMMn>  @",
"i  $!))))))))))))))))))))))))))))))))))))))))/v. @MMMMMMMm<    X",
"X o()))))))))))))))))))))))))))))))))))))))))))q  mMMMMm5    . $",
". 0))()())/)(()()(()()())(((()())()()(()()(()()U  gMMM4.   OGe @",
". r)()(()()())())()()(()())()()())()(()()(()/))I  mMdX   .c/)t $",
". 0))(()()())))))))))))))()))))))))))))))()()))L  4<    t~)))w $",
". w)(()()()~vklxklllxkzllxlzlkxkzlkxkllV()/)(()I      r!)))))9 @",
". 0)()()(()7                            C)))())L    6R))()())q $",
". w))()(())V                           .T))()()P  ;K)))()(())0 @",
". 0)()(()())!WWQEQEQEEQEEQEQEWEWEEWQEQE~)(((())P  H)))())((()0 @",
". 0))(()()()))))))))))))))))))))))))))))(()()()L  D)(()(()())r $",
". q))()()(()()(()()(()()(()()(()()(()((())/)(()I  A)()(()()))9 @",
". 9)()/)(()()(((/)(()/))()()(()()(()()(()/))())L  Z))(()()(()w $",
". a))()(()()(()()(()()(()()(()()(()()(()()(()/)I  S)(()()(()(0 @",
"..w)()(()()(()())()()(()()(()()(()()(()()(()())I  A)))/)(()()0 $",
". 0))(()()(()()(()/)())/((()()(()/)(()()(()()()L  S))()(()())r $",
". w))()()(()()(()()(()()(()()(()()(()()(()()(()I  A)()(()/)))9 @",
". 9)()()(()/)(((()(()()())/)(()()(()()(()/)(())L  C))(()()(()q $",
". w))()(()()(()())()/)(()/))((()(()()(()()(()()P  G)(()()(())0 @",
". 0)()(()()(()()(()()(()()(()()(()()(()()(()())P  F)))()(()()0 @",
". 0))(()()(()()(()()(()()(()/)(()()())/)())/)()P  =J)))(()())r $",
". w))()()(()()(()/)(()())()())()()(()/)(()()(()I    2U)))()))9 @",
". 0)()/)(()()(()()(()/)(()/)(()()(()()(()()(())L      0E)))()q $",
". r))()(()/)(()()(()()(()()(()()(()()())()(()()I  p>    u~)))q @",
". e)()(()()(()/)(()()(()()(()/))))/)())/)(()())I  mMf@   .v()r $",
". 0)))()())()())()()(()()(()()(()/))()()(()()()I  gMMMpX   #Jh $",
"@ @))))))))))))))))))))))))))))))))))))))))))))j  mMMMMMi.     @",
"i  2~)))))))))))))))))))))))))))))))))))))))))S  $MMMMMMMm4    @",
"MX   $>$>$$$$2111:21:1:2::1:2:11:2::1:21:1121@   nMMMMMMMMMm3  @",
"MM$                     .                      .gMMMMMMMMMMMMn3n",
"MMMa>$@$@@$@$@@$@$@$$@$>@     X%$@@$@$@$$@$@@>4mMMMMMMMMMMMMMMMM",
"MMMMMMMMMMMMMMMMMMMMMMMM>. @  .nMMMMMMMMMMMMMMMMMMMMMMMMMMMMMMMM",
"MMMMMMMMMMMMMMMMMMMMMMM3  @Mg  XmMMMMMMMMMMMMMMMMMMMMMMMMMMMMMMM",
"MMMMMMMMMMMMMMMMMMMMMM4  XmMM4  XMMMMMMMMMMMMmMMMMMMMMMMMMMMMMMM",
"MMMMMMMMMMMMMMMMMMMMMp   nMMMM<  $MMMMMMMMMMMMMMMMMMMMMMMMMMMMMM",
"MMMMMMMMMMMMMMMMMMMMg   gMMMMMM$  >MMMMMMMMMMMMMMMMMMMMMMMMMMMMM",
"MMMMMMMMMMMMMMMMMMMm   aMMMMMMMM@  3MMMMMMMMMMMMMMMMMMMMMMMMMMMM",
"MMMMMMMMMMMMMMMMMMm.  5MMMMMMMMMm.  iMMMMMMMMMMMMMMmMMMMMMMMMMMM",
"MMMMMMMMMMMMMMMMMM@  <MMMMMMMMMMMn   dMMMMMMMMMMMMMMMMMMMMMMMMMM",
"MMMMMMMMMMMMMMMMM%  >MMMMMMMMMMMMMg   gMMMMMMMMMMMMMMMMMMMMMMMMM",
"MMMMMMMMMMMMMMMMg  @MMMMMMMMMMMMMMMd  $MMMMMMMMMMMMMMMMMMMMMMMMM",
"MMMMMMMMMMMMMMMMM>$MMMMMMMMMMMMMMMMMp@dMMMMMMMMMMMMMMMMMMMMMMMMM",
"MMMMMMMMMMMMMMMMMMMMMMMMMMMMMMMMMMMMMMMMMMMMMMMMMMMMMMMMMMMMMMMM"
};
