/* XPM */
static char *_551673266574[] = {
/* columns rows colors chars-per-pixel */
"64 64 226 2 ",
"   c black",
".  c #010100",
"X  c #010101",
"o  c #010202",
"O  c #020202",
"+  c #030302",
"@  c #020303",
"#  c gray1",
"$  c #020304",
"%  c #040404",
"&  c gray2",
"*  c #040607",
"=  c #060606",
"-  c #070707",
";  c #040708",
":  c #050809",
">  c #06090A",
",  c #070B0D",
"<  c gray3",
"1  c #090909",
"2  c #080A0B",
"3  c gray4",
"4  c #0B0B0A",
"5  c #0B0B0B",
"6  c #080C0E",
"7  c #0C0C0C",
"8  c #0D0D0C",
"9  c gray5",
"0  c #0E0E0D",
"q  c #0E0E0E",
"w  c gray6",
"e  c #10100F",
"r  c #0B1113",
"t  c #0C1113",
"y  c #0B1114",
"u  c #0B1214",
"i  c #0C1214",
"p  c #0D1214",
"a  c #0D1315",
"s  c #0D1416",
"d  c #0D1417",
"f  c #0E1416",
"g  c #0F1416",
"h  c #0E1417",
"j  c #0F171A",
"k  c #101010",
"l  c #111111",
"z  c #121211",
"x  c gray7",
"c  c #131313",
"v  c #141413",
"b  c gray8",
"n  c #151515",
"m  c #161615",
"M  c gray9",
"N  c #11181B",
"B  c #10191C",
"V  c #121A1C",
"C  c #121A1D",
"Z  c #111A1E",
"A  c #121A1E",
"S  c #181818",
"D  c #191919",
"F  c #1A1A19",
"G  c #1B1B1A",
"H  c #1B1B1B",
"J  c gray11",
"K  c #1D1D1D",
"L  c #1E1E1E",
"P  c gray12",
"I  c #20201F",
"U  c #131C20",
"Y  c #131E22",
"T  c #151F22",
"R  c #152024",
"E  c #172429",
"W  c #192428",
"Q  c #192529",
"!  c #18252A",
"~  c #19252A",
"^  c #1A252A",
"/  c #1B262A",
"(  c #1B272B",
")  c #19262C",
"_  c #1A272C",
"`  c #1A272D",
"'  c #1B272D",
"]  c #1C272C",
"[  c #1A282D",
"{  c #1C282C",
"}  c #1C282D",
"|  c #1D2A2F",
" . c #1E2A2E",
".. c #1C2A30",
"X. c #1C2B31",
"o. c #1E2C31",
"O. c #1F2E34",
"+. c #202020",
"@. c gray13",
"#. c #222222",
"$. c #232323",
"%. c #242423",
"&. c gray14",
"*. c #252524",
"=. c #252525",
"-. c gray15",
";. c #272726",
":. c #272727",
">. c #282827",
",. c #282828",
"<. c #292928",
"1. c gray16",
"2. c #2A2A29",
"3. c #2A2A2A",
"4. c #2B2B2A",
"5. c gray17",
"6. c #2C2C2B",
"7. c #2C2C2C",
"8. c #2D2D2D",
"9. c gray18",
"0. c #2F2F2E",
"q. c #2F2F2F",
"w. c #202D32",
"e. c #212F34",
"r. c #203037",
"t. c #203137",
"y. c #213138",
"u. c #213238",
"i. c #223239",
"p. c #233339",
"a. c #23333A",
"s. c #23343B",
"d. c #25353B",
"f. c #22343C",
"g. c #24353C",
"h. c #24363D",
"j. c #26373E",
"k. c #28383F",
"l. c gray19",
"z. c #313130",
"x. c #313131",
"c. c #323231",
"v. c #323232",
"b. c #333332",
"n. c gray20",
"m. c #343434",
"M. c #353534",
"N. c #353535",
"B. c gray21",
"V. c #373736",
"C. c #373737",
"Z. c gray22",
"A. c #393939",
"S. c #3A3A3A",
"D. c #3B3B3A",
"F. c gray23",
"G. c #263840",
"H. c #273940",
"J. c #273B43",
"K. c #283A42",
"L. c #283C43",
"P. c #283C44",
"I. c #293D45",
"U. c #293E46",
"Y. c #2A3F48",
"T. c #2B4149",
"R. c #2C4149",
"E. c #2E4249",
"W. c #2E424A",
"Q. c #2F444B",
"!. c #2D444C",
"~. c #2F444C",
"^. c #2E454E",
"/. c #30464F",
"(. c #2E4650",
"). c #314852",
"_. c #314952",
"`. c #314953",
"'. c #314A54",
"]. c #324C56",
"[. c #334C57",
"{. c #344D57",
"}. c #354D57",
"|. c #354E58",
" X c #364F59",
".X c #344F5A",
"XX c #354F5A",
"oX c #36505A",
"OX c #37505A",
"+X c #36505B",
"@X c #37525C",
"#X c #37525D",
"$X c #38515B",
"%X c #38535D",
"&X c #38535E",
"*X c #395560",
"=X c #395561",
"-X c #395763",
";X c #3A5762",
":X c #3A5763",
">X c #3B5763",
",X c #3B5863",
"<X c #3A5864",
"1X c #3B5864",
"2X c #3B5964",
"3X c #3C5965",
"4X c #3C5A65",
"5X c #3C5A66",
"6X c #3C5B67",
"7X c #3D5C69",
"8X c #3D5D6A",
"9X c #3E5D6A",
"0X c #3F5E6A",
"qX c #3E5E6B",
"wX c #40606D",
"eX c #40606E",
"rX c #40616E",
"tX c #416370",
"yX c #416472",
"uX c #426472",
"iX c #426573",
"pX c #436573",
"aX c #436574",
"sX c #436674",
"dX c #436675",
"fX c #436775",
/* pixels */
"F.F.F.F.F.F.F.F.F.F.F.F.F.F.F.F.F.F.F.F.F.F.F.F.F.F.F.F.F.F.F.F.F.F.F.F.F.F.F.F.F.F.F.F.F.F.F.F.F.F.F.F.F.F.F.F.F.F.F.F.F.F.F.F.",
"F.F.F.F.F.F.F.F.F.F.F.6.b 3 & 3 M :.F.F.F.F.F.F.F.F.F.F.F.F.F.0.b 3 3 & c +.V.F.F.F.F.F.F.F.F.F.F.F.Z.F.F.F.F.F.F.F.F.F.Z.F.F.F.",
"F.F.F.F.F.F.F.F.F.v.q               3 q.F.F.F.F.F.F.F.F.F.F.b                 &.F.F.F.F.F.F.F.F.F.F.F.F.Z.F.F.F.F.F.F.F.F.F.F.F.",
"F.F.F.F.F.F.F.F.5.        q e q         5.F.F.F.F.F.V.F.V.&       3 c k         F F.F.F.F.F.F.F.F.F.F.F.F.F.F.F.Z.F.F.F.F.F.F.F.",
"F.F.F.F.F.F.F.V.      E 2XfXfXfX2Xo.      v.F.F.F.F.F.F.&     j XXfXfXfXuXK.      $.F.F.F.Z.F.F.F.F.F.F.F.F.F.F.F.F.F.F.Z.F.F.F.",
"F.F.F.F.F.F.F.q     f.fXfXfXfXfXfXfXP.    & F.F.F.F.F.+.    A fXfXfXfXfXfXfXXX      C.F.F.F.F.F.F.F.F.F.F.F.F.F.F.F.F.F.F.F.F.F.",
"F.F.F.Z.F.F.0.    A fXfXfXuXfXuXfXfXfXT     0.F.F.F.V.    ; uXfXfXuXfXuXuXfXfXd.    F F.F.F.F.F.Z.F.F.F.F.Z.F.F.F.F.Z.F.F.F.F.F.",
"F.F.F.F.F.F.F     #XfXaXuXfXfXuXfXuXfX2X    K F.F.F.5.    K.fXfXuXfXuXfXfXuXfXuX    3 F.F.F.F.F.F.F.F.F.F.F.F.F.F.F.F.F.F.F.F.F.",
"F.F.F.F.F.F.b   & fXfXuXfXfXuXfXuXfXfXfX&   q F.F.F.5.    %XfXuXfXuXaXfXuXfXfXfXj     Z.F.F.F.F.F.F.F.F.F.F.F.F.Z.F.F.F.F.F.F.F.",
"F.F.F.F.F.F.c   6 fXfXfXuXuXfXuXfXuXfXfXj   q F.F.F.I     =XfXfXuXaXfXuXfXuXfXfXE     C.F.Z.F.F.F.F.F.F.F.F.F.F.F.F.F.F.Z.F.F.F.",
"F.F.F.F.F.F.b     rXfXfXaXfXuXfXuXfXfXuX%   c F.F.F.&.    }.fXuXaXaXuXaXfXuXfXfXp   # F.F.F.F.F.F.Z.F.F.F.F.F.F.F.F.F.F.F.F.F.F.",
"F.F.F.F.F.F.&.    ^.fXuXaXuXfXuXuXfXfX).    K F.F.F.v.    ' fXfXfXuXfXaXuXfXfX-X    q F.F.F.F.F.F.F.F.F.F.Z.F.F.F.F.F.F.F.F.F.F.",
"F.F.F.F.F.F.V.    : fXfXaXfXyXaXfXfXfX3     m.F.F.F.F.3     2XfXuXfXfXuXfXfXfXA     5.F.F.F.F.F.F.F.F.F.Z.F.F.F.F.F.F.F.F.F.F.F.",
"F.F.F.F.F.F.F.F     j rXfXfXfXfXfXuXU     F F.F.F.F.F.0.    & -XfXfXfXfXfXfX[     & F.F.F.F.F.F.F.F.F.F.F.F.F.F.Z.F.F.F.F.Z.F.F.",
"F.F.F.F.F.V.F.F.3     : H.=X6X-XP.,     & F.F.F.F.F.F.F.F       r.%X8X4XT.p       v.F.F.F.Z.F.F.F.F.Z.F.F.F.F.F.F.F.F.F.Z.F.F.F.",
"F.F.F.F.F.F.F.F.F.q                   3 V.F.F.F.F.F.F.F.F.F                     5.F.F.F.F.F.F.F.F.F.F.F.F.F.F.F.F.F.F.F.F.F.F.F.",
"F.F.F.F.F.F.F.F.F.F.+.            & +.F.F.F.F.F.F.F.F.F.F.F.5.3             c v.F.F.F.F.F.F.F.F.F.F.F.F.F.F.F.F.F.F.F.F.F.F.F.F.",
"F.F.F.F.F.F.F.F.F.F.F.F.v.+.&.+.0.F.F.F.F.F.F.F.F.F.F.F.F.F.F.F.m.&.&.+.5.F.F.F.F.F.F.F.F.F.F.F.F.F.F.F.F.F.F.F.F.Z.F.F.F.F.Z.F.",
"F.Z.F.F.F.F.F.Z.F.F.F.F.F.F.F.F.F.F.F.F.F.F.F.F.F.F.F.F.F.F.F.F.F.F.F.F.F.F.F.F.F.F.F.F.F.F.F.F.F.F.F.Z.F.F.F.F.F.F.F.F.F.F.F.F.",
"F.F.F.%.q - & & & 3 & & & 3 3 & & & 3 & & & & & 3 & & & & & & & & 3 & 3 - & 3 & & % < ; & 3 F V.F.F.F.F.F.F.F.Z.F.F.F.F.F.F.F.F.",
"F.V.3                                                                                           >.F.F.F.F.F.F.F.F.F.F.F.F.0.K v.",
"F.&       p u g r 3 q 3 q 3 3 q u g r u g p q 5 3 q 3 q 3 3 q r g i u g 3 q 3 3 q 3 q 4 3 &       b.F.F.F.F.F.F.F.F.F.v.q     3 ",
"+.    q 4XfXfXfXfXfXfXfXfXfXfXfXfXfXfXfXfXfXfXfXfXfXfXfXfXfXfXfXfXfXfXfXfXfXfXfXfXfXfXfXfXuXH.    4 F.F.F.F.F.F.F.V.F         & ",
"3   ; uXfXfXfXfXfXfXfXfXfXfXfXfXfXfXfXfXfXfXfXfXfXfXfXfXfXfXfXfXfXfXfXfXfXfXfXfXfXfXfXfXfXfXfX'     V.F.F.F.F.V.K             q ",
"    { fXfXuXaXuXaXfXuXaXfXuXfXuXfXuXuXfXuXfXuXaXfXuXfXaXuXfXuXfXuXuXfXuXfXuXuXfXuXaXaXaXfXyXfXXX    l.F.F.F.K $       : /.'   3 ",
"    [ fXuXfXaXaXfXyXfXaXfXfXfXfXfXaXfXaXfXfXaXfXuXfXaXaXfXfXfXfXfXfXfXfXfXfXfXuXfXaXuXfXuXaXfXXX    V.F.5.-       % s.uXfXo.  3 ",
"#   / fXfXuXaXfXuXfXuXfXfXfXfXfXfXfXfXfXfXfXfXfXfXfXfXfXfXfXfXfXfXfXfXfXfXfXfXfXfXuXfXuXfXaXfX].    K b         o.8XfXfXfX]   q ",
"#   ( fXfXaXaXuXfXaXaX8Xd.y.y.d.y.f.y.O.d.r.a.a.y.d.r.y.y.r.d.r.y.y.y.d.y.y.y.K.uXfXuXfXaXyXfX[.            o.-XfXfXfXfXfXE   3 ",
"#   E fXuXfXuXfXuXaXfXY                                                         P.fXfXuXuXfXfX[.        U *XfXfXuXfXuXfXfX/   q ",
"#   ' fXfXuXfXuXaXfXfXJ.                                                      $ XXfXfXfXfXuXfX}.    g ].fXfXfXuXfXfXuXfXfX/   3 ",
"#   / fXfXfXuXuXaXuXfXfX6X-X2X=X-X4X-X>X-X>X4X=X4X=X>X4X=X4X=X4X4X=X4X=X=X2X=XwXfXaXaXfXuXfXfX}.    (.fXfXfXuXfXuXfXfXuXfX/   3 ",
"#   / fXfXuXfXfXuXfXaXaXfXfXfXfXfXfXfXfXfXfXfXfXfXfXfXfXfXfXfXfXfXfXfXfXfXfXfXfXaXuXfXuXfXuXfX[.    Q.fXaXuXfXuXuXfXuXfXfX{   q ",
"$   / fXaXaXaXuXfXaXaXfXaXfXyXaXaXaXfXaXaXfXuXfXyXaXfXyXfXaXaXfXuXfXuXaXfXuXfXaXaXfXyXfXyXaXdXXX    R.fXuXfXuXuXfXuXfXaXfXE   3 ",
"    E fXfXfXuXfXyXyXaXuXfXyXaXaXyXfXyXyXaXuXfXyXaXaXuXaXyXyXaXuXfXfXaXfXuXaXaXuXaXuXaXaXyXfXdX].    Y.fXfXaXaXfXuXaXuXfXfX'   5 ",
"&   ' fXfXyXfXyXaXfXyXaXyXaXfXuXfXaXaXaXyXfXyXaXfXyXfXaXaXfXyXaXuXuXfXuXfXuXuXfXyXfXaXaXfXuXfX].    R.fXaXuXfXuXfXyXaXfXfX/   3 ",
"%   E fXaXaXaXuXfXyXfXaXyXfXyXfXaXyXfXyXaXaXaXaXuXfXyXaXfXyXfXaXfXfXuXaXaXaXfXuXfXaXuXaXuXaXfX].    Y.fXaXaXuXfXaXaXfXuXfX/   3 ",
"    / fXfXyXaXfXuXfXyXaXaXyXaXaXyXfXuXaXaXyXfXyXaXaXyXfXaXfXyXyXaXaXfXaXyXaXuXfXaXuXfXuXfXuXfX[.    R.fXfXpXfXuXuXfXuXfXfX'   q ",
"&   ' fXaXaXfXyXaXaXyXfXaXfXaXyXfXuXfXaXyXaXaXfXaXyXfXaXfXyXaXfXyXfXyXyXfXuXaXaXaXaXuXfXuXuXfXXX    R.fXuXfXaXuXfXuXfXfXfXE   3 ",
"    E fXaXfXaXfXyXaXfXaXfXyXaXaXyXfXyXaXaXaXfXaXaXaXyXaXyXaXfXyXaXaXaXfXyXfXyXaXfXuXfXaXfXfXfX].    Y.fXfXuXfXaXuXfXuXfXfX/   q ",
"&   { fXfXyXfXyXaXaXyXaXaXyXfXuXaXaXyXfXuXfXyXyXfXyXfXaXaXaXuXaXaXyXaXuXfXaXyXfXuXfXuXuXaXuXfX[.    /.fXuXaXfXuXfXuXuXfXfX/   3 ",
"#   E fXuXfXuXuXaXaXaXyXfXfXyXfXaXyXfXyXaXaXyXfXyXfXuXyXfXuXfXaXyXfXyXaXyXaXfXuXaXaXyXfXuXfXfX[.    ^.fXfXfXuXfXaXuXaXuXfX/   3 ",
"#   / fXfXfXfXfXuXfXyXaXaXyXfXaXaXfXaXfXaXyXfXuXfXaXaXfXuXaXyXaXfXaXfXaXaXaXyXfXaXyXfXaXfXfXfX].    p ).fXfXfXuXaXfXuXfXfX'   7 ",
"#   ( fXfXuXfXuXfXyXaXaXuXaXyXyXfXaXaXyXaXfXuXfXaXyXfXuXfXaXyXfXyXfXyXaXaXyXfXaXaXaXyXaXuXuXfXXX        A XXfXfXfXuXfXfXfXE   3 ",
"#   / fXaXfXuXaXaXyXfXyXfXaXaXfXyXaXyXaXaXyXaXaXaXaXuXfXaXyXfXuXaXaXyXfXaXfXyXyXfXyXfXaXuXfXfX].            / ,XfXfXaXaXfX/   q ",
"    ' fXfXuXfXaXaXfXyXfXyXaXaXaXfXaXaXaXyXaXyXaXfXuXaXuXfXfXuXfXaXyXaXuXfXaXaXfXyXaXyXaXfXyXfXXX    &.c         O.qXfXfXfX/   3 ",
"$   ' fXuXfXaXuXaXuXaXaXaXfXyXfXyXyXfXuXfXaXyXfXuXfXaXaXfXuXfXuXaXfXyXfXaXyXaXuXfXaXaXaXuXfXfXXX    V.F.5.3       % f.fXfXo.  3 ",
"&   ' fXfXaXuXfXuXfXyXaXfXyXaXyXaXfXyXfXaXyXfXaXfXuXuXfXuXfXuXuXfXyXaXaXyXfXuXfXyXaXfXyXaXaXfX[.    0.F.F.F.&.&       7 ).w.  q ",
"3   ; fXfXfXfXfXfXfXfXfXfXfXfXfXfXfXfXfXfXfXfXfXfXfXfXfXfXfXfXfXfXfXfXfXfXfXfXfXfXfXfXfXfXfXfXO.    V.F.F.F.F.F.$.            3 ",
"+.    T 8XfXfXfXfXfXfXfXfXfXfXfXfXfXfXfXfXfXfXfXfXfXfXfXfXfXfXfXfXfXfXfXfXfXfXfXfXfXfXfXfXfXR.    q F.F.F.F.F.F.F.V.K         3 ",
"F.&       q w q w q q q q A j j A j N j j N j N j j N j A N j N j A j j N j A j j N j A j 7       v.F.F.F.F.F.F.F.F.F.n.F     3 ",
"F.Z.3                                                                                         + 0.F.F.F.F.F.Z.F.F.F.F.F.F.v.F v.",
"F.F.D.:.c q 3 4 3 3 q 3 q 3 3 q 3 q 3 5 q 3 q c q           & q q 3 3 q 3 q 3 3 q 3 q 3 3 c J Z.F.F.F.F.F.F.F.F.F.F.Z.F.F.F.F.F.",
"F.F.F.F.F.F.F.F.F.F.F.F.F.F.F.F.F.F.F.F.F.F.F.F.c     3     & v.F.F.F.F.F.F.F.F.F.F.F.F.F.F.F.F.F.F.F.F.F.F.F.F.F.F.F.F.F.F.F.F.",
"F.F.F.F.F.F.F.F.F.F.F.F.F.F.F.F.F.F.F.F.F.F.F.F     3 F.0.    & V.F.F.F.F.F.F.F.F.F.F.F.F.F.D.F.F.F.F.V.F.F.F.F.F.F.F.F.F.F.F.F.",
"F.F.F.F.F.F.F.F.F.F.F.F.F.F.F.F.F.F.F.F.F.F.K     & Z.F.F.K       F.F.F.F.F.F.F.F.F.F.F.F.F.F.F.F.F.F.F.F.F.F.F.F.F.F.F.F.F.F.F.",
"F.F.F.F.F.F.F.F.F.F.F.F.F.F.F.F.F.F.F.F.F.&.      m.F.F.F.F.b     3 F.F.F.F.F.F.F.F.F.F.F.F.F.F.F.F.F.F.F.F.F.F.F.F.F.Z.F.F.F.F.",
"F.F.F.Z.F.F.F.F.C.F.F.F.F.C.F.F.F.F.F.F.0.      5.F.F.F.F.F.F.5     c F.F.F.F.F.F.F.F.Z.F.F.F.F.Z.F.F.F.F.F.F.F.F.F.F.F.F.F.F.F.",
"F.F.F.F.F.F.F.F.F.F.F.F.F.F.F.F.F.F.F.v.      &.F.F.F.F.F.F.F.F.3     J F.F.F.F.F.F.F.F.F.F.F.Z.F.F.F.F.Z.F.F.F.F.Z.F.F.F.F.Z.F.",
"F.F.F.F.F.F.Z.F.F.F.F.F.F.F.F.F.F.F.F.      +.F.F.F.F.F.F.F.F.F.V.$     +.D.F.F.F.F.F.F.F.F.F.F.F.F.F.F.F.F.F.F.F.F.F.F.F.F.F.F.",
"F.F.F.F.F.F.F.F.F.F.F.F.F.F.F.F.F.F.3     b F.F.F.F.F.F.F.F.Z.F.F.v.      &.F.F.Z.F.F.F.F.F.F.F.F.F.F.F.F.F.F.F.F.F.F.F.F.F.F.F.",
"F.Z.F.F.F.F.F.F.F.F.F.F.F.F.F.F.F.q     q F.F.F.F.F.F.F.F.F.F.F.F.F.0.      0.F.F.F.F.F.F.F.F.F.F.F.F.F.F.F.Z.F.F.F.F.Z.F.F.Z.F.",
"F.F.F.F.F.F.F.F.F.F.F.F.F.F.F.F.0.    3 F.F.F.F.F.F.F.F.F.F.F.F.F.F.F.5.    3 F.F.F.F.F.F.F.F.F.F.F.F.F.F.F.F.F.F.F.F.F.F.F.F.F.",
"F.F.F.F.F.F.F.Z.F.F.F.F.C.F.F.F.V.c q F.F.F.F.F.F.Z.F.F.F.F.F.F.F.F.F.F.&.3 5.F.F.F.F.F.F.Z.F.F.F.F.Z.F.F.F.F.Z.F.F.F.F.F.F.F.F.",
"F.F.F.F.F.F.F.F.F.F.F.F.F.F.F.F.F.F.F.F.F.F.F.F.F.F.F.F.F.F.F.F.F.F.F.F.D.F.F.F.F.F.F.F.F.F.F.F.F.F.F.F.F.F.F.F.F.F.F.F.F.F.F.F."
};
