/* XPM */
static char *_551673269239[] = {
/* columns rows colors chars-per-pixel */
"64 64 68 1 ",
"  c gray1",
". c #020304",
"X c #020404",
"o c #030506",
"O c #040404",
"+ c #040606",
"@ c #0E0E0E",
"# c #0F171B",
"$ c #161616",
"% c #10181B",
"& c #10191D",
"* c #111B1E",
"= c #141E22",
"- c #1D2C32",
"; c #1F2F36",
": c #1F3137",
"> c gray15",
", c #282828",
"< c gray17",
"1 c #2D2D2D",
"2 c #21333A",
"3 c #22353C",
"4 c #23373E",
"5 c gray19",
"6 c #323232",
"7 c #253940",
"8 c #253A42",
"9 c #273B43",
"0 c #273B44",
"q c #273C44",
"w c #283E46",
"e c #293F48",
"r c #2A4049",
"t c #2C434C",
"y c #2D454E",
"u c #2E4650",
"i c #2F4852",
"p c #304A54",
"a c #314B56",
"s c #334E58",
"d c #35515C",
"f c #36525E",
"g c #375460",
"h c #395764",
"j c gray38",
"k c gray39",
"l c #646464",
"z c #676767",
"x c #686868",
"c c #6A6A6A",
"v c #777777",
"b c #4A7281",
"n c #4A7383",
"m c #4C7686",
"M c #4D7788",
"N c #4E798A",
"B c #4F7A8B",
"V c #5A8B9E",
"C c #6CA5BC",
"Z c #6FAAC2",
"A c #72AEC7",
"S c #73AFC8",
"D c #74B1CA",
"F c #75B3CC",
"G c #76B3CD",
"H c #78B7D0",
"J c #78B7D1",
"K c SkyBlue",
/* pixels */
"vvvvvvvvvvvvvvvvvvvvvvvvvvvvk>     >kvvvvvvvvvvvvvvvvvvvvvvvvvvv",
"vvvvvvvvvvvvvvvvvvvvvvvvvvk> . gCgXO >kvvvvvvvvvvvvvvvvvvvvvvvvv",
"vvvvvvvvvvvvvvvvvvvvvvvvk>  .hJKKKJfX  >kvvvvvvvvvvvvvvvvvvvvvvv",
"vvvvvvvvvvvvvvvvvvvvvvk<   fJKKKKKKKJfX  <kvvvvvvvvvvvvvvvvvvvvv",
"vvvvvvvvvvvvvvvvvvvvk<   fFKKKKKKKKKKKDfX  <zvvvvvvvvvvvvvvvvvvv",
"vvvvvvvvvvvvvvvvvvz<   fFKKKKKKKKKKKKKKKGf   <kvvvvvvvvvvvvvvvvv",
"vvvvvvvvvvvvvvvvk<   sFKKKKKKKKKKKKKKKKKKKGs   <zvvvvvvvvvvvvvvv",
"vvvvvvvvvvvvvvz1   sDKKKKKKKKKKKKKKKKKKKKKKKGp O <zvvvvvvvvvvvvv",
"vvvvvvvvvvvvz<   pDKKKKKKKKKKKKKKKKKKKKKKKKKKKDs.  1xvvvvvvvvvvv",
"vvvvvvvvvvz1   pDKKKKKKKKKKKKKKKKKKKKKKKKKKKKKKKSi   1zvvvvvvvvv",
"vvvvvvvvx1  .iSKKKKKKKKKKKKKKKKKKKKKKKKKKKKKKKKKKKAi   1zvvvvvvv",
"vvvvvvx1   iSKKKKKKKKKKKKKKKKKKKKKKKKKKKKKKKKKKKKKKKAi   <zvvvvv",
"vvvvx5   uAKKKKKKKKKKKKKKKKKKKKKKKKKKKKKKKKKKKKKKKKKKKAy   1xvvv",
"vvx5   uZKKKKKKKKKKKKKKKKKKKKKKKKKKKKKKKKKKKKKKKKKKKKKKKZy  O5cv",
"x5O .yZKKKKKKKKKKKKKKKKKKKKKKKKKKKKKKKKKKKKKKKKKKKKKKKKKKKZy  X5",
"@  tZKKKKKKKKKKKKKKKKKKKKKKKKKKKKKKKKKKKKKKKKKKKKKKKKKKKKKKKZ>OO",
"   tZKKKKKKKKKKKKKKKKKKKKKKKKKKKKKKKKKKKKKKKKKKKKKKKKKKKKKKKZ>  ",
"     tZKKKKKKKKKKKKKKKKKKKKKKKKKKKKKKKKKKKKKKKKKKKKKKKKKKKZ>.   ",
"  q=   yZKKKKKKKKKKKKKKKKKKKKKKKKKKKKKKKKKKKKKKKKKKKKKKKZ> X 4  ",
"  uiq*   uSKKKKKKKKKKKKKKKKKKKKKKKKKKKKKKKKKKKKKKKKKKKAy   3BV  ",
"  iiiie=.  uDKKKKKKKKKKKKKKKKKKKKKKKKKKKKKKKKKKKKKKKSi   4MVVV  ",
"  iiiiiue=  .pSKKKKKKKKKKKKKKKKKKKKKKKKKKKKKKKKKKKSi   9NVVVVV  ",
"  iiiiiiiiq=   iDKKKKKKKKKKKKKKKKKKKKKKKKKKKKKKKSi   3MVVVVVVV  ",
"  iiiiiiiiiu9*  .sFKKKKKKKKKKKKKKKKKKKKKKKKKKKFi   2mVVVVVVVVV  ",
"  yuiiiiiiiiiiq*   sFKKKKKKKKKKKKKKKKKKKKKKKFs   2mVVVVVVVVVVV  ",
"  iiiiiiiiiiiiiiq*  .sFKKKKKKKKKKKKKKKKKKKFs   2mVVVVVVVVVVVVV  ",
"  iiiiiiiiiiiiiiii9&  XsFKKKKKKKKKKKKKKKDf   :mVVVVVVVVVVVVVVV  ",
"  iiiiiiiiiiiiiiiiiy9* .ogFKKKKKKKKKKKFg   :mVVVVVVVVVVVVVVVVV  ",
"  iiiiiiiiiiiiiiiiiiiiq*  .fJKKKKKKKJf.  ;mVVVVVVVVVVVVVVVVVVV  ",
"  iiiiiiiiiiiiiiiiiiiiii0#  XgJKKKJf.  ;bVVVVVVVVVVVVVVVVVVVVV  ",
"  yiiiiiiiiiiiiiiiiiiiiiup0#  XgCg   ;bVVVVVVVVVVVVVVVVVVVVVVV  ",
"  uiiiiiiiiiiiiiiiiiiiiipuup0#  OO -bVVVVVVVVVVVVVVVVVVVVVVVVV  ",
"  iiiiiiiiiiiiiiiiiiiiiiiiiiiu9 .-hVVVVVVVVVVVVVVVVVVVVVVVVVVV  ",
" Xiiiiiiiiiiiiiiiiiiiiiiiiiiiuu  VVVVVVVVVVVVVVVVVVVVVVVVVVVVV  ",
"  iiiiiiiiiiiiiiiiiiiiiiiiiiiiu  VVVVVVVVVVVVVVVVVVVVVVVVVVVVV  ",
"  iiiiiiiiiiiiiiiiiiiiiiiiiiiiy  VVVVVVVVVVVVVVVVVVVVVVVVVVVVV  ",
"  yuiiiiiiiiiiiiiiiiiiiiiiiipup OVVVVVVVVVVVVVVVVVVVVVVVVVVVVV  ",
"  upiiiiiiiiiiiiiiiiiiiiiiiiupu OVVVVVVVVVVVVVVVVVVVVVVVVVVVVV  ",
"  puiiiiiiiiiiiiiiiiiiiiiiiipuy XVVVVVVVVVVVVVVVVVVVVVVVVVVVVV  ",
"  upiiiiiiiiiiiiiiiiiiiiiiiiupu XVVVVVVVVVVVVVVVVVVVVVVVVVVVVV  ",
"  pupupuiiiiiiiiiiiiiiiipupupuu OVVVVVVVVVVVVVVVVVVVVVVVVVVVVV  ",
"  upupupiiiiiiiiiiiiiiiiupupupy XVVVVVVVVVVVVVVVVVVVVVVVVVVVVV  ",
"  yupupuiiiiiiiiiiiiiiiipupupup OVVVVVVVVVVVVVVVVVVVVVVVVVVVVV  ",
"  upupupiiiiiiiiiiiiiiiiupupupu .VVVVVVVVVVVVVVVVVVVVVVVVVVVVV  ",
"  iipupuiiiiiiiiiiiiiiiipupupuy  VVVVVVVVVVVVVVVVVVVVVVVVVVVVV  ",
"  iiupupiiiiiiiiiiiiiiiiupupupu  VVVVVVVVVVVVVVVVVVVVVVVVVVVVV  ",
"  9ypupuiiiiiiiiiiiiiiiipupupuu  VVVVVVVVVVVVVVVVVVVVVVVVVVVVh  ",
"$  #9pupiiiiiiiiiiiiiiiiupupupy  VVVVVVVVVVVVVVVVVVVVVVVVVVm9  $",
"z5   #9iiiiiiiiiiiiiiiiiiiiipup  VVVVVVVVVVVVVVVVVVVVVVVVb;   5x",
"vvx1   #9iiiiiiiiiiiiiiiiiiiupu  VVVVVVVVVVVVVVVVVVVVVVm;. X1xvv",
"vvvvx5   #qiiiiiiiiiiiiiiiiipuy  VVVVVVVVVVVVVVVVVVVVb:   5xvvvv",
"vvvvvvx5   %qiiiiiiiiiiiiiiiupu  VVVVVVVVVVVVVVVVVVN;   1xvvvvvv",
"vvvvvvvvz1   &0uuiiiiiiiiiiiiiu  VVVVVVVVVVVVVVVVm:   1zvvvvvvvv",
"vvvvvvvvvvz1   *0uiiiiiiiiiiiiy  VVVVVVVVVVVVVVM2   1zvvvvvvvvvv",
"vvvvvvvvvvvvz<   *quiiiiiiiiiii  VVVVVVVVVVVVN:   <zvvvvvvvvvvvv",
"vvvvvvvvvvvvvvz< OX=riiuiiiiiiiX VVVVVVVVVVM:   <zvvvvvvvvvvvvvv",
"vvvvvvvvvvvvvvvvk<   *0uiiiiupy  VVVVVVVVN3   <zvvvvvvvvvvvvvvvv",
"vvvvvvvvvvvvvvvvvvk<   &eiiipuu  VVVVVVN2 O <kvvvvvvvvvvvvvvvvvv",
"vvvvvvvvvvvvvvvvvvvvk<   =euupu  VVVVM3O  1xvvvvvvvvvvvvvvvvvvvv",
"vvvvvvvvvvvvvvvvvvvvvvk<  O=ruy  VVN9  X<zvvvvvvvvvvvvvvvvvvvvvv",
"vvvvvvvvvvvvvvvvvvvvvvvvk>   *w  B4   >kvvvvvvvvvvvvvvvvvvvvvvvv",
"vvvvvvvvvvvvvvvvvvvvvvvvvvk>        >kvvvvvvvvvvvvvvvvvvvvvvvvvv",
"vvvvvvvvvvvvvvvvvvvvvvvvvvvvj>    >kvvvvvvvvvvvvvvvvvvvvvvvvvvvv",
"vvvvvvvvvvvvvvvvvvvvvvvvvvvvvvj$$kvvvvvvvvvvvvvvvvvvvvvvvvvvvvvv"
};
