/* XPM */
static char *_551673272066[] = {
/* columns rows colors chars-per-pixel */
"64 64 48 1 ",
"  c #010101",
". c #010203",
"X c #070707",
"o c #070B0D",
"O c #0B0B0B",
"+ c #080C0E",
"@ c #080D0E",
"# c #080D0F",
"$ c #0C0C0C",
"% c #0A0F11",
"& c #0E1619",
"* c #0F171B",
"= c #0F181B",
"- c #131313",
"; c gray9",
": c #10191D",
"> c #111B1F",
", c #181818",
"< c #121C20",
"1 c #131E22",
"2 c #141F23",
"3 c #141F24",
"4 c #162126",
"5 c #172328",
"6 c #172429",
"7 c #18252A",
"8 c #19272C",
"9 c #1B292F",
"0 c #1B2A30",
"q c #1C2B32",
"w c gray19",
"e c gray20",
"r c #343434",
"t c #353535",
"y c #3A3A3A",
"u c gray23",
"i c #263B43",
"p c #263B44",
"a c #273C44",
"s c #273C45",
"d c #2D454F",
"f c #36525E",
"g c #375561",
"h c #395763",
"j c #395764",
"k c #3A5966",
"l c #3C5B68",
"z c #436775",
/* pixels */
"yuuuuuuuuuuuuuuuuuuuuuuuuuuue-     -wyyuyyyuuuuuuuuuuuuuuuuuuuuy",
"yyuuuuuuuuuuuuuuuuuuuuyyuue;   9g9   -ruyyuuuuuuuuuuuuuuuuuuuuuu",
"uuuuuuuuuuuuuuuuuuuyuuuye-   0lzzzl0   -eyyyuuuuuuuuuuuuuuuuuuuu",
"uuuuuuuuuuuuuuuuuuuyuue;   0lzzzzzzzl0   ;eyuuuuuuuuuuuuuuuuuuuu",
"uuuuuuuuuuuuuuuuyyuye;   9lzzzzzzzzzzzl9   ,eyyyuuuuuuuuuuuuuuuu",
"uuuuuuuuuuuuuuuuyye;   8kzzzzzzzzzzzzzzzk9   ;ryuuuuuuuuuuuuuuuu",
"uuuuuuuuuuuuuyuue;   8kzzzzzzzzzzzzzzzzzzzk8   ;tyyuuuuuuuuuuuuu",
"uuuuuuuuuuuuuye,   7kzzzzzzzzzzzzzzzzzzzzzzzk7   ;eyuuuuuuuuuuuu",
"uuuuuuuuuuyyt;   7kzzzzzzzzzzzzzzzzzzzzzzzzzzzj8   ,tyyyuuuuuuuu",
"uuuuuuuyuue;   6kzzzzzzzzzzzzzzzzzzzzzzzzzzzzzzzj6   ,tyuuuuuuuu",
"uuuuuuyyt,   7jzzzzzzzzzzzzzzzzzzzzzzzzzzzzzzzzzzzh6   ;tyuuuuuu",
"uuuuuut;   6jzzzzzzzzzzzzzzzzzzzzzzzzzzzzzzzzzzzzzzzh6   ,tyuuuu",
"uuuue,   6hzzzzzzzzzzzzzzzzzzzzzzzzzzzzzzzzzzzzzzzzzzzj6   ,tuuu",
"uut,   5gzzzzzzzzzzzzzzzzzzzzzzzzzzzzzzzzzzzzzzzzzzzzzzzg5   ,tu",
"t,   4hzzzzzzzzzzzzzzzzzzzzzzzzzzzzzzzzzzzzzzzzzzzzzzzzzzzg4   ,",
"O  4gzzzzzzzzzzzzzzzzzzzzzzzzzzzzzzzzzzzzzzzzzzzzzzzzzzzzzzzg-  ",
"   4gzzzzzzzzzzzzzzzzzzzzzzzzzzzzzzzzzzzzzzzzzzzzzzzzzzzzzzzg-  ",
"     4gzzzzzzzzzzzzzzzzzzzzzzzzzzzzzzzzzzzzzzzzzzzzzzzzzzzh-    ",
"  1%   5gzzzzzzzzzzzzzzzzzzzzzzzzzzzzzzzzzzzzzzzzzzzzzzzg-   1  ",
"  662#   6hzzzzzzzzzzzzzzzzzzzzzzzzzzzzzzzzzzzzzzzzzzzh4   1pd  ",
"  66663%   6jzzzzzzzzzzzzzzzzzzzzzzzzzzzzzzzzzzzzzzzj6   :sddd  ",
"  6666651%   7jzzzzzzzzzzzzzzzzzzzzzzzzzzzzzzzzzzzk6   1sddddd  ",
"  666666661%   7kzzzzzzzzzzzzzzzzzzzzzzzzzzzzzzzj8   :sddddddd  ",
"  66666666652#   8kzzzzzzzzzzzzzzzzzzzzzzzzzzzk8   =pddddddddd  ",
"  5666666666661#   8kzzzzzzzzzzzzzzzzzzzzzzzk8   =sddddddddddd  ",
"  666666666666661#   8kzzzzzzzzzzzzzzzzzzzk8   :pddddddddddddd  ",
"  66666666666666661#   7kzzzzzzzzzzzzzzzk9   =pddddddddddddddd  ",
"  6666666666666666651#   9lzzzzzzzzzzzk9   =iddddddddddddddddd  ",
"  666666666666666666662#   0lzzzzzzzl0   *iddddddddddddddddddd  ",
"  66666666666666666666661#   0lzzzk9   *iddddddddddddddddddddd  ",
"  5666666666666666666666561#   0f0   *iddddddddddddddddddddddd  ",
"  666666666666666666666666661+     *iddddddddddddddddddddddddd  ",
"  66666666666666666666666666661  =tddddddddddddddddddddddddddd  ",
"  66666666666666666666666666655  ddddddddddddddddddddddddddddd  ",
"  66666666666666666666666666666  ddddddddddddddddddddddddddddd  ",
"  66666666666666666666666666665  ddddddddddddddddddddddddddddd  ",
"  56666666666666666666666666666  ddddddddddddddddddddddddddddd  ",
"  66666666666666666666666666666 .ddddddddddddddddddddddddddddd  ",
"  66666666666666666666666666665  ddddddddddddddddddddddddddddd  ",
"  66666666666666666666666666666  ddddddddddddddddddddddddddddd  ",
"  66666666666666666666666666666  ddddddddddddddddddddddddddddd  ",
"  66666666666666666666666666665  ddddddddddddddddddddddddddddd  ",
"  56666666666666666666666666666  ddddddddddddddddddddddddddddd  ",
"  66666666666666666666666666666  ddddddddddddddddddddddddddddd  ",
"  66666666666666666666666666665  ddddddddddddddddddddddddddddd  ",
"  66666666666666666666666666666  ddddddddddddddddddddddddddddd  ",
"  14666666666666666666666666666  ddddddddddddddddddddddddddddp  ",
"O  #166666666666666666666666665  dddddddddddddddddddddddddd0*  O",
"e,   #1666666666666666666666666  ddddddddddddddddddddddddi*   ,t",
"yyt,   o16676666666666666666666  ddddddddddddddddddddddi*   ;tyy",
"uuyut,   o246666666666666666665  ddddddddddddddddddddi*   ,tuuyu",
"uuuuyyt,   #1666666666666666666  ddddddddddddddddddd=   ;eyyuuuu",
"uuuuuuuut,   #14666666666666666  ddddddddddddddddp=   ,tuuuuuuuu",
"uuuuuuuuyye,   %256666666666665  dddddddddddddds=   ;euuuuuuuuuu",
"uuuuuuuuyuyue;   #1566666666666  dddddddddddds=   ;eyuuuuuuuuuuu",
"uuuuuuuuuuyyyye;   %26666666666  dddddddddds:   ;eyyuuuuuuuuuuuu",
"uuuuuuuuuuuuuuuut;   #166666665  dddddddds:   ;euuuuuuuuuuuuuuuu",
"uuuuuuuuuuuuuuuuuue;   #3666666  dddddds=   ;ruuuuuuuuuuuuuuuuuu",
"uuuuuuuuuuuuuuuuuuuue;   %36666  ddddp1   ;ryyyuuuuuuuuuuuuuuuuu",
"uuuuuuuuuuuuuuuuuuuuyye-   #465  dds1   ;eyuyyyuuuuuuuuuuuuuuuuu",
"uuuuuuuuuuuuuuuuuuuuuuuue-   %1  s1   -euuuuuuuuuuuuuuuuuuuuuuuu",
"uuuuuuuuuuuuuuuuuuuuuuuuyye-        -eyyuuuuuuuuuuuuuuuuuuuuuuuu",
"uuuuuuuuuuuuuuuuuuuuuuuuuyyye-    ;euuyyuuuuuuuuuuuuuuuuuuuuuuuu",
"yuuuuuuuuuuuuuuuuuuuuuuuuyyyyywOOeuuuuyyuuuuuuuuuuuuuuuuuuuuuuuy"
};
