/* XPM */
static char *_552053685833[] = {
/* columns rows colors chars-per-pixel */
"64 64 200 2 ",
"   c black",
".  c #010101",
"X  c #020202",
"o  c gray1",
"O  c #030506",
"+  c gray2",
"@  c #060606",
"#  c #070707",
"$  c #050708",
"%  c gray3",
"&  c #080909",
"*  c #090909",
"=  c gray4",
"-  c #0B0B0B",
";  c gray5",
":  c gray6",
">  c #101010",
",  c #101011",
"<  c #111111",
"1  c gray7",
"2  c #131313",
"3  c gray8",
"4  c #151515",
"5  c #161616",
"6  c gray9",
"7  c #191919",
"8  c gray10",
"9  c #1B1B1B",
"0  c gray11",
"q  c #1D1D1D",
"w  c #1E1E1E",
"e  c gray12",
"r  c #1D1F20",
"t  c #202020",
"y  c gray13",
"u  c #222222",
"i  c #232323",
"p  c gray14",
"a  c #252525",
"s  c gray15",
"d  c #272727",
"f  c #282828",
"g  c gray16",
"h  c #2C2C2C",
"j  c #2D2D2D",
"k  c gray19",
"l  c #323232",
"z  c gray20",
"x  c #343434",
"c  c gray21",
"v  c gray22",
"b  c #3A3A3A",
"n  c gray23",
"m  c #3C3C3C",
"M  c #3E3E3E",
"N  c #3A5965",
"B  c #414141",
"V  c gray26",
"C  c #434343",
"Z  c #444444",
"A  c gray27",
"S  c #464646",
"D  c gray28",
"F  c #484848",
"G  c #494949",
"H  c gray29",
"J  c #4B4B4B",
"K  c #4C4C4C",
"L  c gray30",
"P  c gray31",
"I  c #515151",
"U  c gray32",
"Y  c #565656",
"T  c gray34",
"R  c gray35",
"E  c #5A5A5A",
"W  c #5B5B5B",
"Q  c gray36",
"!  c #5D5D5D",
"~  c gray37",
"^  c #436573",
"/  c #606060",
"(  c #626262",
")  c gray39",
"_  c #646464",
"`  c #686868",
"'  c DimGray",
"]  c gray42",
"[  c #6C6C6C",
"{  c #6D6D6D",
"}  c gray43",
"|  c #6F6F6F",
" . c #657176",
".. c #63747A",
"X. c gray44",
"o. c #727272",
"O. c gray45",
"+. c #747474",
"@. c #767676",
"#. c #777777",
"$. c #777878",
"%. c #777879",
"&. c #777979",
"*. c #77797A",
"=. c #787A7B",
"-. c #787A7C",
";. c #787B7C",
":. c #787C7E",
">. c #787D80",
",. c #787E81",
"<. c #787F81",
"1. c #568395",
"2. c #798083",
"3. c #798184",
"4. c #798286",
"5. c #798489",
"6. c #7A858A",
"7. c #7A878C",
"8. c #7A878D",
"9. c #7A888D",
"0. c #7A898F",
"q. c #7B8B91",
"w. c #7B8B92",
"e. c #7B8C93",
"r. c #7B8C94",
"t. c #7B8E95",
"y. c #7B8F97",
"u. c #7C9199",
"i. c #7C929B",
"p. c #7C939D",
"a. c #7C949D",
"s. c #6B98AA",
"d. c #7D96A0",
"f. c #7D97A2",
"g. c #7D98A4",
"h. c #7D99A4",
"j. c #7E9AA6",
"k. c #7E9BA7",
"l. c #7E9CA8",
"z. c #7E9CA9",
"x. c #7EA0AD",
"c. c #7FA0AE",
"v. c #7FA1AE",
"b. c #7FA1AF",
"n. c #7FA2B0",
"m. c #7FA3B1",
"M. c #7FA4B3",
"N. c #7FA4B4",
"B. c #7DB1C7",
"V. c #80A6B6",
"C. c #80A8B9",
"Z. c #80A9B9",
"A. c #80AABB",
"S. c #81ACBE",
"D. c #81ADBE",
"F. c #82B0C3",
"G. c #82B1C5",
"H. c #82B2C6",
"J. c #82B3C7",
"K. c #82B4C8",
"L. c #82B4C9",
"P. c #82B5C9",
"I. c #82B5CA",
"U. c #83B6CB",
"Y. c #83B7CC",
"T. c #83B7CD",
"R. c #83B8CD",
"E. c #83B9CF",
"W. c #83BAD0",
"Q. c #83BBD2",
"!. c #84BBD2",
"~. c #84BDD4",
"^. c #84BED5",
"/. c #84BFD7",
"(. c #84C0D8",
"). c #84C0D9",
"_. c #85C2DB",
"`. c #85C2DC",
"'. c #85C3DC",
"]. c #85C3DD",
"[. c #85C4DD",
"{. c #85C4DE",
"}. c #85C5DF",
"|. c #85C5E0",
" X c #85C6E0",
".X c #86C6E1",
"XX c #86C7E1",
"oX c #83C8E5",
"OX c #85C9E5",
"+X c #86C9E4",
"@X c #86C9E5",
"#X c #86CAE5",
"$X c #86CAE6",
"%X c #86CBE6",
"&X c #86CBE7",
"*X c #87CCE8",
"=X c #87CCE9",
"-X c #87CDE9",
";X c #87CDEA",
":X c SkyBlue",
/* pixels */
"#.#.#.#.#.#.#.#.#.#.#.#.#.#.#.#.#.#.#.#.#.#.#.#.#.#.#.#.#.#.[     ] #.#.#.#.#.#.#.#.#.#.#.#.#.#.#.#.#.#.#.#.#.#.#.#.#.#.#.#.#.#.",
"#.#.#.#.#.#.#.#.#.#.#.#.#.#.#.#.#.#.#.#.#.#.#.#.#.#.#.#.#.#.S     S #.#.#.#.#.#.#.#.#.#.#.#.#.#.#.#.#.#.#.#.#.#.#.#.#.#.#.#.#.#.",
"#.#.#.#.#.#.#.#.#.#.#.#.#.#.#.#.#.#.#.#.#.#.#.#.#.#.#.#.#.#.w     w #.#.#.#.#.#.:X:X#.#.#.#.:X:X#.#.#.#.#.#.#.#.#.#.#.#.#.#.#.#.",
"#.#.#.#.#.#.#.#.#.#.#.#.#.#.#.#.#.#.#.#.#.#.#.#.#.#.#.#.#.[         [ #.#.#.#.#.:X:X#.#.#.#.:X:X#.#.#.#.#.#.#.#.#.#.#.#.#.#.#.#.",
"#.#.#.#.#.#.#.#.#.#.#.#.#.#.#.#.#.#.#.#.#.#.#.#.#.#.#.#.#.S         S #.#.#.#.#.#.:X:X#.#.:X:X#.#.#.#.#.#.#.#.#.#.#.#.#.#.#.#.#.",
"#.#.#.#.#.#.#.#.#.#.#.#.#.#.#.#.#.#.#.#.#.#.#.#.#.#.#.#.#.w         w #.#.#.#.#.#.:X:X#.#.:X:X#.#.#.#.#.#.#.#.#.#.#.#.#.#.#.#.#.",
"#.#.#.#.#.#.#.#.#.#.#.#.#.#.#.#.#.#.#.#.#.#.#.#.#.#.#.#.[             [ #.#.#.#.#.#.:X:X:X:X#.#.#.#.#.#.#.#.#.#.#.#.#.#.#.#.#.#.",
"#.#.#.#.#.#.#.#.#.#.#.#.#.#.#.#.#.#.#.#.#.#.#.#.#.#.#.#.S   e     w   S #.#.#.#.#.#.:X:X:X:X#.#.#.#.#.#.#.#.#.#.#.#.#.#.#.#.#.#.",
"#.#.#.#.#.#.#.#.#.#.#.#.#.#.#.#.#.#.#.#.#.#.#.#.#.#.#.=.t   S     S   t =.#.#.#.#.#.#.;X:X#.#.#.#.#.#.#.#.#.#.#.#.#.#.#.#.#.#.#.",
"#.#.#.#.#.#.#.#.#.#.#.#.#.#.#.#.#.#.#.#.#.#.#.#.#.#.#.[     [     [     [ #.#.#.#.#.#.;X:X#.#.#.#.#.#.#.#.#.#.#.#.#.#.#.#.#.#.#.",
"#.#.#.#.#.#.#.#.#.#.#.#.#.#.#.#.#.#.#.#.#.#.#.#.#.#.#.S   w #.    #.w   D #.#.#.#.#.#.;X:X#.#.#.#.#.#.#.#.#.#.#.#.#.#.#.#.#.#.#.",
"#.#.#.#.#.#.#.#.#.#.#.#.#.#.#.#.#.#.#.#.#.#.#.#.#.#.#.t   S #.    #.S   t #.#.#.#.#.=.;X:X#.#.#.#.#.#.#.#.#.#.#.#.#.#.#.#.#.#.#.",
"#.#.#.#.#.#.#.#.#.#.#.#.#.#.#.#.#.#.#.#.#.#.#.#.#.#.#.b < ] #.    #.[ < b #.#.#.#.#.#.#.#.#.#.#.#.#.#.#.#.#.#.#.#.#.#.#.#.#.#.#.",
"#.#.#.#.#.#.#.#.#.#.#.#.#.#.#.#.#.#.#.#.#.#.#.#.#.#.#.#.#.#.#.    #.#.#.#.#.#.#.#.#.#.#.#.#.#.#.#.#.#.#.#.#.#.#.#.#.#.#.#.#.#.#.",
"#.#.#.#.#.#.#.#.#.#.#.#.#.#.#.#.#.#.#.#.#.#.#.#.#.#.#.#.#.#.#.    #.#.#.#.#.#.#.#.#.#.#.#.#.#.#.#.#.#.#.#.#.#.#.#.#.#.#.#.#.#.#.",
"#.#.#.#.#.#.#.#.#.#.#.#.#.#.#.#.#.#.#.#.#.#.#.#.#.#.#.#.#.#.#.    #.#.#.#.#.#.#.#.#.#.#.#.#.#.#.#.#.#.#.#.#.#.#.#.#.#.#.#.#.#.#.",
"#.#.#.#.#.#.#.#.#.#.#.#.#.#.#.#.#.#.#.#.#.V.S.d.$.$.$.#.#.#.#.    #.#.#.#.#.#.#.#.#.#.#.#.#.#.#.#.#.#.#.#.#.#.#.#.#.#.#.#.#.#.#.",
"#.#.#.#.#.#.#.#.#.#.#.#.#.#.#.#.#.#.#.#.#.:X:X:X+XE.J.C.#.#.#.    #.#.#.#.#.#.#.#.#.#.#.#.#.#.#.#.#.#.#.#.#.#.#.#.#.#.#.#.#.#.#.",
"#.#.#.#.#.#.#.#.#.#.#.#.#.#.#.#.#.#.#.#.#.#.:X:X:X:X:X:X:X:X$.    #.#.#.#.:X_.z.$.#.#.#.#.#.#.#.#.#.#.#.#.#.#.#.#.#.#.#.#.#.#.#.",
"#.#.#.#.#.#.#.#.#.#.#.#.#.#.#.#.#.#.#.#.#.#.e.].:X:X].:X:Xn.#.    >.#.$.Z.[.:X:X[.e.#.#.#.#.#.#.#.#.#.#.#.#.#.#.#.#.#.#.#.#.#.#.",
"#.#.#.#.#.#.#.#.#.#.#.#.#.#.#.#.#.#.#.#.t.:X:XXXQ.:X:X:Xc.#.#.    #.#.#.#.#.u.Q.:X:Xg.#.#.#.#.#.#.#.#.#.#.#.#.#.#.#.#.#.#.#.#.#.",
"#.#.#.#.#.#.#.#.#.#.#.#.#.#.#.#.#.#.#.#.U.:XE.-.+X:X:Xz.#.#.#.    $.#.#.#.#.#.$.m.:X:X0.#.#.#.#.#.#.#.#.#.#.#.#.#.#.#.#.#.#.#.#.",
"#.#.#.#.#.#.#.#.#.#.#.#.#.#.#.#.#.#.#.#.+X:X6.#.:X:Xi.#.#.#.#.    #.#.#.#.#.#.#.#.Z.:XK.#.#.#.#.#.#.#.#.#.#.#.#.#.#.#.#.#.#.#.#.",
"#.#.#.#.#.#.#.#.#.#.#.#.#.#.#.#.#.#.#.#.+X:X#.#.:Xc.#.#.#.#.#.    #.#.#.#.#.#.#.#.>.:X+X#.#.#.#.#.#.#.#.#.#.#.#.#.#.#.#.#.#.#.#.",
"#.#.#.#.#.#.#.#.#.#.#.#.#.#.#.#.#.#.#.#.+X:X#.#.#.#.#.#.#.#.#.    #.#.#.#.#.#.#.#.>.:X+X#.#.#.#.#.#.#.#.#.#.#.#.#.#.#.#.#.#.#.#.",
"#.#.#.#.#.#.#.#.#.#.#.#.#.#.#.#.#.#.#.#.J.:XZ.#.#.#.#.#.#.#.#.    #.#.#.#.#.#.#.#.Z.:XU.#.#.#.#.#.#.#.#.#.#.#.#.#.#.#.#.#.#.#.#.",
"#.#.#.#.#.#.#.#.#.#.#.#.#.#.#.#.#.#.#.#.0.:X:Xn.$.#.#.#.#.#.#.    #.#.#.#.#.#.$.c.:X:X0.#.#.#.#.#.#.#.#.#.#.#.#.#.#.#.#.#.#.#.#.",
"#.#.#.#.#.#.#.#.#.#.#.#.#.#.#.#.#.#.#.#.#.g.:X:XQ.u.#.#.#.#.#.    #.#.#.#.#.u.Q.:X:Xg.#.#.#.#.#.#.#.#.#.#.#.#.#.#.#.#.#.#.#.#.#.",
"#.#.#.#.#.#.#.#.#.#.#.#.#.#.#.#.#.#.#.#.#.#.e.].:X:X].Z.d.0.>.O O >.7.a.Z.[.:X:X[.e.#.#.#.#.#.#.#.#.#.#.#.#.#.#.#.#.#.#.#.#.#.#.",
"#.#.#.#.#.#.#.#.#.#.#.#.#.#.#.#.#.#.#.#.#.#.#.-.z._.:X:X:X:X:X:X:X:X:X:X:X:X].z.=.#.#.#.#.#.#.#.#.#.#.#.#.#.#.#.#.#.#.#.#.#.#.#.",
"#.#.#.#.#.#.#.#.#.#.#.#.#.#.#.#.#.#.#.#.#.#.#.#.#.#.0.c.J./.+X:XoXXX_.J.c.0.#.#.#.#.#.#.#.#.#.#.#.#.#.#.#.#.#.#.#.#.#.#.#.#.#.#.",
"#.#.#.#.#.#.#.#.#.#.#.#.#.#.#.#.#.#.#.#.#.#.#.#.#.#.#.#.#.#.#.    #.#.#.#.#.#.#.#.#.#.#.#.#.#.#.#.#.#.#.#.#.#.#.#.#.#.#.#.#.#.#.",
"#.#.#.#.#.#.#.#.#.#.#.#.#.#.#.#.#.#.#.#.#.#.#.#.#.#.#.#.#.#.#.    #.#.#.#.#.#.#.#.#.#.#.#.#.#.#.#.#.#.#.#.#.#.#.#.#.#.#.#.#.#.#.",
"#.#.#.#.#.#.#.#.#.#.#.#.#.#.#.#.#.#.#.#.#.#.#.#.#.#.#.#.#.#.#.    #.#.#.#.#.#.#.#.#.#.#.#.#.#.#.#.#.#.#.#.#.#.#.#.#.#.#.#.#.#.#.",
"#.#.#.#.#.#.#.#.#.#.#.#.#.#.#.#.#.#.#.#.#.#.#.#.#.#.#.#.#.#.#.    #.#.#.#.#.#.#.#.#.#.$.#.#.#.#.#.#.#.#.#.#.#.#.#.#.#.#.#.#.#.#.",
"#.#.#.#.#.#.#.#.#.#.#.#.#.#.#.#.#.#.#.#.#.#.#.#.#.#.#.#.#.#.#.    #.#.#.#.#.#.#.$.t.U.[.:X+X/.c.:.#.#.#.#.#.#.#.#.#.#.#.#.#.#.#.",
"#.#.#.#.#.#.#.#.#.#.#.#.#.#.#.#.#.#.#.#.#.#.#.#.#.#.#.#.#.[ w     [ #.#.#.$.#.#.2.:X:X:X:X:X:X:X[.0.#.#.#.#.#.#.#.#.#.#.#.#.#.#.",
"#.#.#.#.#.#.#.#.#.#.#.#.#.#.#.#.#.#.#.#.#.#.#.#.#.#.#.#.) :   &   : ) #.#.$.#.$.$.6.>.;.#.-.q.T.:XXX-.#.#.#.:X:X#.#.#.#.:X:X#.#.",
"#.#.#.#.#.#.#.#.#.#.#.#.#.#.#.#.#.#.#.#.#.#.#.#.#.#.#.R &   6 ) 7   & R #.#.#.$.#.#.#.#.#.#.#.$.T.:Xc.#.#.#.:X:X#.#.#.#.:X:X#.#.",
"#.#.#.#.#.#.#.#.#.#.#.#.#.#.#.#.#.#.#.#.#.#.#.#.#.=.L     a o.#.o.a   o J #.#.#.#.#.#.#.#.#.#.#.q.:X/.#.#.#.#.:X:X#.#.:X:X#.#.#.",
"#.#.#.#.#.#.#.#.#.#.#.#.#.#.#.#.#.#.#.#.#.#.#.#.#.m     z #.#.#.#.#.l $ N s.#.#.#.#.#.#.#.#.#.#.$.:X+X#.#.#.#.:X:X#.#.:X:X#.#.#.",
"#.#.#.#.#.#.#.#.#.#.#.#.#.#.#.#.#.#.#.#.#.#.#.O.h     Z #.#.#.#.#.4.U.+X:X1.h O.#.#.#.#.#.#.#.#.#.:X+X#.#.#.#.#.#.:X:X#.#.#.#.#.",
"#.#.#.#.#.#.#.#.#.#.#.#.#.#.#.#.#.#.#.#.#.#.| e   + U #.#.#.#.#.T.:X:X:X:X^   r [ #.#.#.#.#.#.#.4.:X_.#.#.#.#.#.#.:X:X#.#.#.#.#.",
"#.#.#.#.#.#.#.#.#.#.#.#.#.#.#.#.#.#.#.#.#.` 3   - ~ #.#.#.#.e.U.:X:X:X:X:X .:   3 ] #.#.#.#.#.#.d.:XJ.#.#.#.#.:X:X#.#.:X:X#.#.#.",
"#.#.#.#.#.#.#.#.#.#.#.#.#.#.#.#.#.#.#.#.~ -   3 ` #.#.#.#.#.;X;Xn./.:X:X:X7.` 3   & ~ #.#.#.#.#.K.:Xg.#.#.#.#.:X:X#.#.:X:X#.#.#.",
"#.#.#.#.#.#.#.#.#.#.#.#.#.#.#.#.#.#.#.U +   w | #.#.#.#.#.*X*X6.:XXX:X:X:X<.#.| e   + U #.#.#.6.:X+X-.#.#.#.:X:X#.#.#.#.:X:X#.#.",
"#.#.#.#.#.#.#.#.#.#.#.#.#.#.#.#.#.#.S     g #.#.#.#.#.#.#.#.#.q.:X:Xd.:X).#.#.#.#.h     S #.#.T.:Xn.#.#.#.#.:X:X#.#.#.#.:X:X#.#.",
"#.#.#.#.#.#.#.#.#.#.#.#.#.#.#.#.#.x     n #.#.#.#.#.#.#.#.#.#.;X:X-.S.+Xz.#.#.#.#.#.m     x a.:X].$.#.#.#.#.#.#.#.#.#.#.#.#.#.#.",
"#.#.#.#.#.#.#.#.#.#.#.#.#.#.#.o.a     J #.#.#.#.#.#.#.#.#.#.#.+X:X#.:X:X#.#.#.#.#.#.#.J o   a +Xy.#.#.#.#.#.#.#.#.#.#.#.#.#.#.#.",
"#.#.#.#.#.#.#.#.#.#.#.#.#.#.[ 7   % R =.#.#.#.#.#.#.#.#.#.#.#.+X:X#.#.m.#.#.#.#.#.#.#.#...&   r [ #.#.#.#.#.#.#.#.#.#.#.#.#.#.#.",
"#.#.#.#.#.#.#.#.#.#.#.#.#.) :   : ) #.#.#.#.#.#.#.#.#.#.#.#.#.E.:Xt.#.#.#.#.#.#.#.#.#.g.:XB.>   : ) #.#.#.#.#.#.#.#.#.#.#.#.#.#.",
"#.#.#.#.#.#.#.#.#.#.#.#.R &   7 [ #.#.#.#.#.#.#.#.#.#.#.#.#.#.V.:XT.$.#.#.#.#.#.#.5.U.:X:Xl.[ 7   % R #.#.#.#.#.#.#.#.#.#.#.#.#.",
"#.#.#.#.#.#.#.#.#.#.#.J o   a o.#.#.#.#.#.#.#.#.#.#.#.#.#.#.#.;.XX:XT.q.=.#.>.p.J.:X:X[.t.#.#.o.a   o J #.#.#.) 0 ] #.#.#.#.#.#.",
"#.#.#.#.] 3 U #.#.#.m     x #.#.#.#.#.#.#.#.#.#.#.#.#.#.#.#.#.#.7.].:X:X;X&X:X:X:X+XC.;.#.#.#.#.#.x     m #.#.a   3 +.#.#.#.#.#.",
"#.#.#.#.g   a =.#.h     C #.#.#.#.#.#.#.#.#.#.#.#.#.#.#.#.#.#.#.#.:.n./.&X:X[.K.l.;.#.#.#.#.#.#.#.#.Z     h #.[ :   k #.#.#.#.#.",
"#.#.#.~     _ [ w   + U #.#.#.#.#.#.#.#.#.#.#.#.#.#.#.#.#.#.#.#.#.#.#.#.#.#.#.#.#.#.#.#.#.#.#.#.#.#.#.U +   w [ ~     J #.#.#.#.",
"#.#.#.9   l ] 3   - ~ #.#.#.#.#.#.#.#.#.#.#.#.#.#.#.#.#.#.#.#.#.#.#.#.#.#.#.#.#.#.#.#.#.#.#.#.#.#.#.#.#.~ &   3 ] B   + ) #.#.#.",
"#.#.P   # T &   < ] #.#.#.#.#.#.#.#.#.#.#.#.#.#.#.#.#.#.#.#.#.#.#.#.#.#.#.#.#.#.#.#.#.#.#.#.#.#.#.#.J i Y ] 3   & ~ g   < o.#.#.",
"#.#.<   h +   e | W a J #.#.#.#.#.#.#.#.#.#.#.#.#.#.#.#.#.#.#.#.#.#.#.#.#.#.#.#.#.#.#.#.#.#.#.#.#.#.3     2 C w   + L <   a #.#.",
"#.B   &     h P 9     3 #.#.#.#.#.#.#.#.#.#.#.#.#.#.#.#.#.#.#.#.#.#.#.#.#.#.#.#.#.#.#.#.#.#.#.#.#.#.[ n &     # 3     b +   B #.",
"[ +       a <     + l ] #.#.#.#.#.#.#.#.#.#.#.#.#.#.#.#.#.#.#.#.#.#.#.#.#.#.#.#.#.#.#.#.#.#.#.#.#.#.#.#.o.J 3           t   + ~ ",
"l       #     - M [ #.#.#.#.#.#.#.#.#.#.#.#.#.#.#.#.#.#.#.#.#.#.#.#.#.#.#.#.#.#.#.#.#.#.#.#.#.#.#.#.#.#.#.#.#.R d         &   : ",
"          < D O.=.#.#.#.#.#.#.#.#.#.#.#.#.#.#.#.#.#.#.#.#.#.#.#.#.#.#.#.#.#.#.#.#.#.#.#.#.#.#.#.#.#.#.#.#.#.#.#.$.] x #         ",
"      9 U #.#.#.#.#.#.#.#.#.#.#.#.#.#.#.#.#.#.#.#.#.#.#.#.#.#.#.#.#.#.#.#.#.#.#.#.#.#.#.#.#.#.#.#.#.#.#.#.#.#.#.#.#.=.o.b       "
};
