/* XPM */
static char *_552053688540[] = {
/* columns rows colors chars-per-pixel */
"64 64 154 2 ",
"   c black",
".  c #010101",
"X  c #010202",
"o  c #020202",
"O  c gray1",
"+  c #040404",
"@  c gray2",
"#  c #060606",
"$  c #070707",
"%  c gray3",
"&  c #090909",
"*  c #090A0A",
"=  c gray4",
"-  c #0B0B0B",
";  c #0C0C0C",
":  c gray5",
">  c #0E0E0E",
",  c gray6",
"<  c #101010",
"1  c #111111",
"2  c gray7",
"3  c #131313",
"4  c gray8",
"5  c #151515",
"6  c #161616",
"7  c gray9",
"8  c #121719",
"9  c #181818",
"0  c #191919",
"q  c gray10",
"w  c gray11",
"e  c #1D1D1D",
"r  c #1E1E1E",
"t  c gray12",
"y  c #202020",
"u  c gray13",
"i  c #222222",
"p  c #232323",
"a  c gray14",
"s  c #252525",
"d  c gray15",
"f  c #21292D",
"g  c #282828",
"h  c gray16",
"j  c #2A2A2A",
"k  c gray17",
"l  c #2C2C2C",
"z  c #2D2D2D",
"x  c gray18",
"c  c #2F2F2F",
"v  c #21333A",
"b  c #22343C",
"n  c #22353C",
"m  c gray19",
"M  c #313131",
"N  c #323232",
"B  c gray20",
"V  c #343434",
"C  c #353535",
"Z  c gray21",
"A  c #373737",
"S  c #343839",
"D  c gray22",
"F  c #393939",
"G  c #3A3A3A",
"H  c gray23",
"J  c #383C3D",
"K  c #3B3C3C",
"L  c #3B3C3D",
"P  c #3C3D3D",
"I  c #3C3D3E",
"U  c #3C3E3E",
"Y  c #3C3E3F",
"T  c #3C3F40",
"R  c #3C3F41",
"E  c #3C4041",
"W  c #3C4042",
"Q  c #3C4142",
"!  c #3C4143",
"~  c #3C4244",
"^  c #3D4244",
"/  c #3D4345",
"(  c #3D4346",
")  c #3D4447",
"_  c #314148",
"`  c #31434B",
"'  c #3D4448",
"]  c #3D4548",
"[  c #3D4549",
"{  c #3D4649",
"}  c #3D464A",
"|  c #3D474A",
" . c #3D474B",
".. c #38474D",
"X. c #3E484C",
"o. c #3E484D",
"O. c #3E494D",
"+. c #3E494E",
"@. c #3E4A4E",
"#. c #3E4A4F",
"$. c #314B55",
"%. c #3E4B50",
"&. c #3E4C51",
"*. c #3E4C52",
"=. c #3E4D53",
"-. c #3F4D53",
";. c #3F4E54",
":. c #3F4E55",
">. c #3F4F55",
",. c #3F4F56",
"<. c #344E58",
"1. c #3F5056",
"2. c #3F5057",
"3. c #3D5058",
"4. c #3F5158",
"5. c #3F5259",
"6. c #3F525A",
"7. c #40525A",
"8. c #40535B",
"9. c #40545C",
"0. c #40545D",
"q. c #40555E",
"w. c #40565E",
"e. c #40565F",
"r. c #405760",
"t. c #415861",
"y. c #415862",
"u. c #415962",
"i. c #415963",
"p. c #415964",
"a. c #415A64",
"s. c #415A65",
"d. c #415B65",
"f. c #415B66",
"g. c #415C66",
"h. c #415C67",
"j. c #415D68",
"k. c #425D69",
"l. c #425E69",
"z. c #425F6B",
"x. c #42606C",
"c. c #42616D",
"v. c #42616E",
"b. c #42626F",
"n. c #426270",
"m. c #436370",
"M. c #436371",
"N. c #436471",
"B. c #436472",
"V. c #436572",
"C. c #436573",
"Z. c #436674",
"A. c #436675",
"S. c #436775",
/* pixels */
"H H H H H H H H H H H H H H H H H H H H H H H H H H H H H H H H H H H H H H H H H H H H H H H H H H H H H H H H H H H H H H H H ",
"H H H H H H H H H H H H H H H H H H H H H H H H H H H H H H H H H H H H H H H H H H H H H H H H H H H H H H H H H H H H H H H H ",
"H H H H H H H H H H H H H H H H H H H H H H H H H H H H H H H H H H H H H H H H H H H H H H H H H H H H H H H H H H H H H H H H ",
"H H H H H H H H H H H H H H H H H H H H H H H H H H H H H H H H H H H H H H H H H H H H H H H H H H H H H H H H H H H H H H H H ",
"H H H H H H H H H H H H H H H H H H H H H H H H H H H H H H H H H H H H H H H H H H H H H H H H H H H H H H H H H H H H H H H H ",
"H H H H H H H H H H H H H H H H H H H H H H H H H H H H H H H     H H H H H H H H H H H H H H H H H H H H H H H H H H H H H H H ",
"H H H H H H H H H H H H H H H H H H H H H H H H H H H H H H C     C H H H H H H H H H H H H H H H H H H H H H H H H H H H H H H ",
"H H H H H H H H H H H H H H H H H H H H H H H H H H H H H H i     i H H H H H S.5.H H L S.N.H H H H H H H H H H H H H H H H H H ",
"H H H H H H H H H H H H H H H H H H H H H H H H H H H H H I ,     , H H H H H 5.v.} H z.v.#.H H H H H H H H H H H H H H H H H H ",
"H H H H H H H H H H H H H H H H H H H H H H H H H H H H H C         C H H H H } S.-.Q N.f.H H H H H H H H H H H H H H H H H H H ",
"H H H H H H H H H H H H H H H H H H H H H H H H H H H H H p         p H H H H I 6.S.N.S.L H H H H H H H H H H H H H H H H H H H ",
"H H H H H H H H H H H H H H H H H H H H H H H H H H H H H 1         1 H H H H H -.m.S.9.H H H H H H H H H H H H H H H H H H H H ",
"H H H H H H H H H H H H H H H H H H H H H H H H H H H H H   ,     ,   A H H H H H r.S.H H H H H H H H H H H H H H H H H H H H H ",
"H H H H H H H H H H H H H H H H H H H H H H H H H H H H d   i     p   d H H H H H i.S.T H H H H H H H H H H H H H H H H H H H H ",
"H H H H H H H H H H H H H H H H H H H H H H H H H H H H 1   C     C   1 H H H H H i.N.T H H H H H H H H H H H H H H H H H H H H ",
"H H H H H H H H H H H H H H H H H H H H H H H H H H H H 9 1 H     H 1 7 H H H H H H L H H H H H H H H H H H H H H H H H H H H H ",
"H H H H H H H H H H H H H H H H H H H H H H H H H H H H H H H     H H H H H H H H H H H H H H H H H H H H H H H H H H H H H H H ",
"H H H H H H H H H H H H H H H H H H H H H H H H H L H H H H H     H H H H H H H H H H H H H H H H H H H H H H H H H H H H H H H ",
"H H H H H H H H H H H H H H H H H H H H H H ) i.2.Q E L H H H     H H H H H H H H H H H H H H H H H H H H H H H H H H H H H H H ",
"H H H H H H H H H H H H H H H H H H H H H H #.S.m.f.5.2.) H H     H H H H H H H H H H H H H H H H H H H H H H H H H H H H H H H ",
"H H H H H H H H H H H H H H H H H H H H H H I 8.S.S.S.S.m.x.}     L H I i.x.@.H H H H H H H H H H H H H H H H H H H H H H H H H ",
"H H H H H H H H H H H H H H H H H H H H H H L ( v.N.S.N.S.z.T   X I H | z.Z.S.h.E L H H H H H H H H H H H H H H H H H H H H H H ",
"H H H H H H H H H H H H H H H H H H H H H H i.S.z.h.N.Z.i.L H     H H H H ) 6.N.v.E H H H H H H H H H H H H H H H H H H H H H H ",
"H H H H H H H H H H H H H H H H H H H H H H S.z.H h.S.i.H H H     H H H H L L 2.S.f.H H H H H H H H H H H H H H H H H H H H H H ",
"H H H H H H H H H H H H H H H H H H H H H H S.2.H m.z.H H H H     H H H H H H H i.S.H H H H H H H H H H H H H H H H H H H H H H ",
"H H H H H H H H H H H H H H H H H H H H H H S.2.H ) L H H H H     H H H H H H H 5.S.H H H H H H H H H H H H H H H H H H H H H H ",
"H H H H H H H H H H H H H H H H H H H H H H N.v.Q H H H H H H     H H H H H H Q b.N.H H H H H H H H H H H H H H H H H H H H H H ",
"H H H H H H H H H H H H H H H H H H H H H H -.S.z.( H H H H H     H H H H H ) x.S.-.H H H H H H H H H H H H H H H H H H H H H H ",
"H H H H H H H H H H H H H H H H H H H H H H H 2.S.S.9.} Q H H     H H T } 9.S.S.2.H H H H H H H H H H H H H H H H H H H H H H H ",
"H H H H H H H H H H H H H H H H H H H H H H H H #.f.S.S.v.i.9.b b 9.i.v.Z.S.h.#.H H H H H H H H H H H H H H H H H H H H H H H H ",
"H H H H H H H H H H H H H H H H H H H H H H H H H H } 8.z.S.S.S.S.S.N.v.9.| H H H H H H H H H H H H H H H H H H H H H H H H H H ",
"H H H H H H H H H H H H H H H H H H H H H H H H H H H H H H H     H H H H H H H H H H H H H H H H H H H H H H H H H H H H H H H ",
"H H H H H H H H H H H H H H H H H H H H H H H H H H H H H H H     H H H H H H H H H H H H H H H H H H H H H H H H H H H H H H H ",
"H H H H H H H H H H H H H H H H H H H H H H H H H H H H H H H     H H H H H H H H H H H H H H H H H H H H H H H H H H H H H H H ",
"H H H H H H H H H H H H H H H H H H H H H H H H H H H H H H H     H H H H H H H H H H H H H H H H H H H H H H H H H H H H H H H ",
"H H H H H H H H H H H H H H H H H H H H H H H H H H H H H H H     D H H H H H #.N.S.S.S.S.f.} H H H H H H H H H H H H H H H H H ",
"H H H H H H H H H H H H H H H H H H H H H H H H H H H H H H 6 ,   t H H H H H } 2.#.| #.9.S.m.( H H H N.#.H H Q N.H H H H H H H ",
"H H H H H H H H H H H H H H H H H H H H H H H H H H H H C ,   , *   9 H H H H H H H H H H #.S.i.H H H N.,.H H } S.H H H H H H H ",
"H H H H H H H H H H H H H H H H H H H H H H H H H I H M %   9 H V ,   3 J L H H H H H H H H f.S.H H H 5.S.Q H S.h.H H H H H H H ",
"H H H H H H H H H H H H H H H H H H H H H H H H H I g     p I H H H f v <.S H H H H H H H H 9.S.H H H #.f.-.| f.2.H H H H H H H ",
"H H H H H H H H H H H H H H H H H H H H H H H H H i   + l H H H } 6.S.S.<.% x H H H H H H H 9.S.H H H H H N.S.L H H H H H H H H ",
"H H H H H H H H H H H H H H H H H H H H H H H H 9   * M H H L -.S.S.S.S._     g H H H H H L f.N.H H H } 6.,.-.9.-.H H H H H H H ",
"H H H H H H H H H H H H H H H H H H H H H H D <   , D H H T r.S.f.N.S.S.#.g     i H H H H ( N.i.H H H 5.S.( H N.h.H H H H H H H ",
"H H H H H H H H H H H H H H H H H H H H H B *   6 H H H H h.N.-.x.N.S.S.#.H x #   w H H H 8.S.#.H H H S.5.L H #.S.H H H H H H H ",
"H H H H H H H H H H H H H H H H H H H H x #   i H H H H H I L #.N.6.i.S.Q H H B ,   6 H } N.h.I H H H N.#.H H Q m.H H H H H H H ",
"H H H H H H H H H H H H H H H H H H H d     g H H H H H H H H m.z.) S.6.L H H H C 1   , 5.S.} H H H H K H H H H H H H H H H H H ",
"H H H H H H H H H H H H H H H H H H w   # m H H H H H H H H H v.x.E f.#.H H H H I H 9   8 ..H H H H H H H H H H H H H H H H H H ",
"H H H H H H H H H H H H H H H H H 4   - C H H H H H H H H H H z.N.H H T H H H H H I f.`   # g L H H H H H H H H H H H H H H H H ",
"H H H H H H H H H H H H H H H C ,   1 H H H H H H H H H H H H ,.S.2.H H H H H H %.m.S.8.d     d H H H H H H H H H H H H H H H H ",
"H H H H H H H H H H H H H H m #   w H H H H H H H H H H H H H T v.S.5.( Q ( ,.v.S.N.-.I I g     w I H H i 4 H H H H H H H H H H ",
"H H H H H H H H H , i H H g     d H H H H H H H H H H H H H H H ) z.S.S.S.S.S.v.r.Q H H H H M %   9 H H 6   i H H H H H H H H H ",
"H H H H H H H H w   9 H y   # m H H H H H H H H H H H H H H H H H ( i.m.S.v.f.#.I H H H H H H C 1   1 C H *   m H H H H H H H H ",
"H H H H H H H B   # C 6   * C H H H H H H H H H H H H H H H H H H H H H H H H H H H H H H H H H H 6   , M M   * H H H H H H H H ",
"H H H H H H H 6   i ,   1 C H H H H H H H H H H H H H H H H H H H H H H H H H H H H H H H H H w 6 x w   # x i   1 H H H H H H H ",
"H H H H H H g   * *   6 6 w H H H H H H H H H H H H H H H H H H H H H H H H H H H H H H H H H ,     , 6     g 6   i H H H H H H ",
"H H H H H H *   O   -     , H H H H H H H H H H H H H H H H H H H H H H H H H H H H H H H H H H g 1     #     w *   M H H H H H ",
"H H H H I i           , g H H H H H H H H H H H H H H H H H H H H H H H H H H H H H H H H H H H H H M 6         1   * H H H H H ",
"H H H H C         1 l H H H H H H H H H H H H H H H H H H H H H H H H H H H H H H H H H H H H H H H H H H w #     #   7 H H H H ",
"H H H H       1 m H H H H H H H H H H H H H H H H H H H H H H H H H H H H H H H H H H H H H H H H H H H H H H p #     * H H H H ",
"H H H H * O m H H H H H H H H H H H H H H H H H H H H H H H H H H H H H H H H H H H H H H H H H H H H H H H H H H , # w H H H H ",
"H H H H H H H H H H H H H H H H H H H H H H H H H H H H H H H H H H H H H H H H H H H H H H H H H H H H H H H H H H H H H H H H ",
"H H H H H H H H H H H H H H H H H H H H H H H H H H H H H H H H H H H H H H H H H H H H H H H H H H H H H H H H H H H H H H H H ",
"H H H H H H H H H H H H H H H H H H H H H H H H H H H H H H H H H H H H H H H H H H H H H H H H H H H H H H H H H H H H H H H H ",
"H H H H H H H H H H H H H H H H H H H H H H H H H H H H H H H H H H H H H H H H H H H H H H H H H H H H H H H H H H H H H H H H "
};
