/* XPM */
static char *_552053702186[] = {
/* columns rows colors chars-per-pixel */
"64 64 69 1 ",
"  c black",
". c #010000",
"X c #010101",
"o c #020202",
"O c gray1",
"+ c #040404",
"@ c gray2",
"# c #060606",
"$ c #070707",
"% c #05090A",
"& c #060A0B",
"* c #090909",
"= c gray4",
"- c #0B0B0B",
"; c #0C0C0C",
": c gray5",
"> c #0E0E0E",
", c gray6",
"< c #0C1215",
"1 c #0D1417",
"2 c #0F181C",
"3 c #101010",
"4 c #111111",
"5 c gray7",
"6 c gray8",
"7 c #151515",
"8 c #161616",
"9 c gray9",
"0 c #121C1E",
"q c #181818",
"w c #191919",
"e c gray10",
"r c #1B1B1B",
"t c gray11",
"y c #1D1D1D",
"u c #1E2E34",
"i c #232323",
"p c gray14",
"a c #252525",
"s c gray15",
"d c #272727",
"f c #282828",
"g c gray16",
"h c #2A2A2A",
"j c gray17",
"k c #2C2C2C",
"l c #2D2D2D",
"z c gray18",
"x c #2F2F2F",
"c c #223539",
"v c #233539",
"b c #22343C",
"n c gray19",
"m c #313131",
"M c #323232",
"N c #353535",
"B c gray21",
"V c #373737",
"C c gray22",
"Z c #393939",
"A c #3A3A3A",
"S c gray23",
"D c #3C3C3C",
"F c #3E3E3E",
"G c #3F3F3F",
"H c #253941",
"J c #557F7F",
"K c #617F7F",
"L c #627F7F",
/* pixels */
"SSSSSSSSSSSSSSSSSSSSSSSSSSSSSSSSSSSSSSSSSSSSSSSSSSSSSSSSSSSSSSSS",
"SSSSSSSSSSSSSSSSSSSSSSSSSSSSSSSSSSSSSSSSSSSSSSSSSSSSSSSSSSSSSSSS",
"SSSSSSSSSSSSSSSSSSSSSSSSSSSSSSSSSSSSSSSSSSSSSSSSSSSSSSSSSSSSSSSS",
"SSSSSSSSSSSSSSSSSSSSSSSSSSSSSSSSSSSSSSSSSSSSSSSSSSSSSSSSSSSSSSSS",
"SSSSSSSSSSSSSSSSSSSSSSSSSSSSSSSSSzy7*+  +*7yfSSSSSSSSSSSSSSSSSSS",
"SSSSSSSSSSSSSSSSSSSSSSSSSSSSSSz7             +7zSSSSSSSSSSSSSSSS",
"SSSSSSSSSSSSSSSSSSSSSSSSSSSSz>                  >zSDSSSSSSSSSSSS",
"SSSSSSSSSSSSSSSSSSSSSSSSSSS7                      7BSSSSSSSSSSSS",
"SSSSSSSSSSSSSSSSSSSSSSSSSM+      +esMBSSBzse+      *zSSSSSSSSSSS",
"SSSSSSSSSSSSSSSSSSSSSSSDf+     5fDSDSSSSSSSSSf5      fSDSSSSSSSS",
"SSSSSSSSSSSSSSSSSSSSSSSf     *fDSSSSSSSSSSSSSSSz*     fDSSSSSSSS",
"SSSSSSSSSSSSSSSSSSSSSSz     eSSSSSSSSSSSSSSSSSSSSe     zSSSSSSSS",
"SSSSSSSSSSSSSSSSSSSSDB+    iSSSSSSSSSSSSSSSSSSSSDSs    +BSSSSSSS",
"SSSSSSSSSSSSSSSSSSSSD5    sSSSSSSSSSSSSSSSSSSSSSSSSs    5SSSSSSS",
"SSSSSSSSSSSSSSSSSSSSf    eSSSSSSSSSSSSSSSSSSSSSSSSSSe    fSSSSSS",
"SSSSSSSSSSSSSSSSSSSD*   >SSSSSSSSSSSSSSSSSSSSSSSSSSSS>   *SSSSSS",
"SSSSSSSSSSSSSSSSSSSf    MSSSSSSSSSSSSSSSSSSSSSSSSSSSSM    sDSSSS",
"SSSSSSSSSSSSSSSSSSS5   7SSSSSSSSSSSSSSSSSSSSSSSSSSSSSS7   5DSSSS",
"SSSSSSSSSSSSSSSSSSB    zSSSDSSSSSSSSSSSSSSSSSSSSSSSSSSM    BSSSS",
"SSSSSSSSSSSSSSSSSSs   *SSSSDSSSSSSSSSSDDSSSSSSDDSSSSSSS*   sSSSS",
"SSSSSSSSSSSSSSSSSSe   eSSSSDDDSDSDDDDDDDSDDDDDDDSSDDSSSe   eSSSS",
"SSSSSSSSSSSSSSSSSS>   sSSSDDGGDDDGGDDDDGDGGDDDDGDDDSSSSf   >SSSS",
"SSSSSSSSSSSSSSSSSS*   MSSDSMMMMMMMMMMMMMMMMMMMMMMMMSDDDM   *SSSS",
"SSSSSSSSSSSSSSSSSS    BSSDz                        MDDSB    SSSS",
"SSSSSSSSSSSSSSSSSS    SSSGM 1vuuuuuuuuuuuuuuuuuuv1 MDSSS    DSSS",
"SSSSSSSSSSSSSSSSSS    BSSDM HLJJJJJJJJJJJJJJJJJJLb MDSSB   +SSSS",
"SSSSSSSSSSSSSSSSSS*   MSDGz &02222222222222222220& MGDSM   +SSSS",
"SSSSSSSSSSSSSSSSSD>   sSSDM+                       BDDDs   >SSSS",
"SSSSSSSSSSSSSSSSSSe   eSSSSSSBSSBSSSSSSBSBSSSSBSSSSSSSSy   eSSSS",
"SSSSSSSSSSSSSSSSSSs   *DSSSDDDDDSSSDSSDSSSSSSDSSSSSSSSS*   sSSSS",
"SSSSSSSSSSSSSSSSSSB    zSSSSSSSSSSSSSSSSSSSSSSSSSSSSSSz    BSSSS",
"SSSSSSSSSSSSSSSSSSD5   7SSSSSSSSSSSSSSSSSSSSSSSSSSSSDD7   5SSSSS",
"SSSSSSSSSSSSSSSSSSSf    zSSSSSSSSSSSSSSSSSSSSSSSSSSSSM    sDSSSS",
"SSSSSSSSSSSSSSSSSSSS>   >SSSSSSSSSSSSSSSSSSSSSSSSSSSS>   *SSSSSS",
"SSSSSSSSSSSSSSSSSSSSf    ySSSSSSSSSSSSSSSSSSSSSSSSSSy    sDSSSSS",
"SSSSSSSSSSSSSSSSSSSSS5    sSSSSSSSSSSSSSSSSSSSSSSSSs    5SSSSSSS",
"SSSSSSSSSSSSSSSSSSSSSB+    sSSSSSSSSSSSSSSSSSSSSSSs    +BSSSSSSS",
"SSSSSSSSSSSSSSSSSSSSSDf     eSSSSSSSSSSSSSSSSSSSSe     zSSSSSSSS",
"SSSSSSSSSSSSSSSSSSSSDB*      *zSSSSSSSSSSSSSSSSz*     fSSSSSSSSS",
"SSSSSSSSSSSSSSSSSSSSB*         5zSSSSSSSSSSSSz5      fDSSSSSSSSS",
"SSSSSSSSSSSSSSSSSSSB*   *f*      +esMSSSBMs7*      +zSSSSSSSSSSS",
"SSSSSSSSSSSSSSSSSSS*   *BSB7                      7BSSSSSSSSSSSS",
"SSSSSSSSSSSSSSSSSB*   *BSSSSz>                  >fSSSSSSSSSSSSSS",
"SSSSSSSSSSSSSSSSB*   *BDSSSSSSz7              7zDDSSSSSSSSSSSSSS",
"SSSSSSSSSSSSSSSB*   *BSSSSSSSSSSSzy5*   +*5yfSSSDSSSSSSSSSSSSSSS",
"SSSSSSSSSSSSSSB>   *SSSSSSSSSSSSSSSSDDSSSDSSSSSSSSSSSSSSSSSSSSSS",
"SSSSSSSSSSSSSB*   *BSSSSSSSSSSSSSSSSSSSSSSSSSSSSSSSSSSSSSSSSSSSS",
"SSSSSSSSSSSSB*   *BSSSSSSSSSSSSSSSSSSSSSSSSSSSSSSSSSSSSSSSSSSSSS",
"SSSSSSSSSSDB*   *BDSSSSSSSSSSSSSSSSSSSSSSSSSSSSSSSSSSSSSSSSSSSSS",
"SSSSSSSSSSB*   *BSSSSSSSSSSSSSSSSSSSSSSSSSSSSSSSSSSSSSSSSSSSSSSS",
"SSSSSSSSSB*   *SSSSSSSSSSSSSSSSSSSSSSSSSSSSSSSSSSSSSSSSSSSSSSSSS",
"SSSSSSSSB*   *BSSSSSSSSSSSSSSSSSSSSSSSSSSSSSSSSSSSSSSSSSSSSSSSSS",
"SSSSSSSB>   *BSSSSSSSSSSSSSSSSSSSSSSSSSSSSSSSSSSSSSSSSSSSSSSSSSS",
"SSSSSSS*   *BSSSSSSSSSSSSSSSSSSSSSSSSSSSSSSSSSSSSSSSSSSSSSSSSSSS",
"SSSSSB*   *BSSSSSSSSSSSSSSSSSSSSSSSSSSSSSSSSSSSSSSSSSSSSSSSSSSSS",
"SSSSB*   *BSSSSSSSSSSSSSSSSSSSSSSSSSSSSSSSSSSSSSSSSSSSSSSSSSSSSS",
"SSSB>   *BSSSSSSSSSSSSSSSSSSSSSSSSSSSSSSSSSSSSSSSSSSSSSSSSSSSSSS",
"SSS>   *BDSSSSSSSSSSSSSSSSSSSSSSSSSSSSSSSSSSSSSSSSSSSSSSSSSSSSSS",
"SSSM+ *BSSSSSSSSSSSSSSSSSSSSSSSSSSSSSSSSSSSSSSSSSSSSSSSSSSSSSSSS",
"SSSSM>BSSSSSSSSSSSSSSSSSSSSSSSSSSSSSSSSSSSSSSSSSSSSSSSSSSSSSSSSS",
"SSSSSSSSSSSSSSSSSSSSSSSSSSSSSSSSSSSSSSSSSSSSSSSSSSSSSSSSSSSSSSSS",
"SSSSSSSSSSSSSSSSSSSSSSSSSSSSSSSSSSSSSSSSSSSSSSSSSSSSSSSSSSSSSSSS",
"SSSSSSSSSSSSSSSSSSSSSSSSSSSSSSSSSSSSSSSSSSSSSSSSSSSSSSSSSSSSSSSS",
"SSSSSSSSSSSSSSSSSSSSSSSSSSSSSSSSSSSSSSSSSSSSSSSSSSSSSSSSSSSSSSSS"
};
