/* XPM */
static char *_552053691268[] = {
/* columns rows colors chars-per-pixel */
"64 64 66 1 ",
"  c black",
". c #010101",
"X c #020202",
"o c gray1",
"O c #040404",
"+ c gray2",
"@ c #060606",
"# c #070707",
"$ c gray3",
"% c #090909",
"& c gray4",
"* c #0C0C0C",
"= c gray5",
"- c #0E0E0E",
"; c #111111",
": c gray7",
"> c #151515",
", c #161616",
"< c gray9",
"1 c #181818",
"2 c #191919",
"3 c gray10",
"4 c gray12",
"5 c #222222",
"6 c #232323",
"7 c #272727",
"8 c #282828",
"9 c #313131",
"0 c #323232",
"q c gray20",
"w c #343434",
"e c #353535",
"r c gray22",
"t c #3E3E3E",
"y c #3F3F3F",
"u c gray25",
"i c gray26",
"p c #434343",
"a c #444444",
"s c gray27",
"d c #464646",
"f c gray28",
"g c #4C4C4C",
"h c gray30",
"j c #4E4E4E",
"k c gray31",
"l c #505050",
"z c #515151",
"x c gray32",
"c c #535353",
"v c gray33",
"b c #626262",
"n c gray39",
"m c #646464",
"M c gray40",
"N c DimGray",
"B c #6A6A6A",
"V c gray42",
"C c #6C6C6C",
"Z c #6D6D6D",
"A c gray43",
"S c #6F6F6F",
"D c #747474",
"F c gray46",
"G c #777777",
"H c SkyBlue",
/* pixels */
"GGGGGGGGGGGGGGGGGGGGGGGGGGGGGGGGGZzw6;%  %;60jZGGGGGGGGGGGGGGGGG",
"GGGGGGGGGGGGGGGGGGGGGGGGGGGGGGZu1              1uZGGGGGGGGGGGGGG",
"GGGGGGGGGGGGGGGGGGGGGGGGGGGGBw#                  #wBGGGGGGGGGGGG",
"GGGGGGGGGGGGGGGGGGGGGGGGGGGu#                      #yGGGGGGGGGGG",
"GGGGGGGGGGGGGGGGGGGGGGGGGm1       1wzbDGGZbzr1       ,bGGGGGGGGG",
"GGGGGGGGGGGGGGGGGGGGGGGGz%     -yBGGGGGGGGGGGGBy-     #zGGGGGGGG",
"GGGGGGGGGGGGGGGGGGGGGGGf     %aGGGGGGGGGGGGGGGGGDa%     aGGGGGGG",
"GGGGGGGGGGGGGGGGGGGGGGa     8ZGGGGGGGGGGGGGGGGGGGGZ8     aGGGGGG",
"GGGGGGGGGGGGGGGGGGGGGz     aGGGGGGGGGGGGGGGGGGGGGGGGa     zGGGGG",
"GGGGGGGGGGGGGGGGGGGGm#   #vGGGGGGGGGGGGGGGGGGGGGGGGGGv#   #mGGGG",
"GGGGGGGGGGGGGGGGGGGG,    zGGGGGGGGGGGGGGGGGGGGGGGGGGGGv    ,GGGG",
"GGGGGGGGGGGGGGGGGGGu    aGGGGGGGGGGGG      GGGGGGGGGGGGu    yGGG",
"GGGGGGGGGGGGGGGGGGZ#   8GGGGGGGGGGGGG      GGGGGGGGGGGGG8   #BGG",
"GGGGGGGGGGGGGGGGGGw   %ZGGGGGGGGGGGGG  HH  GGGGGGGGGGGGGD%   0GG",
"GGGGGGGGGGGGGGGGGZ#   aGGGGGGGGGGGGGG  HH  GGGGGGGGGGGGGGa   #ZG",
"GGGGGGGGGGGGGGGGGu   -GGGGGGGGGGGGGGG  HH  GGGGGGGGGGGGGGG-   uG",
"GGGGGGGGGGGGGGGGG1   yGGGGGGGGGGGGGGG  HH  GGGGGGGGGGGGGGGu   1G",
"GGGGGGGGGGGGGGGGZ    BGGGGGGGGGGGGGGG  HH  GGGGGGGGGGGGGGGZ    Z",
"GGGGGGGGGGGGGGGGj   1GGGGGGGGGGGGGGGG  HH  GGGGGGGGGGGGGGGG3   j",
"GGGGGGGGGGGGGGGGw   rGGGGGGGGGGGGGGGG  HH  GGGGGGGGGGGGGGGGr   0",
"GGGGGGGGGGGGGGGG6   zGGGGGGGGGGGGGGGG  HH  GGGGGGGGGGGGGGGGz   6",
"GGGGGGGGGGGGGGGG;   bGGGGGGGGGGGGGGGG  HH  GGGGGGGGGGGGGGGGb   ;",
"GGGGGGGGGGGGGGGG#   ZGGGGG             HH             GGGGGZ   %",
"GGGGGGGGGGGGGGGG    GGGGGG             HH             GGGGGG    ",
"GGGGGGGGGGGGGGGG    GGGGGG  HHHHHHHHHHHHHHHHHHHHHHHH  GGGGGG    ",
"GGGGGGGGGGGGGGGG#   ZGGGGG  HHHHHHHHHHHHHHHHHHHHHHHH  GGGGGZ   #",
"GGGGGGGGGGGGGGGG;   bGGGGG             HH             GGGGGb   ;",
"GGGGGGGGGGGGGGGG6   zGGGGG             HH             GGGGGj   6",
"GGGGGGGGGGGGGGGGw   rGGGGGGGGGGGGGGGG  HH  GGGGGGGGGGGGGGGGr   w",
"GGGGGGGGGGGGGGGGj   1GGGGGGGGGGGGGGGG  HH  GGGGGGGGGGGGGGGG1   j",
"GGGGGGGGGGGGGGGGZ    BGGGGGGGGGGGGGGG  HH  GGGGGGGGGGGGGGGB    B",
"GGGGGGGGGGGGGGGGG1   uGGGGGGGGGGGGGGG  HH  GGGGGGGGGGGGGGGy   1G",
"GGGGGGGGGGGGGGGGGu   -GGGGGGGGGGGGGGG  HH  GGGGGGGGGGGGGGG-   uG",
"GGGGGGGGGGGGGGGGGZ#   uGGGGGGGGGGGGGG  HH  GGGGGGGGGGGGGGa   #ZG",
"GGGGGGGGGGGGGGGGGGw   %ZGGGGGGGGGGGGG  HH  GGGGGGGGGGGGGD%   0GG",
"GGGGGGGGGGGGGGGGGGZ#   8GGGGGGGGGGGGG  HH  GGGGGGGGGGGGG7   #BGG",
"GGGGGGGGGGGGGGGGGGGu    aGGGGGGGGGGGG  HH  GGGGGGGGGGGGa    uGGG",
"GGGGGGGGGGGGGGGGGGGG,    vGGGGGGGGGGG      GGGGGGGGGGGv    ,GGGG",
"GGGGGGGGGGGGGGGGGGGGm#   #zGGGGGGGGGG      GGGGGGGGGGz#   #bGGGG",
"GGGGGGGGGGGGGGGGGGGGGv     aGGGGGGGGGGGGGGGGGGGGGGGGa#    zGGGGG",
"GGGGGGGGGGGGGGGGGGGGGj      7ZGGGGGGGGGGGGGGGGGGGGZ7     aGGGGGG",
"GGGGGGGGGGGGGGGGGGGGj        %aDGGGGGGGGGGGGGGGGGa%     fGGGGGGG",
"GGGGGGGGGGGGGGGGGGGj     #     -yZGGGGGGGGGGGGBy-     #zGGGGGGGG",
"GGGGGGGGGGGGGGGGGGj     jm,       1rzbZGGZbzr1       ,bGGGGGGGGG",
"GGGGGGGGGGGGGGGGGj#    jGGGy#                      #uGGGGGGGGGGG",
"GGGGGGGGGGGGGGGGj     jGGGGGBw#                  #0BGGGGGGGGGGGG",
"GGGGGGGGGGGGGGGj     jGGGGGGGGDu1              1uZGGGGGGGGGGGGGG",
"GGGGGGGGGGGGGGj     fGGGGGGGGGGGGZjw6;%  %;60jZGGGGGGGGGGGGGGGGG",
"GGGGGGGGGGGGGj     fGGGGGGGGGGGGGGGGGGGGGGGGGGGGGGGGGGGGGGGGGGGG",
"GGGGGGGGGGGGj     jGGGGGGGGGGGGGGGGGGGGGGGGGGGGGGGGGGGGGGGGGGGGG",
"GGGGGGGGGGGj     jGGGGGGGGGGGGGGGGGGGGGGGGGGGGGGGGGGGGGGGGGGGGGG",
"GGGGGGGGGGj     jGGGGGGGGGGGGGGGGGGGGGGGGGGGGGGGGGGGGGGGGGGGGGGG",
"GGGGGGGGGj#    jGGGGGGGGGGGGGGGGGGGGGGGGGGGGGGGGGGGGGGGGGGGGGGGG",
"GGGGGGGGj     jGGGGGGGGGGGGGGGGGGGGGGGGGGGGGGGGGGGGGGGGGGGGGGGGG",
"GGGGGGGj     jGGGGGGGGGGGGGGGGGGGGGGGGGGGGGGGGGGGGGGGGGGGGGGGGGG",
"GGGGGGj     fGGGGGGGGGGGGGGGGGGGGGGGGGGGGGGGGGGGGGGGGGGGGGGGGGGG",
"GGGGGj#    jGGGGGGGGGGGGGGGGGGGGGGGGGGGGGGGGGGGGGGGGGGGGGGGGGGGG",
"GGGGj     fGGGGGGGGGGGGGGGGGGGGGGGGGGGGGGGGGGGGGGGGGGGGGGGGGGGGG",
"GGGj     jGGGGGGGGGGGGGGGGGGGGGGGGGGGGGGGGGGGGGGGGGGGGGGGGGGGGGG",
"GGj     jGGGGGGGGGGGGGGGGGGGGGGGGGGGGGGGGGGGGGGGGGGGGGGGGGGGGGGG",
"Gj     fGGGGGGGGGGGGGGGGGGGGGGGGGGGGGGGGGGGGGGGGGGGGGGGGGGGGGGGG",
"j     jGGGGGGGGGGGGGGGGGGGGGGGGGGGGGGGGGGGGGGGGGGGGGGGGGGGGGGGGG",
"     jGGGGGGGGGGGGGGGGGGGGGGGGGGGGGGGGGGGGGGGGGGGGGGGGGGGGGGGGGG",
"    jGGGGGGGGGGGGGGGGGGGGGGGGGGGGGGGGGGGGGGGGGGGGGGGGGGGGGGGGGGG"
};
