/* XPM */
static char *_552053694025[] = {
/* columns rows colors chars-per-pixel */
"64 64 124 2 ",
"   c black",
".  c #000001",
"X  c #000101",
"o  c #010101",
"O  c #000102",
"+  c #020202",
"@  c gray1",
"#  c #040302",
"$  c #060302",
"%  c #060403",
"&  c #010304",
"*  c #010405",
"=  c #030506",
"-  c #040404",
";  c gray2",
":  c #070504",
">  c #040506",
",  c #040607",
"<  c #060606",
"1  c #070707",
"2  c #080707",
"3  c #060B0E",
"4  c #060C0E",
"5  c #090909",
"6  c gray4",
"7  c #0B0A0A",
"8  c #0B0B0B",
"9  c #0C0B0B",
"0  c #080D0F",
"q  c #0C0C0C",
"w  c #0D0D0C",
"e  c gray5",
"r  c #0E0E0E",
"t  c #0F0E0E",
"y  c #0F0F0E",
"u  c gray6",
"i  c #100F0F",
"p  c #10100F",
"a  c #070D10",
"s  c #080D10",
"d  c #0C1316",
"f  c #0E1518",
"g  c #101010",
"h  c #111010",
"j  c #111111",
"k  c #131313",
"l  c #161616",
"z  c gray9",
"x  c #181818",
"c  c #191919",
"v  c #1B1B1B",
"b  c gray11",
"n  c #1D1D1D",
"m  c #18242A",
"M  c #1B292B",
"N  c #202020",
"B  c gray13",
"V  c #222222",
"C  c #232323",
"Z  c gray14",
"A  c #252525",
"S  c gray15",
"D  c #272727",
"F  c #282828",
"G  c gray16",
"H  c #2A2A2A",
"J  c gray17",
"K  c #2C2C2C",
"L  c #2D2D2D",
"P  c gray18",
"I  c #2F2F2F",
"U  c #22353C",
"Y  c #23353D",
"T  c gray19",
"R  c #313131",
"E  c #323232",
"W  c gray20",
"Q  c #343434",
"!  c #353535",
"~  c gray21",
"^  c #373737",
"/  c gray22",
"(  c #393939",
")  c #3A3A3A",
"_  c gray23",
"`  c #3C3C3C",
"'  c gray24",
"]  c #3E3E3E",
"[  c #3F3F3F",
"{  c #253941",
"}  c #263A42",
"|  c #263B43",
" . c #283D45",
".. c #2B414B",
"X. c #2B434C",
"o. c #304A54",
"O. c #334D58",
"+. c #334E59",
"@. c #38555C",
"#. c #3B5A67",
"$. c #3F606E",
"%. c gray25",
"&. c #414141",
"*. c gray26",
"=. c #434343",
"-. c #444444",
";. c gray27",
":. c #464646",
">. c gray28",
",. c #494949",
"<. c #436675",
"1. c #456978",
"2. c #476C78",
"3. c #466C7B",
"4. c #476D7C",
"5. c #4A717F",
"6. c #4E777C",
"7. c #4F797F",
"8. c #507A7F",
"9. c #507B7F",
"0. c #517C7F",
"q. c #517D7F",
"w. c #527D7F",
"e. c #5B7F7F",
/* pixels */
"_ _ _ _ _ _ _ _ _ _ _ _ _ _ _ _ _ _ _ _ _ _ _ _ _ _ _ _ _ _ _ _ _ _ _ _ _ _ _ _ _ _ _ _ _ _ _ _ _ _ _ _ _ _ _ _ _ _ _ _ _ _ _ _ ",
"_ _ _ _ _ _ _ _ _ _ _ _ _ _ _ _ _ _ _ _ _ _ _ _ _ _ _ _ _ _ _ _ _ _ _ _ _ _ _ _ _ _ _ _ _ _ _ _ _ _ _ _ _ _ _ _ _ _ _ _ _ _ _ _ ",
"_ _ _ _ _ _ _ _ _ _ _ _ _ _ _ _ _ _ _ _ _ _ _ _ _ _ _ _ _ _ _ _ _ _ _ _ _ _ _ _ _ _ _ _ _ _ _ _ _ _ _ _ _ _ _ _ _ _ _ _ _ _ _ _ ",
"_ _ _ _ _ _ _ _ _ _ _ _ _ _ _ _ _ _ _ _ _ _ _ _ _ _ _ _ _ _ _ _ _ _ _ _ _ _ _ _ _ _ _ _ _ _ _ _ _ _ _ _ _ _ _ _ _ _ _ _ _ _ _ _ ",
"_ _ _ _ _ _ _ _ _ _ _ _ _ _ _ _ _ _ _ _ _ _ _ _ _ _ _ _ _ _ _ _ _ _ _ _ _ ` ` _ ` _ _ _ _ _ _ _ _ _ _ _ _ _ _ _ _ _ _ _ _ _ _ _ ",
"_ _ _ _ _ _ _ _ _ _ _ _ _ _ _ _ _ _ _ _ _ _ _ _ _ _ _ _ _ _ _ _ ! A z k <       < r c A ! _ _ ` _ _ _ _ _ _ _ _ _ _ _ _ _ _ _ _ ",
"_ _ _ _ _ _ _ _ _ _ _ _ _ _ _ _ _ _ _ _ _ _ _ _ _ _ _ _ _ _ A r                           r A _ _ _ _ _ _ _ _ _ _ _ _ _ _ _ _ _ ",
"_ _ _ _ _ _ _ _ _ _ _ _ _ _ _ _ _ _ _ _ _ _ _ _ _ _ _ _ A <                                   < A _ _ _ _ _ _ _ _ _ _ _ _ _ _ _ ",
"_ _ _ _ _ _ _ _ _ _ _ _ _ _ _ _ _ _ _ _ _ _ _ _ _ _ W r                                           r W _ _ _ _ _ _ _ _ _ _ _ _ _ ",
"_ _ _ _ _ _ _ _ _ _ _ _ _ _ _ _ _ _ _ _ _ _ _ _ _ H               8 n H W ! _ ! W H n 8               H _ _ _ _ _ _ _ _ _ _ _ _ ",
"_ _ _ _ _ _ _ _ _ _ _ _ _ _ _ _ _ _ _ _ _ _ _ _ n             c W _ _ _ _ _ _ _ _ _ _ _ W z             B _ _ _ _ _ _ _ _ _ _ _ ",
"_ _ _ _ _ _ _ _ _ _ _ _ _ _ _ _ _ _ _ _ _ _ _ B           k W _ _ _ _ _ _ _ _ _ _ _ _ _ _ _ W k           B _ _ _ _ _ _ _ _ _ _ ",
"_ _ _ _ _ _ _ _ _ _ _ _ _ _ _ _ _ _ _ _ _ _ A           B _ _ _ _ _ ` _ _ _ ` ` _ _ _ _ _ _ _ _ B           A _ _ _ _ _ _ _ _ _ ",
"_ _ _ _ _ _ _ _ _ _ _ _ _ _ _ _ _ _ _ _ _ W <         P _ _ _ _ _ _ ` ` %.%.%.%.%.` _ _ _ _ _ _ _ H         < W _ _ _ _ _ _ _ _ ",
"_ _ _ _ _ _ _ _ _ _ _ _ _ _ _ _ _ _ _ _ _ r         P _ _ _ _ _ _ _ _ ` c r 9 r k W ` _ _ _ _ _ _ _ P         r _ _ _ _ _ _ _ _ ",
"_ _ _ _ _ _ _ _ _ _ _ _ _ _ _ _ _ _ _ ` B         B _ _ _ _ _ _ _ _ _ ` <   *     H %.` _ _ _ _ _ _ _ B         A _ _ _ _ _ _ _ ",
"_ _ _ _ _ _ _ _ _ _ _ _ _ _ _ _ _ _ _ _ <       k _ _ _ _ _ _ _ _ _ ` ` $ 3 6.|   P %._ _ _ _ _ _ _ _ _ k       < _ _ _ _ _ _ _ ",
"_ _ _ _ _ _ _ _ _ _ _ _ _ _ _ _ _ _ _ A         W _ _ _ _ _ _ _ _ ` ` [ $ 4 8. .  P %._ _ _ _ _ _ _ _ _ W         A _ _ _ _ _ _ ",
"_ _ _ _ _ _ _ _ _ _ _ _ _ _ _ _ _ _ _ r       c _ _ _ _ _ _ _ _ _ _ _ ` $ 4 8.Y   P %.` _ _ _ _ _ _ _ _ _ z       r ` _ _ _ _ _ ",
"_ _ _ _ _ _ _ _ _ _ _ _ _ _ _ _ _ _ !         W _ _ _ _ _ _ _ _ _ _ ` [ $ 4 8.|   J %._ _ _ _ _ _ _ _ _ _ W         ! ` _ _ _ _ ",
"_ _ _ _ _ _ _ _ _ _ _ _ _ _ _ _ _ _ A       r _ _ _ _ _ _ _ _ _ _ _ _ ` $ 0 8.|   H %._ _ _ _ _ _ _ _ _ _ _ 8       A _ _ _ _ _ ",
"_ _ _ _ _ _ _ _ _ _ _ _ _ _ _ _ _ ` c       c _ _ _ _ _ _ _ _ ` _ _ ` [ # 3 8.|   P %._ _ _ _ _ _ _ _ _ _ _ c       z _ _ _ _ _ ",
"_ _ _ _ _ _ _ _ _ _ _ _ _ _ _ _ _ _ r       H _ _ _ ` %.%.;.%.;.=.=.=.>.< 3 8.|   W ,.;.=.=.=.=.%.;.` _ _ _ H       k _ _ _ _ _ ",
"_ _ _ _ _ _ _ _ _ _ _ _ _ _ _ _ _ _ <       W _ _ ` _ Z A A A A Z Z A A # s 8.|   c D A Z Z Z A A A P %._ _ W       < _ _ _ _ _ ",
"_ _ _ _ _ _ _ _ _ _ _ _ _ _ _ _ _ _         _ _ _ %.P                     < w.U                     k ;._ _ !         ` ` _ _ _ ",
"_ _ _ _ _ _ _ _ _ _ _ _ _ _ _ _ _ _         ! ` _ %.W   m @.o.o.o.o.o.o.o.+.3.#.o.o.o.o.o.o.o.+...  z ;._ _ _         _ ` _ _ _ ",
"_ _ _ _ _ _ _ _ _ _ _ _ _ _ _ _ _ _ <       ! _ _ %.P   Y w.4.4.4.4.4.4.4.3.<.1.4.4.4.4.4.4.4.5.$.  z %._ _ !         _ _ _ _ _ ",
"_ _ _ _ _ _ _ _ _ _ _ _ _ _ _ _ _ ` <       W _ _ %.P                   * f 7. .1         O   O     k ;._ _ W       8 _ _ _ _ _ ",
"_ _ _ _ _ _ _ _ _ _ _ _ _ _ _ _ _ _ r       H _ _ ` ! k p r i r y y p p   0 8.|   8 i p r i r k r k B %._ _ A       r _ _ _ _ _ ",
"_ _ _ _ _ _ _ _ _ _ _ _ _ _ _ _ _ _ c       c _ ` ` ` %.%.-.;.%.=.=.=.>.< 3 8.|   W ,.%.=.;.%.%.;.%.%._ _ _ n       z _ _ _ _ _ ",
"_ _ _ _ _ _ _ _ _ _ _ _ _ _ _ _ _ _ A       8 _ _ _ _ _ ` _ _ _ _ _ _ ` $ 4 8.|   P %._ ` _ _ _ _ _ ` _ _ _ 8       H _ _ _ _ _ ",
"_ _ _ _ _ _ _ _ _ _ _ _ _ _ _ _ _ _ !         W _ _ _ _ ` ` _ _ _ _ _ [ $ 0 8.Y   L %._ _ _ _ _ _ _ _ _ _ W         ! _ _ _ _ _ ",
"_ _ _ _ _ _ _ _ _ _ _ _ _ _ _ _ _ _ _ r       c _ _ _ _ _ _ _ _ _ _ _ ` < 4 8.|   P %._ _ _ _ _ _ _ _ _ _ z       k _ _ _ _ _ _ ",
"_ _ _ _ _ _ _ _ _ _ _ _ _ _ _ _ _ _ _ A         W _ _ _ _ _ _ _ _ _ _ [ $ 4 8.|   H %._ _ _ _ _ _ _ _ _ W         A _ _ _ _ _ _ ",
"_ _ _ _ _ _ _ _ _ _ _ _ _ _ _ _ _ _ _ _ 8       k _ _ _ _ _ _ _ _ _ _ [ $ 4 8.|   P %._ _ _ _ _ _ _ _ _ k       < _ _ _ _ _ _ _ ",
"_ _ _ _ _ _ _ _ _ _ _ _ _ _ _ _ _ _ _ _ A         B _ _ _ _ _ _ _ _ _ ` # 0 e.X.  P %._ _ _ _ _ _ _ _ B         A _ _ _ _ _ _ _ ",
"_ _ _ _ _ _ _ _ _ _ _ _ _ _ _ _ _ _ _ _ _ r         H _ _ _ _ _ _ _ ` [ 2 O M f   P %._ _ _ _ _ _ _ H         r _ _ _ _ _ _ _ _ ",
"_ _ _ _ _ _ _ _ _ _ _ _ _ _ _ _ _ _ _ _ _ W           H _ _ _ _ _ _ _ ` 9         P %._ _ _ _ _ _ H           W _ _ _ _ _ _ _ _ ",
"_ _ _ _ _ _ _ _ _ _ _ _ _ _ _ _ _ _ _ _ _ _ H           B ` _ _ _ _ _ ` / ^ ! ! ! _ _ _ _ _ _ _ B           H _ _ _ _ _ _ _ _ _ ",
"_ _ _ _ _ _ _ _ _ _ _ _ _ _ _ _ _ _ _ _ _ _ ! <           r W _ _ _ ` ` ` ` [ ` ` _ _ _ _ _ W k           A _ _ _ _ _ _ _ _ _ _ ",
"_ _ _ _ _ _ _ _ _ _ _ _ _ _ _ _ _ _ _ _ _ ! 8                 c W _ _ _ _ _ _ _ _ ` _ _ W z             B _ _ _ _ _ _ _ _ _ _ _ ",
"_ _ _ _ _ _ _ _ _ _ _ _ _ _ _ _ _ _ _ _ ! 8       <               8 c D W / ! / W A c 8               H _ _ _ _ _ _ _ _ _ _ _ _ ",
"_ _ _ _ _ _ _ _ _ _ _ _ _ _ _ _ _ _ _ ! 8       8 ! W r                                           r ! _ _ _ _ _ _ _ _ _ _ _ _ _ ",
"_ _ _ _ _ _ _ _ _ _ _ _ _ _ _ _ _ _ ! 8       8 ! _ _ _ A 8                                   2 A ` _ _ _ _ _ _ _ _ _ _ _ _ _ _ ",
"_ _ _ _ _ _ _ _ _ _ _ _ _ _ _ _ _ ! 8       8 ! _ _ _ _ _ _ A k                           k A _ ` _ _ _ _ _ _ _ _ _ _ _ _ _ _ _ ",
"_ _ _ _ _ _ _ _ _ _ _ _ _ _ _ _ ! 8       8 ! _ _ _ _ _ _ _ _ _ / A c r < <   # 2 d x D ! _ _ _ ` _ _ _ _ _ _ _ _ _ _ _ _ _ _ _ ",
"_ _ _ _ _ _ _ _ _ _ _ _ _ _ _ ! 8       8 ! _ _ _ _ _ _ _ _ _ _ ` _ _ _ _ _ _ _ ` ` ` ` ` _ _ _ _ _ _ _ _ _ _ _ _ _ _ _ _ _ _ _ ",
"_ _ _ _ _ _ _ _ _ _ _ _ _ _ ! 8       8 ! _ _ _ _ _ _ _ _ _ _ _ _ _ _ _ _ _ _ _ ` / ` / _ _ _ _ _ _ _ _ _ _ _ _ _ _ _ _ _ _ _ _ ",
"_ _ _ _ _ _ _ _ _ _ _ _ _ ! 8       8 ! ` _ _ _ _ _ _ _ _ _ _ _ _ _ _ _ _ _ _ _ _ _ _ _ _ _ _ _ _ _ _ _ _ _ _ _ _ _ _ _ _ _ _ _ ",
"_ _ _ _ _ _ _ _ _ _ _ ` ! 8       8 ! _ _ _ _ _ _ _ _ _ _ _ _ _ _ _ _ _ _ _ _ _ _ _ _ _ _ _ _ _ _ _ _ _ _ _ _ _ _ _ _ _ _ _ _ _ ",
"_ _ _ _ _ _ _ _ _ _ _ ! 8       8 ! _ _ _ _ _ _ _ _ _ _ _ _ _ _ _ _ _ _ _ _ _ _ _ _ _ _ _ _ _ _ _ _ _ _ _ _ _ _ _ _ _ _ _ _ _ _ ",
"_ _ _ _ _ _ _ _ _ _ ! 8       8 ! _ _ _ _ _ _ _ _ _ _ _ _ _ _ _ _ _ _ _ _ _ _ _ _ _ _ _ _ _ _ _ _ _ _ _ _ _ _ _ _ _ _ _ _ _ _ _ ",
"_ _ _ _ _ _ _ _ _ ! 8       8 ! _ _ _ _ _ _ _ _ _ _ _ _ _ _ _ _ _ _ _ _ _ _ _ _ _ _ _ _ _ _ _ _ _ _ _ _ _ _ _ _ _ _ _ _ _ _ _ _ ",
"_ _ _ _ _ _ _ ` ! 8       8 ! _ _ _ _ _ _ _ _ _ _ _ _ _ _ _ _ _ _ _ _ _ _ _ _ _ _ _ _ _ _ _ _ _ _ _ _ _ _ _ _ _ _ _ _ _ _ _ _ _ ",
"_ _ _ _ _ _ _ ! 8       8 ! _ _ _ _ _ _ _ _ _ _ _ _ _ _ _ _ _ _ _ _ _ _ _ _ _ _ _ _ _ _ _ _ _ _ _ _ _ _ _ _ _ _ _ _ _ _ _ _ _ _ ",
"_ _ _ _ _ _ ! 8       8 ! _ _ _ _ _ _ _ _ _ _ _ _ _ _ _ _ _ _ _ _ _ _ _ _ _ _ _ _ _ _ _ _ _ _ _ _ _ _ _ _ _ _ _ _ _ _ _ _ _ _ _ ",
"_ _ _ _ _ ! 8       8 ! _ _ _ _ _ _ _ _ _ _ _ _ _ _ _ _ _ _ _ _ _ _ _ _ _ _ _ _ _ _ _ _ _ _ _ _ _ _ _ _ _ _ _ _ _ _ _ _ _ _ _ _ ",
"_ _ _ _ ! 8       8 ! _ _ _ _ _ _ _ _ _ _ _ _ _ _ _ _ _ _ _ _ _ _ _ _ _ _ _ _ _ _ _ _ _ _ _ _ _ _ _ _ _ _ _ _ _ _ _ _ _ _ _ _ _ ",
"_ _ _ _ r       8 ! _ _ _ _ _ _ _ _ _ _ _ _ _ _ _ _ _ _ _ _ _ _ _ _ _ _ _ _ _ _ _ _ _ _ _ _ _ _ _ _ _ _ _ _ _ _ _ _ _ _ _ _ _ _ ",
"_ _ _ _ W <   8 ! _ _ _ _ _ _ _ _ _ _ _ _ _ _ _ _ _ _ _ _ _ _ _ _ _ _ _ _ _ _ _ _ _ _ _ _ _ _ _ _ _ _ _ _ _ _ _ _ _ _ _ _ _ _ _ ",
"_ _ _ _ _ W r W _ _ _ _ _ _ _ _ _ _ _ _ _ _ _ _ _ _ _ _ _ _ _ _ _ _ _ _ _ _ _ _ _ _ _ _ _ _ _ _ _ _ _ _ _ _ _ _ _ _ _ _ _ _ _ _ ",
"_ _ _ _ _ _ _ _ _ _ _ _ _ _ _ _ _ _ _ _ _ _ _ _ _ _ _ _ _ _ _ _ _ _ _ _ _ _ _ _ _ _ _ _ _ _ _ _ _ _ _ _ _ _ _ _ _ _ _ _ _ _ _ _ ",
"_ _ _ _ _ _ _ _ _ _ _ _ _ _ _ _ _ _ _ _ _ _ _ _ _ _ _ _ _ _ _ _ _ _ _ _ _ _ _ _ _ _ _ _ _ _ _ _ _ _ _ _ _ _ _ _ _ _ _ _ _ _ _ _ ",
"_ _ _ _ _ _ _ _ _ _ _ _ _ _ _ _ _ _ _ _ _ _ _ _ _ _ _ _ _ _ _ _ _ _ _ _ _ _ _ _ _ _ _ _ _ _ _ _ _ _ _ _ _ _ _ _ _ _ _ _ _ _ _ _ "
};
