/* XPM */
static char * arr_up_xpm[] = {
"64 64 166 2",
"  	c None",
". 	c #000000",
"+ 	c #020D10",
"@ 	c #000202",
"# 	c #045D77",
"$ 	c #02181E",
"% 	c #03A5D3",
"& 	c #000102",
"* 	c #04546B",
"= 	c #00C2FA",
"- 	c #02090C",
"; 	c #03AFE0",
"> 	c #00BCF2",
", 	c #055C74",
"' 	c #00C1F8",
") 	c #00BAEF",
"! 	c #02090B",
"~ 	c #02B6EA",
"{ 	c #00BBF0",
"] 	c #056986",
"^ 	c #00BDF3",
"/ 	c #03171C",
"( 	c #02AFE0",
"_ 	c #046F8E",
": 	c #00B9ED",
"< 	c #03222A",
"[ 	c #02A2CF",
"} 	c #00BAF0",
"| 	c #010000",
"1 	c #036581",
"2 	c #01BBF0",
"3 	c #022129",
"4 	c #029CC8",
"5 	c #000203",
"6 	c #03576F",
"7 	c #01C1F7",
"8 	c #02151A",
"9 	c #03A3D1",
"0 	c #000101",
"a 	c #04556C",
"b 	c #02080A",
"c 	c #03B1E3",
"d 	c #00BCF1",
"e 	c #055E77",
"f 	c #020B0D",
"g 	c #02B6E9",
"h 	c #056C89",
"i 	c #03191F",
"j 	c #02ACDD",
"k 	c #036F8D",
"l 	c #03222B",
"m 	c #02A0CD",
"n 	c #03627D",
"o 	c #01BCF2",
"p 	c #021F28",
"q 	c #029DC8",
"r 	c #03556D",
"s 	c #01C1F8",
"t 	c #021217",
"u 	c #03A6D4",
"v 	c #04566D",
"w 	c #00C2F9",
"x 	c #020708",
"y 	c #03B3E6",
"z 	c #00BBF1",
"A 	c #05607A",
"B 	c #00C0F7",
"C 	c #030D10",
"D 	c #02B5E8",
"E 	c #046D8B",
"F 	c #031C22",
"G 	c #01AAD9",
"H 	c #036D8B",
"I 	c #00BFF5",
"J 	c #02BEF3",
"K 	c #03232C",
"L 	c #029ECB",
"M 	c #037595",
"N 	c #020A0D",
"O 	c #020A0C",
"P 	c #037495",
"Q 	c #035F79",
"R 	c #01BDF3",
"S 	c #00B9EE",
"T 	c #01A8D8",
"U 	c #033B4A",
"V 	c #033A49",
"W 	c #02A8D8",
"X 	c #021E25",
"Y 	c #039DC9",
"Z 	c #01B0E3",
"` 	c #027697",
" .	c #020C10",
"..	c #01B0E2",
"+.	c #03546B",
"@.	c #01C2F9",
"#.	c #0296C0",
"$.	c #024052",
"%.	c #023F51",
"&.	c #0295C0",
"*.	c #020F13",
"=.	c #03A8D8",
"-.	c #01BEF3",
";.	c #026581",
">.	c #01171D",
",.	c #01161D",
"'.	c #026480",
").	c #05576F",
"!.	c #03A2CF",
"~.	c #022B36",
"{.	c #000506",
"].	c #022A36",
"^.	c #03A1CF",
"/.	c #03B5E8",
"(.	c #036D8C",
"_.	c #00080A",
":.	c #000809",
"<.	c #05637D",
"[.	c #00BFF6",
"}.	c #01A0CD",
"|.	c #033C4D",
"1.	c #033B4D",
"2.	c #031013",
"3.	c #02B4E7",
"4.	c #00BEF5",
"5.	c #01B1E2",
"6.	c #02161B",
"7.	c #02151B",
"8.	c #046F8D",
"9.	c #00C3FA",
"0.	c #0292BB",
"a.	c #024152",
"b.	c #0291BB",
"c.	c #01C3FA",
"d.	c #031E25",
"e.	c #01A7D6",
"f.	c #00BEF4",
"g.	c #01B8EC",
"h.	c #02637E",
"i.	c #01181F",
"j.	c #01181E",
"k.	c #02627E",
"l.	c #036B89",
"m.	c #01B9EE",
"n.	c #02A2D0",
"o.	c #02313F",
"p.	c #02313E",
"q.	c #029DC9",
"r.	c #03799B",
"s.	c #010709",
"t.	c #010609",
"u.	c #03789B",
"v.	c #035E77",
"w.	c #01A4D3",
"x.	c #033D4D",
"y.	c #033C4C",
"z.	c #02A4D3",
"A.	c #021F27",
"B.	c #0495BF",
"C.	c #021115",
"D.	c #021015",
"E.	c #027596",
"F.	c #0495BE",
"G.	c #05313E",
"H.	c #034659",
"I.	c #034558",
"                                                              . .                                                               ",
"                                                            . . . .                                                             ",
"                                                            . . . .                                                             ",
"                                                          . . . . . .                                                           ",
"                                                        . . . . . . . .                                                         ",
"                                                        . . . . . . . .                                                         ",
"                                                      . . . . + + . . . .                                                       ",
"                                                      . . . @ # # @ . . .                                                       ",
"                                                    . . . . $ % % $ . . . .                                                     ",
"                                                    . . . & * = = * & . . .                                                     ",
"                                                    . . . - ; > > ; - . . .                                                     ",
"                                                  . . . . , ' ) ) ' , . . . .                                                   ",
"                                                  . . . ! ~ { ) ) { ~ ! . . .                                                   ",
"                                                . . . . ] ^ ) ) ) ) ^ ] . . . .                                                 ",
"                                                . . . / ( ) ) ) ) ) ) ( / . . .                                                 ",
"                                              . . . . _ : ) ) ) ) ) ) : _ . . . .                                               ",
"                                            . . . . < [ } ) ) ) ) ) ) } [ < . . . .                                             ",
"                                            . . . | 1 2 ) ) ) ) ) ) ) ) 2 1 | . . .                                             ",
"                                          . . . . 3 4 > ) ) ) ) ) ) ) ) > 4 3 . . . .                                           ",
"                                          . . . 5 6 7 ) ) ) ) ) ) ) ) ) ) 7 6 5 . . .                                           ",
"                                        . . . . 8 9 ^ ) ) ) ) ) ) ) ) ) ) ^ 9 8 . . . .                                         ",
"                                        . . . 0 a = ) ) ) ) ) ) ) ) ) ) ) ) = a 0 . . .                                         ",
"                                        . . . b c d ) ) ) ) ) ) ) ) ) ) ) ) d c b . . .                                         ",
"                                      . . . . e ' ) ) ) ) ) ) ) ) ) ) ) ) ) ) ' e . . . .                                       ",
"                                      . . . f g } ) ) ) ) ) ) ) ) ) ) ) ) ) ) } g f . . .                                       ",
"                                    . . . . h > ) ) ) ) ) ) ) ) ) ) ) ) ) ) ) ) > h . . . .                                     ",
"                                    . . . i j ) ) ) ) ) ) ) ) ) ) ) ) ) ) ) ) ) ) j i . . .                                     ",
"                                  . . . | k : ) ) ) ) ) ) ) ) ) ) ) ) ) ) ) ) ) ) : k | . . .                                   ",
"                                . . . . l m { ) ) ) ) ) ) ) ) ) ) ) ) ) ) ) ) ) ) { m l . . . .                                 ",
"                                . . . | n o ) ) ) ) ) ) ) ) ) ) ) ) ) ) ) ) ) ) ) ) o n | . . .                                 ",
"                              . . . . p q ^ ) ) ) ) ) ) ) ) ) ) ) ) ) ) ) ) ) ) ) ) ^ q p . . . .                               ",
"                              . . . 5 r s ) ) ) ) ) ) ) ) ) ) ) ) ) ) ) ) ) ) ) ) ) ) s r 5 . . .                               ",
"                              . . . t u ^ ) ) ) ) ) ) ) ) ) ) ) ) ) ) ) ) ) ) ) ) ) ) ^ u t . . .                               ",
"                            . . . . v w ) ) ) ) ) ) ) ) ) ) ) ) ) ) ) ) ) ) ) ) ) ) ) ) w v . . . .                             ",
"                            . . . x y z ) ) ) ) ) ) ) ) ) ) ) ) ) ) ) ) ) ) ) ) ) ) ) ) z y x . . .                             ",
"                          . . . . A B ) ) ) ) ) ) ) ) ) ) ) ) ) ) ) ) ) ) ) ) ) ) ) ) ) ) B A . . . .                           ",
"                          . . . C D ) ) ) ) ) ) ) ) ) ) ) ) ) ) ) ) ) ) ) ) ) ) ) ) ) ) ) ) D C . . .                           ",
"                        . . . . E z ) ) ) ) ) ) ) ) ) ) ) ) ) ) ) ) ) ) ) ) ) ) ) ) ) ) ) ) z E . . . .                         ",
"                      . . . . F G ) ) ) ) ) ) ) ) ) ) ) ) ) ) { { ) ) ) ) ) ) ) ) ) ) ) ) ) ) G F . . . .                       ",
"                      . . . | H : ) ) ) ) ) ) ) ) ) ) ) ) ) I J J I ) ) ) ) ) ) ) ) ) ) ) ) ) : H | . . .                       ",
"                    . . . . K L { ) ) ) ) ) ) ) ) ) ) ) ) ) M N O P ) ) ) ) ) ) ) ) ) ) ) ) ) { L K . . . .                     ",
"                    . . . | Q R ) ) ) ) ) ) ) ) ) ) { S T U . . . . V W S { ) ) ) ) ) ) ) ) ) ) R Q | . . .                     ",
"                  . . . . X Y ^ ) ) ) ) ) ) ) ) ) ^ Z ` + . . . . . .  .` ..^ ) ) ) ) ) ) ) ) ) ^ Y X . . . .                   ",
"                  . . . 5 +.@.) ) ) ) ) ) ) ) { I #.$.. . . . . . . . . . %.&.I { ) ) ) ) ) ) ) ) @.+.5 . . .                   ",
"                  . . . *.=.^ ) ) ) ) ) ) ) ^ -.;.>.. . . . . . . . . . . . ,.'.-.^ ) ) ) ) ) ) ) ^ =.*.. . .                   ",
"                . . . . ).w ) ) ) ) ) ) ) w !.~.{.. . . . .         . . . . . {.].^.w ) ) ) ) ) ) ) w ).. . . .                 ",
"                . . . x /.z ) ) ) ) ) } > (._.. . . . . .             . . . . . . :.H o } ) ) ) ) ) z /.x . . .                 ",
"              . . . . <.[.) ) ) ) { ) }.|.. . . . . .                     . . . . . . 1.}.) { ) ) ) ) [.<.. . . .               ",
"              . . . 2.3.) ) ) ) 4.5.` 6.. . . . . .                         . . . . . . 7.` ..4.) ) ) ) 3.2.. . .               ",
"            . . . . 8.) ) ) z 9.0.a.| . . . . .                                 . . . . . | $.b.c.z ) ) ) 8.. . . .             ",
"          . . . . d.e.) ) f.g.h.i.. . . . . .                                     . . . . . . j.k.g.f.) ) e.d.. . . .           ",
"          . . . | l.m.) ^ n.o.5 . . . . .                                             . . . . . 5 p.n.^ ) m.l.| . . .           ",
"        . . . . K q.d S r.s.. . . . . .                                                 . . . . . . t.u.S d q.K . . . .         ",
"        . . . | v.-.w.x.. . . . . .                                                         . . . . . . y.z.R v.| . . .         ",
"      . . . . A.B.` C.. . . . . .                                                             . . . . . . D.E.F.A.. . . .       ",
"      . . . @ G.H.@ . . . . .                                                                     . . . . . & I.G.@ . . .       ",
"      . . . 0 O . . . . . .                                                                         . . . . . . O 0 . . .       ",
"    . . . . . . . . . .                                                                                 . . . . . . . . . .     ",
"    . . . . . . . . .                                                                                     . . . . . . . . .     ",
"  . . . . . . . .                                                                                             . . . . . . . .   ",
"  . . . . . . .                                                                                                 . . . . . . .   ",
". . . . . .                                                                                                         . . . . . . ",
". . . . .                                                                                                             . . . . . ",
"  . .                                                                                                                     . .   "};
