/* XPM */
static char * arr_right_xpm[] = {
"64 64 166 2",
"  	c None",
". 	c #000000",
"+ 	c #000101",
"@ 	c #000202",
"# 	c #020A0C",
"$ 	c #05313E",
"% 	c #021F27",
"& 	c #010000",
"* 	c #034659",
"= 	c #0495BF",
"- 	c #035E77",
"; 	c #03232C",
"> 	c #027697",
", 	c #01BEF3",
"' 	c #029DC9",
") 	c #036B89",
"! 	c #031E25",
"~ 	c #021115",
"{ 	c #01A4D3",
"] 	c #00BCF1",
"^ 	c #01B9EE",
"/ 	c #01A7D6",
"( 	c #046F8D",
"_ 	c #031013",
": 	c #033D4D",
"< 	c #00B9EE",
"[ 	c #00BAEF",
"} 	c #02B4E7",
"| 	c #05637D",
"1 	c #020708",
"2 	c #03799B",
"3 	c #00BDF3",
"4 	c #00BFF6",
"5 	c #03B5E8",
"6 	c #05576F",
"7 	c #020F13",
"8 	c #000203",
"9 	c #010709",
"0 	c #02A2D0",
"a 	c #00BEF4",
"b 	c #00BBF1",
"c 	c #00C2F9",
"d 	c #03A8D8",
"e 	c #03546B",
"f 	c #021E25",
"g 	c #02313F",
"h 	c #01B8EC",
"i 	c #01C2F9",
"j 	c #039DC9",
"k 	c #035F79",
"l 	c #02637E",
"m 	c #00C3FA",
"n 	c #01BDF3",
"o 	c #029ECB",
"p 	c #036D8B",
"q 	c #031C22",
"r 	c #01181F",
"s 	c #0292BB",
"t 	c #00BEF5",
"u 	c #00BBF0",
"v 	c #00B9ED",
"w 	c #01AAD9",
"x 	c #046D8B",
"y 	c #030D10",
"z 	c #024152",
"A 	c #01B1E2",
"B 	c #02B5E8",
"C 	c #05607A",
"D 	c #00C0F7",
"E 	c #03B3E6",
"F 	c #04566D",
"G 	c #021217",
"H 	c #02161B",
"I 	c #01A0CD",
"J 	c #00BAF0",
"K 	c #03A6D4",
"L 	c #03556D",
"M 	c #021F28",
"N 	c #033C4D",
"O 	c #00BCF2",
"P 	c #01C1F8",
"Q 	c #029DC8",
"R 	c #03627D",
"S 	c #03222B",
"T 	c #036D8C",
"U 	c #01BCF2",
"V 	c #02A0CD",
"W 	c #036F8D",
"X 	c #03191F",
"Y 	c #00080A",
"Z 	c #03A2CF",
"` 	c #02ACDD",
" .	c #056C89",
"..	c #020B0D",
"+.	c #022B36",
"@.	c #02B6E9",
"#.	c #055E77",
"$.	c #02080A",
"%.	c #000506",
"&.	c #026581",
"*.	c #00BFF5",
"=.	c #00C1F8",
"-.	c #03B1E3",
";.	c #04556C",
">.	c #02151A",
",.	c #01171D",
"'.	c #0296C0",
").	c #00C2FA",
"!.	c #03A3D1",
"~.	c #03576F",
"{.	c #022129",
"].	c #024052",
"^.	c #01B0E3",
"/.	c #01C1F7",
"(.	c #029CC8",
"_.	c #036581",
":.	c #03222A",
"<.	c #01BBF0",
"[.	c #02A2CF",
"}.	c #046F8E",
"|.	c #03171C",
"1.	c #020D10",
"2.	c #01A8D8",
"3.	c #02AFE0",
"4.	c #056986",
"5.	c #02090B",
"6.	c #033B4A",
"7.	c #02B6EA",
"8.	c #055C74",
"9.	c #02090C",
"0.	c #000102",
"a.	c #037595",
"b.	c #03AFE0",
"c.	c #04546B",
"d.	c #02181E",
"e.	c #020A0D",
"f.	c #02BEF3",
"g.	c #03A5D3",
"h.	c #045D77",
"i.	c #037495",
"j.	c #033A49",
"k.	c #020C10",
"l.	c #02A8D8",
"m.	c #023F51",
"n.	c #01B0E2",
"o.	c #01161D",
"p.	c #0295C0",
"q.	c #026480",
"r.	c #022A36",
"s.	c #000809",
"t.	c #03A1CF",
"u.	c #033B4D",
"v.	c #02151B",
"w.	c #01181E",
"x.	c #0291BB",
"y.	c #02627E",
"z.	c #01C3FA",
"A.	c #02313E",
"B.	c #010609",
"C.	c #03789B",
"D.	c #033C4C",
"E.	c #021015",
"F.	c #02A4D3",
"G.	c #027596",
"H.	c #034558",
"I.	c #0495BE",
"  . .                                                                                                                           ",
". . . . .                                                                                                                       ",
". . . . . . .                                                                                                                   ",
"  . . . . . . . . .                                                                                                             ",
"  . . . . . . . . . . .                                                                                                         ",
"    . . . . . . . . . . . .                                                                                                     ",
"      . . . . + @ . . . . . .                                                                                                   ",
"      . . . . # $ % & . . . . . .                                                                                               ",
"        . . . . * = - ; & . . . . . .                                                                                           ",
"          . . . @ > , ' ) ! . . . . . . . .                                                                                     ",
"          . . . . ~ { ] ^ / ( _ . . . . . . . .                                                                                 ",
"            . . . . : < [ [ [ } | 1 . . . . . . . .                                                                             ",
"              . . . . 2 3 [ [ [ 4 5 6 7 8 . . . . . .                                                                           ",
"              . . . . 9 0 a [ [ [ b c d e f & . . . . . .                                                                       ",
"                . . . . g h b [ [ [ [ 3 i j k ; & . . . . . .                                                                   ",
"                  . . . 8 l m [ [ [ [ [ [ 3 n o p q . . . . . . . .                                                             ",
"                  . . . . r s t [ [ [ [ [ [ [ u v w x y . . . . . . . .                                                         ",
"                    . . . . z A u [ [ [ [ [ [ [ [ [ b B C 1 . . . . . . .                                                       ",
"                      . . . & > [ [ [ [ [ [ [ [ [ [ [ [ D E F G 8 . . . . . .                                                   ",
"                      . . . . H I J [ [ [ [ [ [ [ [ [ [ [ b c K L M & . . . . . .                                               ",
"                        . . . . N O [ [ [ [ [ [ [ [ [ [ [ [ [ 3 P Q R S & . . . . . . .                                         ",
"                          . . . . T c [ [ [ [ [ [ [ [ [ [ [ [ [ [ 3 U V W X . . . . . . . .                                     ",
"                          . . . . Y Z 3 [ [ [ [ [ [ [ [ [ [ [ [ [ [ [ u v `  .... . . . . . . .                                 ",
"                            . . . . +., u [ [ [ [ [ [ [ [ [ [ [ [ [ [ [ [ [ O @.#.$.+ . . . . . .                               ",
"                              . . . %.&.*.[ [ [ [ [ [ [ [ [ [ [ [ [ [ [ [ [ [ J =.-.;.>.8 . . . . . .                           ",
"                              . . . . ,.'.3 [ [ [ [ [ [ [ [ [ [ [ [ [ [ [ [ [ [ [ ] ).!.~.{.& . . . . . .                       ",
"                                . . . . ].^.u [ [ [ [ [ [ [ [ [ [ [ [ [ [ [ [ [ [ [ [ 3 /.(._.:.. . . . . . . .                 ",
"                                  . . . . > < [ [ [ [ [ [ [ [ [ [ [ [ [ [ [ [ [ [ [ [ [ [ O <.[.}.|.. . . . . . . .             ",
"                                  . . . . 1.2.[ [ [ [ [ [ [ [ [ [ [ [ [ [ [ [ [ [ [ [ [ [ [ [ J v 3.4.5.. . . . . . . .         ",
"                                    . . . . 6.[ [ [ [ [ [ [ [ [ [ [ [ [ [ [ [ [ [ [ [ [ [ [ [ [ [ [ 3 7.8.9.0.. . . . . .       ",
"                                      . . . . a.*.[ [ [ [ [ [ [ [ [ [ [ [ [ [ [ [ [ [ [ [ [ [ [ [ [ [ u =.b.c.d.@ . . . . . .   ",
"                                      . . . . e.f.u [ [ [ [ [ [ [ [ [ [ [ [ [ [ [ [ [ [ [ [ [ [ [ [ [ [ [ O ).g.h.1.. . . . . . ",
"                                      . . . . # f.u [ [ [ [ [ [ [ [ [ [ [ [ [ [ [ [ [ [ [ [ [ [ [ [ [ [ [ O ).g.h.1.. . . . . . ",
"                                      . . . . i.*.[ [ [ [ [ [ [ [ [ [ [ [ [ [ [ [ [ [ [ [ [ [ [ [ [ [ u =.b.c.d.@ . . . . . .   ",
"                                    . . . . j.[ [ [ [ [ [ [ [ [ [ [ [ [ [ [ [ [ [ [ [ [ [ [ [ [ [ [ 3 7.8.9.0.. . . . . .       ",
"                                  . . . . k.l.[ [ [ [ [ [ [ [ [ [ [ [ [ [ [ [ [ [ [ [ [ [ [ [ J v 3.4.5.. . . . . . . .         ",
"                                  . . . . > < [ [ [ [ [ [ [ [ [ [ [ [ [ [ [ [ [ [ [ [ [ [ O <.[.}.|.. . . . . . . .             ",
"                                . . . . m.n.u [ [ [ [ [ [ [ [ [ [ [ [ [ [ [ [ [ [ [ [ 3 /.(._.:.. . . . . . . .                 ",
"                              . . . . o.p.3 [ [ [ [ [ [ [ [ [ [ [ [ [ [ [ [ [ [ [ ] ).!.~.{.& . . . . . .                       ",
"                              . . . %.q.*.[ [ [ [ [ [ [ [ [ [ [ [ [ [ [ [ [ [ J =.-.;.>.8 . . . . . .                           ",
"                            . . . . r., u [ [ [ [ [ [ [ [ [ [ [ [ [ [ [ [ [ O @.#.$.+ . . . . . .                               ",
"                          . . . . s.t.3 [ [ [ [ [ [ [ [ [ [ [ [ [ [ [ u v `  .... . . . . . . .                                 ",
"                          . . . . p c [ [ [ [ [ [ [ [ [ [ [ [ [ [ 3 U V W X . . . . . . . .                                     ",
"                        . . . . u.U [ [ [ [ [ [ [ [ [ [ [ [ [ 3 P Q R S & . . . . . . .                                         ",
"                      . . . . v.I J [ [ [ [ [ [ [ [ [ [ [ b c K L M & . . . . . .                                               ",
"                      . . . & > [ [ [ [ [ [ [ [ [ [ [ [ D E F G 8 . . . . . .                                                   ",
"                    . . . . ].n.u [ [ [ [ [ [ [ [ [ b B C 1 . . . . . . .                                                       ",
"                  . . . . w.x.t [ [ [ [ [ [ [ u v w x y . . . . . . . .                                                         ",
"                  . . . 8 y.z.[ [ [ [ [ [ 3 n o p q . . . . . . . .                                                             ",
"                . . . . A.h b [ [ [ [ 3 i j k ; & . . . . . .                                                                   ",
"              . . . . B.0 a [ [ [ b c d e f & . . . . . .                                                                       ",
"              . . . . C.3 [ [ [ 4 5 6 7 8 . . . . . .                                                                           ",
"            . . . . D.< [ [ [ } | 1 . . . . . . . .                                                                             ",
"          . . . . E.F.] ^ / ( _ . . . . . . . .                                                                                 ",
"          . . . 0.G.n ' ) ! . . . . . . . .                                                                                     ",
"        . . . . H.I.- ; & . . . . . .                                                                                           ",
"      . . . . # $ % & . . . . . .                                                                                               ",
"      . . . . + @ . . . . . .                                                                                                   ",
"    . . . . . . . . . . . .                                                                                                     ",
"  . . . . . . . . . . .                                                                                                         ",
"  . . . . . . . . .                                                                                                             ",
". . . . . . .                                                                                                                   ",
". . . . .                                                                                                                       ",
"  . .                                                                                                                           "};
