/* XPM */
static char *_551670710083[] = {
/* columns rows colors chars-per-pixel */
"32 32 100 2 ",
"   c #090909",
".  c #0B0B0B",
"X  c #0C0C0C",
"o  c gray5",
"O  c #0E0E0E",
"+  c gray6",
"@  c #0D1417",
"#  c #111111",
"$  c #131313",
"%  c #151515",
"&  c gray9",
"*  c gray10",
"=  c #1B1B1B",
"-  c gray11",
";  c #1E1E1E",
":  c #131D21",
">  c #141E22",
",  c #1A282E",
"<  c gray13",
"1  c #222222",
"2  c #232323",
"3  c gray14",
"4  c gray15",
"5  c #282828",
"6  c gray16",
"7  c gray18",
"8  c gray20",
"9  c gray22",
"0  c #3F3F3F",
"q  c #263941",
"w  c #293E47",
"e  c #2B414B",
"r  c #34505B",
"t  c #3A5864",
"y  c gray26",
"u  c gray27",
"i  c gray28",
"p  c gray29",
"a  c #4C4C4C",
"s  c #4E4E4E",
"d  c gray31",
"f  c #515151",
"g  c gray32",
"h  c gray33",
"j  c #565656",
"k  c #585858",
"l  c gray35",
"z  c #5B5B5B",
"x  c gray36",
"c  c gray37",
"v  c #606060",
"b  c #626262",
"n  c #646464",
"m  c #6C6C6C",
"M  c #6F6F6F",
"N  c gray44",
"B  c #727272",
"V  c gray45",
"C  c #747474",
"Z  c gray46",
"A  c #767676",
"S  c #777777",
"D  c #4B7282",
"F  c #4E7787",
"G  c #507B8C",
"H  c #537F91",
"J  c #548092",
"K  c #558193",
"L  c #568496",
"P  c #59889B",
"I  c #59899C",
"U  c #5A899D",
"Y  c #5C8DA0",
"T  c #5F91A5",
"R  c #5F91A6",
"E  c #6195AA",
"W  c #6499AE",
"Q  c #6599AF",
"!  c #659AB0",
"~  c #679EB4",
"^  c #689EB5",
"/  c #69A0B6",
"(  c #6AA2B8",
")  c #6AA2B9",
"_  c #6DA6BD",
"`  c #6FAAC2",
"'  c #7BBBD6",
"]  c #7BBDD7",
"[  c #7DBFDA",
"{  c #80C3DE",
"}  c #82C6E2",
"|  c #82C7E3",
" . c #83C8E5",
".. c #84C9E5",
"X. c #84CAE6",
"o. c #85CBE7",
"O. c #85CCE8",
"+. c #86CCE9",
"@. c #86CDEA",
"#. c SkyBlue",
/* pixels */
"S S S S S S S S S S S S S S S n   n S S S S S S S S S S S S S S ",
"S S S S S S S S S S S S S S S 6 < 6 S S S S S S S S S S S S S S ",
"S S S S S S S S S S S S S S b @ ] o b S S S S S S S S S S S S S ",
"S S S S S S S S S S S S S S 4 D #.D 4 S S S S S S S S S S S S S ",
"S S S S S S S S S S S S S v o | #.| o c S S S S S S S S S S S S ",
"S S S S S S S S S S S S S 3 F #.#.#.F 4 S S S S S S S S S S S S ",
"S S S S S S S S S S S S c o  .#.#.#. .o c S S S S S S S S S S S ",
"S S S S S S S S S S S S < G #.#.#.#.#.G < S S S S S S S S S S S ",
"S S S S S S S S S S S z + o.#.#.#.#.#.o.o z S S S S S S S S S S ",
"S S S S S S S S S S S ; H #.#.#.#.#.#.#.H ; S S S S S S S S S S ",
"S S S S S S S S S S z # o.#.#.#.#.#.#.#.o.: z S S S S S S S S S ",
"S S S S S S S S S S = L #.#.#.#.#.#.#.#.#.L = S S S S S S S S S ",
"S S S S S S S S S j # #.#.#.#.#.#.#.#.#.#.o.# j S S S S S S S S ",
"S S S S S S S S S = I #.#.#.#.#.#.#.#.#.#.#.I = S S S S S S S S ",
"S S S S S S S S g & o.#.#.#.#.#.#.#.#.#.#.#.#.& j S S S S S S S ",
"S S S S S S S S & Y #.#.#.#.#.#.#.#.#.#.#.#.#.U & S S S S S S S ",
"S S S S S S S g & #.#.#.#.#.#.#.#.#.#.#.#.#.#.#., g S S S S S S ",
"S S S S S S S $ E #.#.#.#.#.#.#.#.#.#.#.#.#.#.#.Y & S S S S S S ",
"S S S S S S s - +.#.#.#.#.#.#.#.#.#.#.#.#.#.#.#.#.= d S S S S S ",
"S S S S S S $ E #.#.#.#.#.#.#.#.#.#.#.#.#.#.#.#.#.E $ S S S S S ",
"S S S S S a - #.#.#.#.#.#.#.#.#.#.#.#.#.#.#.#.#.#.#.= a S S S S ",
"S S S S S + Q #.#.#.#.#.#.#.#.J X J #.#.#.#.#.#.#.#.! # C S S S ",
"S S S S i ; #.#.#.#.#.#.#.' 3 $ s & < ' #.#.#.#.#.#.#.; p S S S ",
"S S S C # ~ #.#.#.#.#.#.P X 9 C S C 9 X I #.#.#.#.#.#.~ o S S S ",
"S S S i q #.#.#.#.#.[ 5 # z S S S S S z # 5 [ #.#.#.#.#.< i S S ",
"S S C o ( #.#.#.#.E X 8 C S S S S S S S B 8 X E #.#.#.#.( o S S ",
"S S u w #.#.#.{ r o k S S S S S S S S S S S j o 7 { #.#.#.< u S ",
"S C X _ #.#.E # 7 N S S S S S S S S S S S S S B 7 o Q #.#._ o B ",
"S y e #.} 8 X h S S S S S S S S S S S S S S S S S g   t | #.e y ",
"B X ` ^ > 6 N S S S S S S S S S S S S S S S S S S S B 6 # ^ ` o ",
"0 5 9 X s S S S S S S S S S S S S S S S S S S S S S S S g   9 6 ",
"- # 3 m S S S S S S S S S S S S S S S S S S S S S S S S S m 3 # "
};
