/* XPM */
static char * arr_up_xpm[] = {
"32 32 60 1",
" 	c None",
".	c #000000",
"+	c #02181F",
"@	c #03789A",
"#	c #020D11",
"$	c #01C5FE",
"%	c #037EA2",
"&	c #00BAEF",
"*	c #02181E",
"=	c #00C0F7",
"-	c #037EA0",
";	c #00BBF0",
">	c #01151B",
",	c #01BEF4",
"'	c #037798",
")	c #020E11",
"!	c #01C6FE",
"~	c #037FA3",
"{	c #00B9EF",
"]	c #02191F",
"^	c #00BFF6",
"/	c #037C9F",
"(	c #01141A",
"_	c #01BFF5",
":	c #01C6FF",
"<	c #0380A4",
"[	c #00BAEE",
"}	c #021920",
"|	c #00BFF4",
"1	c #00C5FD",
"2	c #037B9E",
"3	c #00BDF3",
"4	c #01A1CE",
"5	c #011318",
"6	c #011319",
"7	c #00BDF2",
"8	c #01C0F6",
"9	c #00BEF4",
"0	c #015972",
"a	c #015973",
"b	c #037799",
"c	c #029CC8",
"d	c #01161B",
"e	c #020F12",
"f	c #025872",
"g	c #025972",
"h	c #00BDF4",
"i	c #0381A4",
"j	c #00C1F8",
"k	c #0198C4",
"l	c #01181F",
"m	c #01191F",
"n	c #0199C4",
"o	c #015067",
"p	c #027EA1",
"q	c #027EA0",
"r	c #021217",
"s	c #025E78",
"t	c #025F79",
"u	c #000202",
"               ..               ",
"               ..               ",
"              ....              ",
"              .++.              ",
"             ..@@..             ",
"             .#$$#.             ",
"            ..%&&%..            ",
"            .*=&&=*.            ",
"           ..-;&&;-..           ",
"           .>,&&&&,>.           ",
"          ..';&&&&;'..          ",
"          .)!&&&&&&!).          ",
"         ..~{&&&&&&{~..         ",
"         .]^&&&&&&&&^].         ",
"        ../;&&&&&&&&;/..        ",
"        .(_&&&&&&&&&&_(.        ",
"       ..';&&&&&&&&&&;'..       ",
"       .):&&&&&&&&&&&&:).       ",
"      ..<[&&&&&&&&&&&&[<..      ",
"      .}|&&&&&[11[&&&&&|}.      ",
"     ..2;&&&&345647&&&&;2..     ",
"     .58&&&[90....a9[&&&85.     ",
"    ..b;&&^c>......dc^&&;b..    ",
"    .e:&&9f...    ...gh&&:e.    ",
"   ..i[jkl...      ...mnj[i..   ",
"   .}3jo...          ...oj3}.   ",
"  ..p4(...            ...(4q..  ",
"  .rs...                ...tr.  ",
" ..u...                  ...u.. ",
" ....                      .... ",
"....                        ....",
"..                            .."};
