/* XPM */
static char *_551670688100[] = {
/* columns rows colors chars-per-pixel */
"32 32 165 2 ",
"   c gray2",
".  c gray3",
"X  c #090909",
"o  c gray4",
"O  c #0B0B0B",
"+  c gray5",
"@  c #0E0E0E",
"#  c gray6",
"$  c #0B1012",
"%  c #0B1113",
"&  c #0D1316",
"*  c #0D1417",
"=  c #111111",
"-  c #131313",
";  c gray8",
":  c #151515",
">  c gray9",
",  c gray10",
"<  c #1B1B1B",
"1  c gray11",
"2  c #1E1E1E",
"3  c #141E22",
"4  c #162126",
"5  c #182429",
"6  c #18252A",
"7  c #1A282D",
"8  c #1A282E",
"9  c #1E2D34",
"0  c gray13",
"q  c #232323",
"w  c #252525",
"e  c gray15",
"r  c #282828",
"t  c gray16",
"y  c #2A2A2A",
"u  c gray17",
"i  c #2C2C2C",
"p  c #2D2D2D",
"a  c gray18",
"s  c #2F2F2F",
"d  c gray19",
"f  c #313131",
"g  c #323232",
"h  c #343434",
"j  c #353535",
"k  c gray21",
"l  c gray22",
"z  c #393939",
"x  c gray23",
"c  c #3C3C3C",
"v  c #3F3F3F",
"b  c #253941",
"n  c #263941",
"m  c #293E47",
"M  c #2B424C",
"N  c #2F4751",
"B  c #304A54",
"V  c #324C56",
"C  c #334E58",
"Z  c #344F5A",
"A  c #35515C",
"S  c #35525D",
"D  c #36525E",
"F  c #375460",
"G  c #385662",
"H  c #395764",
"J  c #3B5A66",
"K  c #3C5C69",
"L  c #3D5E6B",
"P  c #3F606E",
"I  c gray26",
"U  c gray27",
"Y  c #464646",
"T  c gray28",
"R  c #484848",
"E  c #494949",
"W  c #4B4B4B",
"Q  c #4C4C4C",
"!  c #4E4E4E",
"~  c #515151",
"^  c gray33",
"/  c #555555",
"(  c #565656",
")  c gray35",
"_  c #5A5A5A",
"`  c #5B5B5B",
"'  c #5D5D5D",
"]  c #406270",
"[  c #416371",
"{  c #426472",
"}  c #436674",
"|  c #446877",
" . c #486E7D",
".. c #606060",
"X. c gray38",
"o. c #626262",
"O. c #646464",
"+. c #656565",
"@. c gray40",
"#. c #676767",
"$. c #686868",
"%. c DimGray",
"&. c #6A6A6A",
"*. c gray42",
"=. c #6C6C6C",
"-. c #6D6D6D",
";. c gray43",
":. c #6F6F6F",
">. c gray44",
",. c #717171",
"<. c #727272",
"1. c gray45",
"2. c #747474",
"3. c gray46",
"4. c #767676",
"5. c #777777",
"6. c #4B7282",
"7. c #4E7787",
"8. c #4E7888",
"9. c #507B8C",
"0. c #527D8F",
"q. c #548092",
"w. c #558294",
"e. c #568496",
"r. c #58879A",
"t. c #59899C",
"y. c #5C8DA0",
"u. c #5D8DA1",
"i. c #5F91A6",
"p. c #6093A8",
"a. c #6295AA",
"s. c #659AB0",
"d. c #669BB1",
"f. c #689EB5",
"g. c #6AA2B9",
"h. c #6DA6BE",
"j. c #6EA7BF",
"k. c #70AAC2",
"l. c #72AEC6",
"z. c #73AFC8",
"x. c #75B3CC",
"c. c #76B3CD",
"v. c #77B5CE",
"b. c #78B7D0",
"n. c #79B8D2",
"m. c #79B9D3",
"M. c #79B9D4",
"N. c #7ABBD5",
"B. c #7BBBD6",
"V. c #7CBDD8",
"C. c #7CBED9",
"Z. c #7DBFDA",
"A. c #7EC0DB",
"S. c #7FC1DC",
"D. c #80C3DE",
"F. c #80C3DF",
"G. c #82C6E2",
"H. c #82C7E3",
"J. c #83C8E4",
"K. c #83C8E5",
"L. c #84CAE6",
"P. c #85CBE7",
"I. c #86CCE9",
"U. c #86CDEA",
"Y. c SkyBlue",
/* pixels */
"O I 5.5.5.5.5.5.5.5.5.5.5.5.5.5.5.5.5.5.5.5.5.5.5.5.5.5.5.5.z   ",
"g   g <.5.5.5.5.5.5.5.5.5.5.5.5.5.5.5.5.5.5.5.5.5.5.5.5.,.t > . ",
"<.O b : O.5.5.5.5.5.5.5.5.5.5.5.5.5.5.5.5.5.5.5.5.5.5.$.: A V z ",
"5.I M 7.$ W 5.5.5.5.5.5.5.5.5.5.5.5.5.5.5.5.5.5.5.5.( $ 7.c.X ,.",
"5.<.@ j.j.3 a <.5.5.5.5.5.5.5.5.5.5.5.5.5.5.5.5.5.v & f.U.C z 5.",
"5.5.U m Y.S.B - X.5.5.5.5.5.5.5.5.5.5.5.5.5.5.,.y 6 v.Y.v.O >.5.",
"5.5.2.@ g.Y.Y.0.X E 5.5.5.5.5.5.5.5.5.5.5.5.&.> N J.U.Y.A z 5.5.",
"5.5.5.R b Y.Y.Y.k.= y ,.5.5.5.5.5.5.5.5.5.` X  .U.U.U.c.O >.5.5.",
"5.5.5.1.@ f.U.U.Y.J.C = X.5.5.5.5.5.5.5.U $ a.Y.U.U.U.G z 5.5.5.",
"5.5.5.5.W 2 U.U.Y.Y.U.w.X T 5.5.5.5.,.d 4 x.U.Y.Y.U.v.. >.5.5.5.",
"5.5.5.5.5.$ s.Y.Y.Y.U.Y.l.5 t ,.5.-.1 m D.U.Y.Y.Y.U.H k 5.5.5.5.",
"5.5.5.5.5.Q 1 Y.Y.Y.Y.Y.U.J.D @ E @ { U.U.U.Y.Y.Y.m.X >.5.5.5.5.",
"5.5.5.5.5.5.- a.Y.Y.Y.Y.Y.Y.Y.t.@ u.U.Y.Y.Y.Y.Y.U.H j 5.5.5.5.5.",
"5.5.5.5.5.5.! 9 Y.Y.Y.Y.Y.Y.Y.Y.U.U.Y.Y.Y.Y.Y.Y.m.X &.5.5.5.5.5.",
"5.5.5.5.5.5.5.- p.U.Y.Y.Y.Y.Y.Y.Y.Y.Y.Y.Y.Y.U.U.J k 5.5.5.5.5.5.",
"5.5.5.5.5.5.5.~ 7 U.Y.Y.Y.Y.Y.Y.Y.Y.Y.Y.Y.Y.Y.m.. -.5.5.5.5.5.5.",
"5.5.5.5.5.5.5.5.> u.Y.Y.Y.Y.Y.Y.Y.Y.Y.Y.Y.Y.Y.K h 5.5.5.5.5.5.5.",
"5.5.5.5.5.5.5.5.^ 6 U.Y.Y.Y.Y.Y.Y.Y.Y.Y.Y.Y.Z.. &.5.5.5.5.5.5.5.",
"5.5.5.5.5.5.5.5.5., t.Y.Y.Y.Y.Y.Y.Y.Y.Y.U.U.L g 5.5.5.5.5.5.5.5.",
"5.5.5.5.5.5.5.5.5.( = Y.Y.Y.Y.Y.Y.Y.Y.Y.U.V.. &.5.5.5.5.5.5.5.5.",
"5.5.5.5.5.5.5.5.5.5.1 e.U.Y.Y.Y.Y.Y.U.Y.Y.] f 5.5.5.5.5.5.5.5.5.",
"5.5.5.5.5.5.5.5.5.5.) = Y.Y.Y.Y.Y.Y.U.U.Z.X %.5.5.5.5.5.5.5.5.5.",
"5.5.5.5.5.5.5.5.5.5.5.2 0.Y.Y.Y.Y.Y.Y.U.] f 5.5.5.5.5.5.5.5.5.5.",
"5.5.5.5.5.5.5.5.5.5.5.` @ L.Y.Y.Y.Y.Y.D.X $.5.5.5.5.5.5.5.5.5.5.",
"5.5.5.5.5.5.5.5.5.5.5.5.0 9.Y.Y.U.U.U.] d 5.5.5.5.5.5.5.5.5.5.5.",
"5.5.5.5.5.5.5.5.5.5.5.5.' @ J.Y.Y.U.D.X $.5.5.5.5.5.5.5.5.5.5.5.",
"5.5.5.5.5.5.5.5.5.5.5.5.5.q 7.Y.Y.Y.{ d 5.5.5.5.5.5.5.5.5.5.5.5.",
"5.5.5.5.5.5.5.5.5.5.5.5.5...@ G.U.D.. $.5.5.5.5.5.5.5.5.5.5.5.5.",
"5.5.5.5.5.5.5.5.5.5.5.5.5.5.e 6.Y.| p 5.5.5.5.5.5.5.5.5.5.5.5.5.",
"5.5.5.5.5.5.5.5.5.5.5.5.5.5.o.- m.X $.5.5.5.5.5.5.5.5.5.5.5.5.5.",
"5.5.5.5.5.5.5.5.5.5.5.5.5.5.5.t 0 y 5.5.5.5.5.5.5.5.5.5.5.5.5.5.",
"5.5.5.5.5.5.5.5.5.5.5.5.5.5.5.+.X +.5.5.5.5.5.5.5.5.5.5.5.5.5.5."
};
