/* XPM */
static char *_551670692482[] = {
/* columns rows colors chars-per-pixel */
"32 32 95 2 ",
"   c #060606",
".  c #090909",
"X  c #090A0A",
"o  c gray4",
"O  c #0A0B0B",
"+  c #0B0B0B",
"@  c #0A0B0C",
"#  c #0B0B0C",
"$  c #0A0C0C",
"%  c #0C0C0C",
"&  c #0C0D0D",
"*  c gray5",
"=  c #0C0D0E",
"-  c #0E0F0F",
";  c #0E0F10",
":  c #0F0F10",
">  c #0E1011",
",  c #101111",
"<  c #101212",
"1  c #111212",
"2  c gray7",
"3  c #121313",
"4  c #131414",
"5  c gray8",
"6  c #141516",
"7  c #161717",
"8  c gray9",
"9  c #151718",
"0  c #171818",
"q  c #181919",
"w  c #191A1B",
"e  c #1B1B1B",
"r  c #181B1C",
"t  c #181B1D",
"y  c #1A1B1C",
"u  c #1B1D1D",
"i  c #1B1D1E",
"p  c gray11",
"a  c gray12",
"s  c #1B1E20",
"d  c #1D1F20",
"f  c #1C1F21",
"g  c #1E2021",
"h  c #1E2E34",
"j  c #202020",
"k  c #222222",
"l  c #232323",
"z  c #202324",
"x  c #252525",
"c  c #272727",
"v  c #282828",
"b  c gray16",
"n  c gray17",
"m  c #2D2D2D",
"M  c #23343C",
"N  c #27373E",
"B  c #27383F",
"V  c gray19",
"C  c #323232",
"Z  c gray20",
"A  c #343434",
"S  c #353535",
"D  c #373737",
"F  c gray22",
"G  c #393939",
"H  c #3A3A3A",
"J  c gray23",
"K  c #263941",
"L  c #293A41",
"P  c #293B42",
"I  c #2C3F47",
"U  c #2E424B",
"Y  c #31464F",
"T  c #2F4751",
"R  c #334A54",
"E  c #334D57",
"W  c #364E58",
"Q  c #36515D",
"!  c #38515C",
"~  c #3A545F",
"^  c #395762",
"/  c #3C5763",
"(  c #3D5A65",
")  c #3D5A66",
"_  c #3E5C69",
"`  c #3F5D6A",
"'  c #3F5F6C",
"]  c #416270",
"[  c #416472",
"{  c #426573",
"}  c #436573",
"|  c #436574",
" . c #436674",
".. c #436675",
"X. c #436775",
/* pixels */
"J J J J J J J J J J J J J J J J J J J J J J J J J J J J J J J J ",
"J J J J J J J J J J J J J J J J J J J J J J J J J J J J J J J J ",
"J J   v J J J J J J J J J J J J J J J J J J J J J J J J v   J J ",
"J J e . 6 J J J J J J J J J J J J J J J J J J J J J D 9 . e J J ",
"J J J . K . m J J J J J J J J J J J J J J J J J J m . K . J J J ",
"J J J p N ^ > f J J J J J J J J J J J J J J J J s > ^ K p J J J ",
"J J J D . { { M = V J J J J J J J J J J J J V = M X.X.. D J J J ",
"J J J J u L X.X.Q ; p J J J J J J J J J J g = Q X.X.L e J J J J ",
"J J J J A .  . .X.] g ; Z J J J J J J Z ; h ] X.X.X.# D J J J J ",
"J J J J J e I  .X.X.X.E @ k J J J J k @ E X.X.X.X.I 9 J J J J J ",
"J J J J J A - { X.X.X.X.' t 2 S D > t ' X.X.X.X.] - S J J J J J ",
"J J J J J J 6 U X.X.X.X.X.X.T 9 9 T X.X.X.X.X.| U 9 J J J J J J ",
"J J J J J J C - X.X.X.X.X.X.X.X.X.X.X.X.X.X.X.X.- C J J J J J J ",
"J J J J J J J 6 Y X.X.X.X.X.X.X.X.X.X.X.X.X.X.Y 2 J J J J J J J ",
"J J J J J J J m ; X.X.X.X.X.X.X.X.X.X.X.X.X.{ 2 V J J J J J J J ",
"J J J J J J J J 2 R X.X.X.X.X.X.X.X.X.X.X.X.R 2 J J J J J J J J ",
"J J J J J J J J V 3  . .X.X.X.X.X.X.X.X. . .3 n J J J J J J J J ",
"J J J J J J J J J : W  .X.X.X.X.X.X.X.X. .W : J J J J J J J J J ",
"J J J J J J J J J n 3  .X.X.X.X.X.X.X.X. .6 n J J J J J J J J J ",
"J J J J J J J J J J - ~  .X.X.X.X.X.X.X.! - J J J J J J J J J J ",
"J J J J J J J J J J v 9 |  . .X.X.X.X.] q v J J J J J J J J J J ",
"J J J J J J J J J J J # ^  . . .X.X.X.~ # J J J J J J J J J J J ",
"J J J J J J J J J J J v e ] X.X.X.X.| e v J J J J J J J J J J J ",
"J J J J J J J J J J J J @ ) X. .X.X.^ # J J J J J J J J J J J J ",
"J J J J J J J J J J J J l p  . . . .p l J J J J J J J J J J J J ",
"J J J J J J J J J J J J J @ )  . .) @ J J J J J J J J J J J J J ",
"J J J J J J J J J J J J J k f  . .f l J J J J J J J J J J J J J ",
"J J J J J J J J J J J J J J . ` ` . J J J J J J J J J J J J J J ",
"J J J J J J J J J J J J J J a a a a J J J J J J J J J J J J J J ",
"J J J J J J J J J J J J J J J 3 2 F J J J J J J J J J J J J J J ",
"J J J J J J J J J J J J J J J J J J J J J J J J J J J J J J J J ",
"J J J J J J J J J J J J J J J J J J J J J J J J J J J J J J J J "
};
