/* XPM */
static char * arr_right_xpm[] = {
"32 32 60 1",
" 	c None",
".	c #000000",
"+	c #000202",
"@	c #021217",
"#	c #025E78",
"$	c #027EA1",
"%	c #021920",
"&	c #01A1CE",
"*	c #00BDF3",
"=	c #0381A4",
"-	c #020F12",
";	c #01141A",
">	c #00C1F8",
",	c #00BAEE",
"'	c #01C6FF",
")	c #037799",
"!	c #011318",
"~	c #015067",
"{	c #00BAEF",
"]	c #00BBF0",
"^	c #01C0F6",
"/	c #037B9E",
"(	c #0198C4",
"_	c #00BFF4",
":	c #0380A4",
"<	c #020E11",
"[	c #01181F",
"}	c #00BEF4",
"|	c #037798",
"1	c #025872",
"2	c #00BFF6",
"3	c #01BFF5",
"4	c #037C9F",
"5	c #02191F",
"6	c #029CC8",
"7	c #037FA3",
"8	c #01151B",
"9	c #00B9EF",
"0	c #01C6FE",
"a	c #015972",
"b	c #01BEF4",
"c	c #037EA0",
"d	c #02181E",
"e	c #00C0F7",
"f	c #037EA2",
"g	c #020D11",
"h	c #00C5FD",
"i	c #01C5FE",
"j	c #03789A",
"k	c #02181F",
"l	c #011319",
"m	c #015973",
"n	c #00BDF2",
"o	c #01161B",
"p	c #025972",
"q	c #01191F",
"r	c #00BDF4",
"s	c #0199C4",
"t	c #025F79",
"u	c #027EA0",
"..                              ",
"....                            ",
" .....                          ",
" ..+@...                        ",
"  ..#$%...                      ",
"   ..&*=-...                    ",
"   ..;>,')!...                  ",
"    ..~>{]^/%...                ",
"     ..({{{]_:<...              ",
"     ..[}{{{{,'|;...            ",
"      ..12{{{{{]345...          ",
"       ..6,{{{{{{]27<...        ",
"       ..8}{{{{{{{{90|8...      ",
"        ..a*{{{{{{{{{]bcd...    ",
"         ..&,{{{{{{{{{{]efg...  ",
"         ..!h{{{{{{{{{{{{{ijk...",
"         ..lh{{{{{{{{{{{{{ijk...",
"         ..&,{{{{{{{{{{]efg...  ",
"        ..mn{{{{{{{{{]bcd...    ",
"       ..o}{{{{{{{{90|8...      ",
"       ..6,{{{{{{]27<...        ",
"      ..p2{{{{{]345...          ",
"     ..qr{{{{,'|;...            ",
"     ..s{{{]_:<...              ",
"    ..~>{]^/%...                ",
"   ..;>,')!...                  ",
"   ..&*=-...                    ",
"  ..tu%...                      ",
" ..+@...                        ",
" .....                          ",
"....                            ",
"..                              "};
