/* XPM */
static char *_551670695625[] = {
/* columns rows colors chars-per-pixel */
"32 32 158 2 ",
"   c #060606",
".  c #070707",
"X  c gray3",
"o  c #090909",
"O  c #0B0B0B",
"+  c gray5",
"@  c #0E0E0E",
"#  c gray6",
"$  c #090E10",
"%  c #0A0F11",
"&  c #0A0F12",
"*  c #0B1012",
"=  c #0F171B",
"-  c #101010",
";  c gray7",
":  c #131313",
">  c gray8",
",  c #151515",
"<  c gray9",
"1  c #141719",
"2  c #171818",
"3  c #111B1E",
"4  c #1B1B1B",
"5  c #1D1D1D",
"6  c gray12",
"7  c #141E22",
"8  c #162227",
"9  c #19272C",
"0  c #1F3036",
"q  c #202020",
"w  c #202121",
"e  c gray13",
"r  c #222222",
"t  c gray14",
"y  c gray15",
"u  c #282828",
"i  c #2A2A2A",
"p  c #2B2C2D",
"a  c #2C2C2C",
"s  c #2D2D2D",
"d  c gray18",
"f  c #2F2F2F",
"g  c gray19",
"h  c #313131",
"j  c #323232",
"k  c gray20",
"l  c #343434",
"z  c #353535",
"x  c gray21",
"c  c #373737",
"v  c gray22",
"b  c #393939",
"n  c #3A3A3A",
"m  c #3C3C3C",
"M  c gray24",
"N  c #263941",
"B  c #293E47",
"V  c #2E454F",
"C  c #324D58",
"Z  c #334E59",
"A  c #344F5A",
"S  c #34505B",
"D  c #35525D",
"F  c #375460",
"G  c #385561",
"H  c #395663",
"J  c #3A5864",
"K  c #3B5A66",
"L  c #3B5A67",
"P  c #3C5B68",
"I  c #3C5C69",
"U  c #3D5D6A",
"Y  c #3D5E6B",
"T  c gray26",
"R  c gray27",
"E  c #464646",
"W  c gray28",
"Q  c gray29",
"!  c #4B4B4B",
"~  c gray30",
"^  c #4E4E4E",
"/  c #535353",
"(  c gray34",
")  c #5B5B5B",
"_  c #5F5F5F",
"`  c #40616E",
"'  c #40616F",
"]  c #406270",
"[  c #416370",
"{  c #426472",
"}  c #436775",
"|  c #466B7A",
" . c #606060",
".. c gray38",
"X. c #626262",
"o. c gray39",
"O. c #646464",
"+. c #656565",
"@. c gray40",
"#. c #676767",
"$. c #686868",
"%. c DimGray",
"&. c #6A6A6A",
"*. c gray42",
"=. c #6C6C6C",
"-. c #6D6D6D",
";. c gray43",
":. c #6F6F6F",
">. c gray44",
",. c #717171",
"<. c #727272",
"1. c gray45",
"2. c #747474",
"3. c #767676",
"4. c #777777",
"5. c #4B7282",
"6. c #4F798A",
"7. c #507A8B",
"8. c #537F91",
"9. c #548093",
"0. c #568395",
"q. c #578497",
"w. c #59889B",
"e. c #59899C",
"r. c #5B8B9F",
"t. c #5E8FA3",
"y. c #6296AB",
"u. c #679EB4",
"i. c #6CA5BC",
"p. c #6DA6BE",
"a. c #6EA7BF",
"s. c #6FA9C1",
"d. c #71ACC4",
"f. c #72AEC7",
"g. c #74B1CA",
"h. c #74B2CB",
"j. c #76B3CD",
"k. c #76B4CE",
"l. c #77B6CF",
"z. c #78B7D0",
"x. c #78B7D1",
"c. c #79B8D2",
"v. c #7ABAD4",
"b. c #7BBBD6",
"n. c #7BBCD7",
"m. c #7CBDD8",
"M. c #7DBFD9",
"N. c #7DBFDA",
"B. c #7EC0DB",
"V. c #80C3DF",
"C. c #81C4E0",
"Z. c #82C6E2",
"A. c #82C7E3",
"S. c #83C8E4",
"D. c #84C9E5",
"F. c #85CCE8",
"G. c #86CDEA",
"H. c SkyBlue",
/* pixels */
"4.4.4.4.4.4.4.4.4.4.4.4.4.4.4.4.4.4.4.4.4.4.4.4.4.4.4.4.4.4.:.g ",
"4.4.4.4.4.4.4.4.4.4.4.4.4.4.4.4.4.4.4.4.4.4.4.4.4.4.4.4.:.m X X ",
"4.4.4.4.4.4.4.4.4.4.4.4.4.4.4.4.4.4.4.4.4.4.4.4.4.4.:.n o a r g ",
"4.4.4.4.4.4.4.4.4.4.4.4.4.4.4.4.4.4.4.4.4.4.4.4.-.n % Z h.7., 1.",
"4.4.4.4.4.4.4.4.4.4.4.4.4.4.4.4.4.4.4.4.4.4.-.v o A h.H.s.% O.4.",
"4.4.4.4.4.4.4.4.4.4.4.4.4.4.4.4.4.4.4.4.-.v . D k.H.H.C.; Q 4.4.",
"4.4.4.4.4.4.4.4.4.4.4.4.4.4.4.4.4.4.*.x X G x.H.H.H.H.a a 4.4.4.",
"4.4.4.4.4.4.4.4.4.4.4.4.4.4.4.4.*.x X H x.H.H.H.H.H.8.: <.4.4.4.",
"4.4.4.4.4.4.4.4.4.4.4.4.4.4.*.k o H c.H.H.H.H.H.H.d.X o.4.4.4.4.",
"4.4.4.4.4.4.4.4.4.4.4.4.*.g X I v.H.H.H.H.H.H.H.A.8 W 4.4.4.4.4.",
"4.4.4.4.4.4.4.4.4.4.%.g X I v.H.H.H.H.H.H.H.H.H.A a 4.4.4.4.4.4.",
"4.4.4.4.4.4.4.4.%.g % Y n.H.H.H.H.H.H.H.H.H.H.q.7 :.4.4.4.4.4.4.",
"4.4.4.4.4.4.+.g o [ M.H.H.H.H.H.H.H.H.H.H.H.f.X  .4.4.4.4.4.4.4.",
"4.4.4.4.%.a o [ M.H.H.H.H.H.H.H.H.H.H.H.H.S.9 R 4.4.4.4.4.4.4.4.",
"4.4.+.a o { B.H.H.H.H.H.H.H.H.H.H.H.H.H.H.G y 4.4.4.4.4.4.4.4.4.",
"+.a * } B.H.H.H.H.H.H.H.H.H.H.H.H.H.H.H.e.- :.4.4.4.4.4.4.4.4.4.",
"o 6 g.H.H.H.H.H.H.H.H.H.H.H.H.H.H.H.H.H.O W 4.4.4.4.4.4.4.4.4.4.",
"#.g X D g.H.H.H.H.H.H.H.H.H.H.H.H.H.H.H.t.+ -.4.4.4.4.4.4.4.4.4.",
"4.4.*.n o V i.H.H.H.H.H.H.H.H.H.H.H.H.H.H.[ 5 1.4.4.4.4.4.4.4.4.",
"4.4.4.4.<.T + r y.H.H.H.H.H.H.H.H.H.H.H.H.G.N k 4.4.4.4.4.4.4.4.",
"4.4.4.4.4.4.1.Q : < e.G.H.H.H.H.H.H.H.H.H.H.M.- ! 4.4.4.4.4.4.4.",
"4.4.4.4.4.4.4.4.4./ 4 @ 7.Z.H.H.H.H.H.H.H.H.G.d.o  .4.4.4.4.4.4.",
"4.4.4.4.4.4.4.4.4.4.4.) t O | M.H.H.H.H.H.H.H.H.e.@ *.4.4.4.4.4.",
"4.4.4.4.4.4.4.4.4.4.4.4.4.O.a . I x.H.H.H.H.H.H.H.I 6 4.4.4.4.4.",
"4.4.4.4.4.4.4.4.4.4.4.4.4.4.4.%.x . C d.H.H.H.H.H.G.6 x 4.4.4.4.",
"4.4.4.4.4.4.4.4.4.4.4.4.4.4.4.4.4.:.M O B u.H.H.H.H.m.@ ! 4.4.4.",
"4.4.4.4.4.4.4.4.4.4.4.4.4.4.4.4.4.4.4.1.E & 0 t.G.H.H.a.& X.4.4.",
"4.4.4.4.4.4.4.4.4.4.4.4.4.4.4.4.4.4.4.4.4.4.~ 4 1 8.D.H.0.3 :.4.",
"4.4.4.4.4.4.4.4.4.4.4.4.4.4.4.4.4.4.4.4.4.4.4.4.( r 1 5.C.K r 4.",
"4.4.4.4.4.4.4.4.4.4.4.4.4.4.4.4.4.4.4.4.4.4.4.4.3.3._ u & ` 4 x ",
"4.4.4.4.4.4.4.4.4.4.4.4.4.4.4.4.4.4.4.4.4.4.4.4.3.3.4.4.#.g . . ",
"4.4.4.4.4.4.4.4.4.4.4.4.4.4.4.4.4.4.4.4.4.4.4.4.4.4.4.4.4.4.*.a "
};
