/* XPM */
static char *_551670699292[] = {
/* columns rows colors chars-per-pixel */
"32 32 90 1 ",
"  c #060606",
". c #090909",
"X c gray4",
"o c #0A0A0B",
"O c #0A0B0B",
"+ c #0B0B0B",
"@ c #0B0C0C",
"# c #0C0C0C",
"$ c #0C0C0D",
"% c #0C0D0D",
"& c gray5",
"* c #0D0E0E",
"= c #0E0E0F",
"- c #0F1010",
"; c #101010",
": c #101111",
"> c #111213",
", c gray7",
"< c #121314",
"1 c gray8",
"2 c #141515",
"3 c #141617",
"4 c gray9",
"5 c #161718",
"6 c #171818",
"7 c #17191A",
"8 c #181818",
"9 c #18191A",
"0 c #1B1B1B",
"q c #1B1B1C",
"w c #191C1D",
"e c #1B1C1D",
"r c #1D1D1D",
"t c #1E1E1E",
"y c gray12",
"u c #1B1E20",
"i c #1D2123",
"p c #1E2D33",
"a c #202020",
"s c #222222",
"d c #222323",
"f c #252525",
"g c #272727",
"h c #282828",
"j c gray16",
"k c #2B2C2C",
"l c #2D2D2D",
"z c gray18",
"x c #22333A",
"c c #23343A",
"v c #25373E",
"b c gray19",
"n c #323232",
"m c gray20",
"M c #343434",
"N c #353535",
"B c gray21",
"V c gray22",
"C c #393939",
"Z c #3A3A3A",
"A c gray23",
"S c #273C44",
"D c #2A3F48",
"F c #2D444D",
"G c #2F454E",
"H c #2F4852",
"J c #324B55",
"K c #324C57",
"L c #34505B",
"P c #36505B",
"I c #36515C",
"U c #375460",
"Y c #395661",
"T c #395763",
"R c #3B5A67",
"E c #3D5D6A",
"W c #3F5D6A",
"Q c #3F5E6A",
"! c #3E5F6C",
"~ c #40606D",
"^ c #40616F",
"/ c #416371",
"( c #426370",
") c #426471",
"_ c #426472",
"` c #436472",
"' c #436573",
"] c #426674",
"[ c #436674",
"{ c #436775",
/* pixels */
"AAAAAAAAAAAAAAAAAAAAAAAAAAAAAAAA",
"AAAAAAAAAAAAAAAAAAAAAAAAAAAAAAAA",
"AAAAAAAAAAAAAAAAAAAAAAAAAAAN0 AA",
"AAAAAAAAAAAAAAAAAAAAAAAAANtOOjAA",
"AAAAAAAAAAAAAAAAAAAAAAANt+Sv4AAA",
"AAAAAAAAAAAAAAAAAAAAAM7OD^YOVAAA",
"AAAAAAAAAAAAAAAAAAAn5@F'{'=kAAAA",
"AAAAAAAAAAAAAAAAAb2=H'{{{x0AAAAA",
"AAAAAAAAAAAAAAAz;;J'{{{'P@AAAAAA",
"AAAAAAAAAAAAAk=<I'{{{{{'OnAAAAAA",
"AAAAAAAAAAAj=5U`{{{{{{{ptAAAAAAA",
"AAAAAAAAAhO7T`{{{{{{{{J=AAAAAAAA",
"AAAAAAAfOwR`{{{{{{{{{EOmAAAAAAAA",
"AAAAAaOeE`{{{{{{{{{{'0aAAAAAAAAA",
"AAAaOi!'{{{{{{{{{{{{G;AAAAAAAAAA",
"AA;t^'{{{{{{{{{{{{{{;MAAAAAAAAAA",
"AA;a^{{{{{{{{{{{{{{'1NAAAAAAAAAA",
"AAAaOi!({{{{{{{{{{{{F=AAAAAAAAAA",
"AAAAVaOuE'{{{{{{{{{{`0aAAAAAAAAA",
"AAAAAAAfOwR({{{{{{{{{WOnAAAAAAAA",
"AAAAAAAAAg$7R({{{{{{{{J=AAAAAAAA",
"AAAAAAAAAAAj=2I{{{{{{{{0tAAAAAAA",
"AAAAAAAAAAAAAk-<L{{{{{{^+bAAAAAA",
"AAAAAAAAAAAAAAAz;;J'{{{{P#AAAAAA",
"AAAAAAAAAAAAAAAAAb2=H({{{x0AAAAA",
"AAAAAAAAAAAAAAAAAAAn5=F({'=zAAAA",
"AAAAAAAAAAAAAAAAAAAAAM0OF^YONAAA",
"AAAAAAAAAAAAAAAAAAAAAAAN0OSv4AAA",
"AAAAAAAAAAAAAAAAAAAAAAAAAN0OOgAA",
"AAAAAAAAAAAAAAAAAAAAAAAAAAAV0 AA",
"AAAAAAAAAAAAAAAAAAAAAAAAAAAAAAAA",
"AAAAAAAAAAAAAAAAAAAAAAAAAAAAAAAA"
};
