/* XPM */
static char *_551670712930[] = {
/* columns rows colors chars-per-pixel */
"32 32 68 1 ",
"  c #060606",
". c #090909",
"X c gray4",
"o c #0B0B0B",
"O c #0C0C0C",
"+ c gray5",
"@ c #0E0E0E",
"# c gray6",
"$ c #101010",
"% c #111111",
"& c gray7",
"* c #131313",
"= c gray8",
"- c #161616",
"; c gray9",
": c #181818",
"> c gray10",
", c #1B1B1B",
"< c gray11",
"1 c #1D1D1D",
"2 c gray12",
"3 c #1F2F36",
"4 c #202020",
"5 c #222222",
"6 c #232323",
"7 c #252525",
"8 c #272727",
"9 c #282828",
"0 c gray16",
"q c gray17",
"w c #2C2C2C",
"e c #2D2D2D",
"r c gray18",
"t c #23353D",
"y c gray19",
"u c #323232",
"i c gray20",
"p c #343434",
"a c #353535",
"s c #373737",
"d c gray22",
"f c #393939",
"g c #3A3A3A",
"h c gray23",
"j c #263B43",
"k c #273C45",
"l c #2A4049",
"z c #2C444E",
"x c #2F4852",
"c c #2F4853",
"v c #324C57",
"b c #334F5A",
"n c #34505B",
"m c #37535F",
"M c #375460",
"N c #395763",
"B c #395864",
"V c #3B5A67",
"C c #3D5D6A",
"Z c #3E5F6C",
"A c #3F616E",
"S c #40616F",
"D c #416472",
"F c #426573",
"G c #426674",
"H c #436674",
"J c #436675",
"K c #436775",
/* pixels */
"hhhhhhhhhhhhhhhhhhhhhhhhhhhhhhhh",
"hhhhhhhhhhhhhhhhhhhhhhhhhhhhhhhh",
"hhhhhhhhhhhhhhd*&shhhhhhhhhhhhhh",
"hhhhhhhhhhhhhh4<<6hhhhhhhhhhhhhh",
"hhhhhhhhhhhhhhoSSodhhhhhhhhhhhhh",
"hhhhhhhhhhhhh6<GK<6hhhhhhhhhhhhh",
"hhhhhhhhhhhhhoAGKAohhhhhhhhhhhhh",
"hhhhhhhhhhhh6:KKKK:8hhhhhhhhhhhh",
"hhhhhhhhhhhhoCGKKKCohhhhhhhhhhhh",
"hhhhhhhhhhh8:KKKKKG:8hhhhhhhhhhh",
"hhhhhhhhhhhoVKKKKKKVohhhhhhhhhhh",
"hhhhhhhhhh0-KKKKKKKG-0hhhhhhhhhh",
"hhhhhhhhhhONGKKKKKKKNOhhhhhhhhhh",
"hhhhhhhhh0-KKKKKKKKKG-rhhhhhhhhh",
"hhhhhhhhh&mKKKKKKKKKKmOhhhhhhhhh",
"hhhhhhhhr&GGKKKKKKKKKK&rhhhhhhhh",
"hhhhhhhh$mKKKKKKKKKKKKn&hhhhhhhh",
"hhhhhhhyOKKKKKKKKKKKKKK&rhhhhhhh",
"hhhhhhh-vKKKKKKKKKKKKKKv&hhhhhhh",
"hhhhhhyOKKKKKKKGKKKKKKKKOihhhhhh",
"hhhhhh-xKKKKGGv=*cKKKKKKx-hhhhhh",
"hhhhhpOKKKKKZ-Oss&-AKKKKGoshhhhh",
"hhhhh-zKKKKno6hhhh6onKKKGz-hhhhh",
"hhhhsoKKKD<OshhhhhhyO3DKKGoshhhh",
"hhhh:lKKmo<hhhhhhhhhh<omKKk<hhhh",
"hhhdODKtorhhhhhhhhhhhhrotDDohhhh",
"hhh:kNO<hhhhhhhhhhhhhhhh<OVj:hhh",
"hhdojorhhhhhhhhhhhhhhhhhhrojoshh",
"hh:o;dhhhhhhhhhhhhhhhhhhhhh:o:hh",
"hh 9hhhhhhhhhhhhhhhhhhhhhhhh8 hh",
"hhhhhhhhhhhhhhhhhhhhhhhhhhhhhhhh",
"hhhhhhhhhhhhhhhhhhhhhhhhhhhhhhhh"
};
