/* XPM */
static char *_551670705863[] = {
/* columns rows colors chars-per-pixel */
"32 32 91 1 ",
"  c #060606",
". c #090909",
"X c gray4",
"o c #0A0B0B",
"O c #0B0B0B",
"+ c #0A0B0C",
"@ c #0A0C0C",
"# c #0B0C0C",
"$ c #0C0C0C",
"% c #0C0C0D",
"& c gray5",
"* c #0C0D0E",
"= c #0D0E0E",
"- c #0E0F0F",
"; c #0E0F10",
": c #0E1010",
"> c #0F1010",
", c #101112",
"< c #111212",
"1 c gray7",
"2 c gray8",
"3 c #141515",
"4 c #141616",
"5 c #141617",
"6 c #161617",
"7 c gray9",
"8 c #161718",
"9 c #181919",
"0 c #18191A",
"q c #181A1B",
"w c #1B1B1B",
"e c #1B1B1C",
"r c #1B1C1C",
"t c #1B1E1F",
"y c #1D1D1D",
"u c #1D1E1F",
"i c #1E1E1E",
"p c gray12",
"a c #1B1F20",
"s c #1F2223",
"d c #1E2F35",
"f c #202020",
"g c #222222",
"h c #252525",
"j c #272727",
"k c #282828",
"l c gray16",
"z c gray17",
"x c #2D2D2D",
"c c gray18",
"v c #23353D",
"b c #27383F",
"n c gray19",
"m c #323232",
"M c gray20",
"N c #343434",
"B c #353535",
"V c gray21",
"C c gray22",
"Z c #393939",
"A c #3A3A3A",
"S c gray23",
"D c #263942",
"F c #263A43",
"G c #293B43",
"H c #2C3F47",
"J c #2E444C",
"K c #2F4853",
"L c #314851",
"P c #344C56",
"I c #334E59",
"U c #36505A",
"Y c #36535F",
"T c #38535E",
"R c #375460",
"E c #3A5662",
"W c #395864",
"Q c #3C5965",
"! c #3E5C69",
"~ c #3F606D",
"^ c #40616F",
"/ c #406270",
"( c #416371",
") c #436471",
"_ c #416472",
"` c #426472",
"' c #436472",
"] c #436573",
"[ c #426674",
"{ c #436675",
"} c #436775",
/* pixels */
"SSSSSSSSSSSSSSSSSSSSSSSSSSSSSSSS",
"SSSSSSSSSSSSSSSSSSSSSSSSSSSSSSSS",
"SS wSSSSSSSSSSSSSSSSSSSSSSSSSSSS",
"SSk. yVSSSSSSSSSSSSSSSSSSSSSSSSS",
"SSS6Fb.yVAASSSSSSSSSSSSSSSSSSSSS",
"SSSS@W(G.7BASSSSSSSSSSSSSSSSSSSS",
"SSSSx;[[`J*7MSSSSSSSSSSSSSSSSSSS",
"SSSSSav[{{`J*,MSSSSSSSSSSSSSSSSS",
"SSSSSS@R{}}{[L:,xSSSSSSSSSSSSSSS",
"SSSSSSn*`[}}}}`P,>zASSSSSSSSSSSS",
"SSSSSSSys}}}}}}})U6*kSSSSSSSSSSS",
"SSSSSSSS*I}}}}}}}})T6*kSSSSSSSSS",
"SSSSSSSSM@~}}}}}}}}})Ew.hSSSSSSS",
"SSSSSSSSSgw[}}}}}}}}}}(Qr.gSSSSS",
"SSSSSSSSSS,K}}}}}}}}}}}}`!y.fZSS",
"SSSSSSSSSSV3}}}}}}}}}}}}}{)^p1SS",
"SSSSSSSSSSV3}}}}}}}}}}}}}}[^y,AS",
"SSSSSSSSSS:K}}}}}}}}}}}})!y.gZSS",
"SSSSSSSSSgw}}}}}}}}}{})Qw.gSSSSS",
"SSSSSSSSN@^}}}}}}}}}(EwOhSSSSSSS",
"SSSSSSSS;I}}}}}}}})T6*kSSSSSSSSS",
"SSSSSSSsd[}}}}}})U2*kSSSSSSSSSSS",
"SSSSSSn*[}}}}})P2,zSSSSSSSSSSSSS",
"SSSSSS*R[}}[)L,,xSSSSSSSSSSSSSSS",
"SSSSSrv}[[`J*6xSSSSSSSSSSSSSSSSS",
"SSSSx;[[`H*6MSSSSSSSSSSSSSSSSSSS",
"SSSC@E`H.wBSSSSSSSSSSSSSSSSSSSSS",
"SSS6FD.wVSASSSSSSSSSSSSSSSSSSSSS",
"SSk..yVSSSSSSSSSSSSSSSSSSSSSSSSS",
"SS rVSSSSSSSSSSSSSSSSSSSSSSSSSSS",
"SSSSSSSSSSSSSSSSSSSSSSSSSSSSSSSS",
"SSSSSSSSSSSSSSSSSSSSSSSSSSSSSSSS"
};
