/* XPM */
static char * arr_left_xpm[] = {
"32 32 60 1",
" 	c None",
".	c #000000",
"+	c #021217",
"@	c #000202",
"#	c #021920",
"$	c #027EA1",
"%	c #025E78",
"&	c #020F12",
"*	c #0381A4",
"=	c #00BDF3",
"-	c #01A1CE",
";	c #011318",
">	c #037799",
",	c #01C6FF",
"'	c #00BAEE",
")	c #00C1F8",
"!	c #01141A",
"~	c #037B9E",
"{	c #01C0F6",
"]	c #00BBF0",
"^	c #00BAEF",
"/	c #015067",
"(	c #020E11",
"_	c #0380A4",
":	c #00BFF4",
"<	c #0198C4",
"[	c #037798",
"}	c #00BEF4",
"|	c #01181F",
"1	c #02191F",
"2	c #037C9F",
"3	c #01BFF5",
"4	c #00BFF6",
"5	c #025872",
"6	c #037FA3",
"7	c #029CC8",
"8	c #01151B",
"9	c #01C6FE",
"0	c #00B9EF",
"a	c #02181E",
"b	c #037EA0",
"c	c #01BEF4",
"d	c #015972",
"e	c #020D11",
"f	c #037EA2",
"g	c #00C0F7",
"h	c #02181F",
"i	c #03789A",
"j	c #01C5FE",
"k	c #00C5FD",
"l	c #011319",
"m	c #00BDF2",
"n	c #015973",
"o	c #01161B",
"p	c #025972",
"q	c #00BDF4",
"r	c #01191F",
"s	c #0199C4",
"t	c #027EA0",
"u	c #025F79",
"                              ..",
"                            ....",
"                          ..... ",
"                        ...+@.. ",
"                      ...#$%..  ",
"                    ...&*=-..   ",
"                  ...;>,')!..   ",
"                ...#~{]^)/..    ",
"              ...(_:]^^^<..     ",
"            ...![,'^^^^}|..     ",
"          ...123]^^^^^45..      ",
"        ...(64]^^^^^^'7..       ",
"      ...8[90^^^^^^^^}8..       ",
"    ...abc]^^^^^^^^^=d..        ",
"  ...efg]^^^^^^^^^^'-..         ",
"...hij^^^^^^^^^^^^^k;..         ",
"...hij^^^^^^^^^^^^^kl..         ",
"  ...efg]^^^^^^^^^^'-..         ",
"    ...abc]^^^^^^^^^mn..        ",
"      ...8[90^^^^^^^^}o..       ",
"        ...(64]^^^^^^'7..       ",
"          ...123]^^^^^4p..      ",
"            ...![,'^^^^qr..     ",
"              ...(_:]^^^s..     ",
"                ...#~{]^)/..    ",
"                  ...;>,')!..   ",
"                    ...&*=-..   ",
"                      ...#tu..  ",
"                        ...+@.. ",
"                          ..... ",
"                            ....",
"                              .."};
