/* XPM */
static char * arr_down_xpm[] = {
"32 32 60 1",
" 	c None",
".	c #000000",
"+	c #000202",
"@	c #021217",
"#	c #025E78",
"$	c #025F79",
"%	c #027EA1",
"&	c #01A1CE",
"*	c #01141A",
"=	c #027EA0",
"-	c #021920",
";	c #00BDF3",
">	c #00C1F8",
",	c #015067",
"'	c #0381A4",
")	c #00BAEE",
"!	c #0198C4",
"~	c #01181F",
"{	c #01191F",
"]	c #0199C4",
"^	c #020F12",
"/	c #01C6FF",
"(	c #00BAEF",
"_	c #00BEF4",
":	c #025872",
"<	c #025972",
"[	c #00BDF4",
"}	c #037799",
"|	c #00BBF0",
"1	c #00BFF6",
"2	c #029CC8",
"3	c #01151B",
"4	c #01161B",
"5	c #011318",
"6	c #01C0F6",
"7	c #015972",
"8	c #015973",
"9	c #037B9E",
"0	c #011319",
"a	c #00BDF2",
"b	c #00BFF4",
"c	c #00C5FD",
"d	c #0380A4",
"e	c #020E11",
"f	c #037798",
"g	c #01BFF5",
"h	c #037C9F",
"i	c #02191F",
"j	c #037FA3",
"k	c #00B9EF",
"l	c #01C6FE",
"m	c #01BEF4",
"n	c #037EA0",
"o	c #02181E",
"p	c #00C0F7",
"q	c #037EA2",
"r	c #020D11",
"s	c #01C5FE",
"t	c #03789A",
"u	c #02181F",
"..                            ..",
"....                        ....",
" ....                      .... ",
" ..+...                  ...+.. ",
"  .@#...                ...$@.  ",
"  ..%&*...            ...*&=..  ",
"   .-;>,...          ...,>;-.   ",
"   ..')>!~...      ...{]>)'..   ",
"    .^/((_:...    ...<[((/^.    ",
"    ..}|((123......421((|}..    ",
"     .56((()_7....8_)(((65.     ",
"     ..9|((((;&50&a((((|9..     ",
"      .-b((((()cc)(((((b-.      ",
"      ..d)(((((((((((()d..      ",
"       .e/((((((((((((/e.       ",
"       ..f|((((((((((|f..       ",
"        .*g((((((((((g*.        ",
"        ..h|((((((((|h..        ",
"         .i1((((((((1i.         ",
"         ..jk((((((kj..         ",
"          .el((((((le.          ",
"          ..f|((((|f..          ",
"           .3m((((m3.           ",
"           ..n|((|n..           ",
"            .op((po.            ",
"            ..q((q..            ",
"             .rssr.             ",
"             ..tt..             ",
"              .uu.              ",
"              ....              ",
"               ..               ",
"               ..               "};
