/* XPM */
static char *_551670702440[] = {
/* columns rows colors chars-per-pixel */
"32 32 146 2 ",
"   c gray2",
".  c gray3",
"X  c #090909",
"o  c gray4",
"O  c #0B0B0B",
"+  c gray5",
"@  c #0E0E0E",
"#  c gray6",
"$  c #0A0F12",
"%  c #0B1012",
"&  c #0D1316",
"*  c #101010",
"=  c #111111",
"-  c #131313",
";  c gray8",
":  c #151515",
">  c gray9",
",  c #10191D",
"<  c #111B1E",
"1  c #181818",
"2  c #191919",
"3  c gray10",
"4  c gray11",
"5  c #1D1D1D",
"6  c #1E1E1E",
"7  c gray12",
"8  c #141F23",
"9  c #152024",
"0  c #162126",
"q  c #18252A",
"w  c #202020",
"e  c gray13",
"r  c #222222",
"t  c #232323",
"y  c #252525",
"u  c gray15",
"i  c #272727",
"p  c #282828",
"a  c gray16",
"s  c #2A2A2A",
"d  c #2C2C2C",
"f  c gray18",
"g  c #23353D",
"h  c gray19",
"j  c #323232",
"k  c gray20",
"l  c #343434",
"z  c #353535",
"x  c #373737",
"c  c gray22",
"v  c gray24",
"b  c #283D46",
"n  c #304A54",
"m  c #334E58",
"M  c #36525E",
"N  c #3B5A66",
"B  c #3C5C69",
"V  c #3D5E6B",
"C  c #3E5F6D",
"Z  c #414141",
"A  c gray26",
"S  c #444444",
"D  c #464646",
"F  c gray28",
"G  c #484848",
"H  c gray29",
"J  c #4B4B4B",
"K  c #4C4C4C",
"L  c gray30",
"P  c gray31",
"I  c #515151",
"U  c gray32",
"Y  c gray33",
"T  c #565656",
"R  c gray35",
"E  c #5B5B5B",
"W  c gray37",
"Q  c #406270",
"!  c #456A79",
"~  c #606060",
"^  c gray38",
"/  c #626262",
"(  c #646464",
")  c gray40",
"_  c #686868",
"`  c DimGray",
"'  c #6C6C6C",
"]  c #6D6D6D",
"[  c gray43",
"{  c #6F6F6F",
"}  c gray44",
"|  c #717171",
" . c #727272",
".. c gray45",
"X. c #747474",
"o. c gray46",
"O. c #767676",
"+. c #777777",
"@. c #4B7383",
"#. c #4D7687",
"$. c #4F798A",
"%. c #507B8C",
"&. c #517C8D",
"*. c #527D8F",
"=. c #548092",
"-. c #558193",
";. c #568395",
":. c #578497",
">. c #588699",
",. c #58879A",
"<. c #59889B",
"1. c #5A899D",
"2. c #5C8C9F",
"3. c #5D8DA1",
"4. c #5F91A5",
"5. c #6195AA",
"6. c #6295AA",
"7. c #6499AE",
"8. c #679EB4",
"9. c #689EB5",
"0. c #6AA2B8",
"q. c #6CA5BC",
"w. c #6DA6BD",
"e. c #6DA6BE",
"r. c #6EA7BF",
"t. c #6EA8C0",
"y. c #70ABC3",
"u. c #72AEC6",
"i. c #76B4CE",
"p. c #77B6D0",
"a. c #7ABBD5",
"s. c #7BBCD7",
"d. c #7CBDD8",
"f. c #7DBFD9",
"g. c #7FC1DC",
"h. c #80C3DF",
"j. c #81C5E1",
"k. c #82C6E2",
"l. c #82C7E3",
"z. c #83C8E5",
"x. c #84C9E5",
"c. c #85CBE7",
"v. c #85CCE8",
"b. c #86CCE9",
"n. c #86CDEA",
"m. c SkyBlue",
/* pixels */
"O j ..+.+.+.+.+.+.+.+.+.+.+.+.+.+.+.+.+.+.+.+.+.+.+.+.+.+.+.+.+.",
"Z   O Z ..+.+.+.+.+.+.+.+.+.+.+.+.+.+.+.+.+.+.+.+.+.+.+.+.+.+.+.",
"+.j w y O F ..+.+.+.+.+.+.+.+.+.+.+.+.+.+.+.+.+.+.+.+.+.+.+.+.+.",
"+...; $.q.b @ F X.+.+.+.+.+.+.+.+.+.+.+.+.+.+.+.+.+.+.+.+.+.+.+.",
"+.+.( $ e.m.0.w * J +.+.+.+.+.+.+.+.+.+.+.+.+.+.+.+.+.+.+.+.+.+.",
"+.+.+.J 9 h.m.m.9.4 % K +.+.+.+.+.+.+.+.+.+.+.+.+.+.+.+.+.+.+.+.",
"+.+.+.+.d n m.m.m.m.7.4 - P +.+.+.+.+.+.+.+.+.+.+.+.+.+.+.+.+.+.",
"+.+.+.+...; *.m.m.m.m.m.5.2 ; U +.+.+.+.+.+.+.+.+.+.+.+.+.+.+.+.",
"+.+.+.+.+.^ O y.m.m.m.m.m.m.4.; 2 Y +.+.+.+.+.+.+.+.+.+.+.+.+.+.",
"+.+.+.+.+.+.F 9 k.m.m.m.m.m.m.m.2.; 3 T +.+.+.+.+.+.+.+.+.+.+.+.",
"+.+.+.+.+.+.+.a m m.m.m.m.m.m.m.m.m.,.- 4 R +.+.+.+.+.+.+.+.+.+.",
"+.+.+.+.+.+.+...8 ;.m.m.m.m.m.m.m.m.m.m.;.* 7 E +.+.+.+.+.+.+.+.",
"+.+.+.+.+.+.+.+.^ O u.m.m.m.m.m.m.m.m.m.m.c.*.# e W +.+.+.+.+.+.",
"+.+.+.+.+.+.+.+.+.F q l.m.m.m.m.m.m.m.m.m.m.m.c.%.@ t ~ +.+.+.+.",
"+.+.+.+.+.+.+.+.+.+.y M m.m.m.m.m.m.m.m.m.m.m.m.m.z.#.+ y ( +.+.",
"+.+.+.+.+.+.+.+.+.+.{ @ ,.m.m.m.m.m.m.m.m.m.m.m.m.m.m.k.@.& a ( ",
"+.+.+.+.+.+.+.+.+.+.+.K + m.m.m.m.m.m.m.m.m.m.m.m.m.m.m.m.p.7 O ",
"+.+.+.+.+.+.+.+.+.+.] # 1.m.m.m.m.m.m.m.m.m.m.m.m.m.m.a.V X f ( ",
"+.+.+.+.+.+.+.+.+.o.3 C m.m.m.m.m.m.m.m.m.m.m.m.m.i.j . j ` +.+.",
"+.+.+.+.+.+.+.+.+.j t c.m.m.m.m.m.m.m.m.m.m.m.u.d X c ] +.+.+.+.",
"+.+.+.+.+.+.+.+.K * f.m.m.m.m.m.m.m.m.m.m.w.i o v | +.+.+.+.+.+.",
"+.+.+.+.+.+.+.~ o w.m.m.m.m.m.m.m.m.m.9.t # Z X.+.+.+.+.+.+.+.+.",
"+.+.+.+.+.+.{ # ,.m.m.m.m.m.m.m.m.6.7 # D X.+.+.+.+.+.+.+.+.+.+.",
"+.+.+.+.+.+.7 B m.m.m.m.m.m.m.3.> - K o.+.+.+.+.+.+.+.+.+.+.+.+.",
"+.+.+.+.+.z g c.m.m.m.m.c.;.- > U +.+.+.+.+.+.+.+.+.+.+.+.+.+.+.",
"+.+.+.+.L , d.m.m.m.z.%.# 7 T +.+.+.+.+.+.+.+.+.+.+.+.+.+.+.+.+.",
"+.+.+.^ $ q.m.m.z.@.o t E +.+.+.+.+.+.+.+.+.+.+.+.+.+.+.+.+.+.+.",
"+.+.' , -.m.h.! o i ^ +.+.+.+.+.+.+.+.+.+.+.+.+.+.+.+.+.+.+.+.+.",
"+.o.e N d.Q X d ( +.+.+.+.+.+.+.+.+.+.+.+.+.+.+.+.+.+.+.+.+.+.+.",
"+.c 2 j . j _ +.+.+.+.+.+.+.+.+.+.+.+.+.+.+.+.+.+.+.+.+.+.+.+.+.",
"S   . c ' +.+.+.+.+.+.+.+.+.+.+.+.+.+.+.+.+.+.+.+.+.+.+.+.+.+.+.",
"o f { +.+.+.+.+.+.+.+.+.+.+.+.+.+.+.+.+.+.+.+.+.+.+.+.+.+.+.+.+."
};
