/* XPM */
static char *_551673233078[] = {
/* columns rows colors chars-per-pixel */
"32 32 111 2 ",
"   c black",
".  c #020304",
"X  c #040404",
"o  c #070707",
"O  c #050809",
"+  c #090909",
"@  c #0B0B0A",
"#  c #0E0E0E",
"$  c #111111",
"%  c #161616",
"&  c #161D1F",
"*  c gray10",
"=  c #1E1E1E",
"-  c #151D20",
";  c #1B282D",
":  c #1F2A2E",
">  c #1D2C31",
",  c #232322",
"<  c gray16",
"1  c #2C2C2C",
"2  c #2F2F2E",
"3  c #213036",
"4  c #26343A",
"5  c #26373D",
"6  c #313131",
"7  c #333332",
"8  c #393938",
"9  c #3C3C3C",
"0  c gray24",
"q  c #40403F",
"w  c #2A3C42",
"e  c #2E4047",
"r  c #2C424A",
"t  c #394E56",
"y  c #38525D",
"u  c #3B545E",
"i  c #434343",
"p  c #464645",
"a  c #474746",
"s  c #484847",
"d  c #4B4B4B",
"f  c #4C4C4C",
"g  c #4E4E4E",
"h  c #50504F",
"j  c #525251",
"k  c gray33",
"l  c #585857",
"z  c #5B5B5B",
"x  c #5F5F5E",
"c  c #60605F",
"v  c #435E68",
"b  c #44616C",
"n  c #4D6E7B",
"m  c #4D6F7D",
"M  c #4E707C",
"N  c #4D707E",
"B  c #50727F",
"V  c #626262",
"C  c #646463",
"Z  c #666665",
"A  c #676766",
"S  c DimGray",
"D  c gray43",
"F  c #6F6F6F",
"G  c #70706F",
"H  c gray45",
"J  c #747474",
"K  c #777777",
"L  c #507380",
"P  c #517582",
"I  c #527684",
"U  c #547A89",
"Y  c #577D8C",
"T  c #5A818F",
"R  c #598191",
"E  c #5B8493",
"W  c #5B8494",
"Q  c #5C8494",
"!  c #5D8797",
"~  c #5F8A9B",
"^  c #638FA0",
"/  c #6390A2",
"(  c #6491A3",
")  c #6492A4",
"_  c #6493A5",
"`  c #6695A8",
"'  c #6796A8",
"]  c #6898AB",
"[  c #6B9DB1",
"{  c #6C9EB2",
"}  c #6DA0B4",
"|  c #70A5BA",
" . c #71A7BC",
".. c #73ABC1",
"X. c #75ADC3",
"o. c #76AFC6",
"O. c #77B2C9",
"+. c #78B2C9",
"@. c #79B4CB",
"#. c #79B4CC",
"$. c #7AB7D0",
"%. c #7BB8D1",
"&. c #7CBAD3",
"*. c #7DBBD4",
"=. c #80C0DA",
"-. c #81C3DE",
";. c #83C6E1",
":. c #85CBE7",
">. c #86CBE8",
",. c #86CCE8",
"<. c SkyBlue",
/* pixels */
"K K K K K G s 0 z K K K K K K H g 0 k K K K K K K K H K K K K K ",
"K K K K k         % K K K K V         + D K K K K H K K H K K H ",
"K H K Z   y ;.<. .  % K K D   5 =.<.+.. o K K K K K H K K K K K ",
"K K K $ & <.<.<.<.|   V K ,   <.<.<.<.%.  g K H H K K K H H K K ",
"K K K   n <.>.<.<.<.  p K   e <.<.<.<.<.  < K K H K K K K K K K ",
"K K K   w <.<.:.<.;.  k K % - <.<.:.<.<.  i K K K K H H K H K K ",
"K K K d   { <.<.<.>   K K x   ~ <.<.<.r   D K K K K K K H K H K ",
"K K K K 2   3 t     x K K K q   ; t O   j K K K K K K K K K H K ",
"K K K K K V 2 = i K K K K K K S 6 = 0 H K K K K K H K K K K K K ",
"K S p 0 i j d p h g q 0 q 0 i h g p g j q 0 i Z K K H K H K K K ",
"C                                               j K K K K K 8 < ",
"  : -.>.:.:.:.:.:.:.:.:.:.:.:.<.:.:.:.:.:.>.:.u   K K K g       ",
"  ^ <.<.<.<.<.<.<.<.<.<.<.<.<.<.<.<.<.<.<.<.<.#.  S c     v N o ",
"  ! <.<.:.=.) / ) ( / / / ) ) / / / ( ` ;.<.<.O.o o   4 ..<.'   ",
"  E <.>.<.}                             @.<.<.+.  # { <.<.<.Y   ",
"  ! <.:.>.:.&.&.&.#.&.&.%.%.%.%.%.%.$.*.>.<.<.X.  ..<.<.>.<.T   ",
"  ! <.,.:.<.<.<.<.<.<.<.<.<.<.<.<.<.<.<.<.:.<.X.  | <.:.:.<.T   ",
"  E <.,.,.,.,.,.,.,.,.,.,.,.,.,.<.:.<.:.<.:.<. .  } <.<.,.<.E   ",
"  E <.,.,.,.,.,.,.,.,.,.,.,.,.,.,.,.:.:.<.:.<.X.  } <.:.>.<.Y   ",
"  ! <.,.,.,.,.,.,.,.,.,.,.,.,.,.,.,.,.,.:.<.<...  @.<.<.<.<.T   ",
"  ! <.:.,.,.,.,.,.,.,.,.,.,.,.,.,.,.,.,.,.,.<.o.  I <.<.<.<.Y   ",
"  ! <.:.,.,.,.,.,.,.,.,.,.,.,.,.,.,.,.,.,.,.<.+.    # | <.<.T   ",
"  ^ <.:.,.,.,.,.,.,.,.,.:.:.<.<.,.,.,.,.,.,.<.@.o s %   w =.]   ",
"  N <.<.<.<.<.<.<.<.<.<.<.<.<.<.<.<.<.<.<.<.<.{   K K k     % # ",
"7   b P N m B L N N m N R ! W U N L N m m P n   * K K K K p     ",
"K 0                   o                       , K K K K K K D C ",
"K K K H K H K K K K K Z   < % $ K K H K K K K K K K K H K K K K ",
"K K K K K K K K K K K o % K K   2 K K K K K K K K K K K H K K K ",
"H K K K K K H K K K @   K K K C   6 K K K H K H K K K K K H K K ",
"K K H H K K K K K ,   G K K K K z   p K K K K K K H K H K K H K ",
"K K K K H K H K 6   Z K K K K K K g   z K K K K H K K K K K K K ",
"K K K K K K K K k x K K H K K K K K k Z K H K H K K K H K H K K "
};
