/* XPM */
static char *_551673237795[] = {
/* columns rows colors chars-per-pixel */
"32 32 75 1 ",
"  c black",
". c #020202",
"X c gray1",
"o c #040404",
"O c gray3",
"+ c #0B0B0B",
"@ c #0B0E0F",
"# c gray6",
"$ c #0A0E10",
"% c #0D1416",
"& c #0F1517",
"* c #0E1618",
"= c #111111",
"- c gray8",
"; c gray9",
": c #10181B",
"> c #131B1E",
", c gray11",
"< c #1E1E1E",
"1 c #20201F",
"2 c #151E21",
"3 c #172023",
"4 c #162125",
"5 c #1D282C",
"6 c #1C292E",
"7 c #222221",
"8 c #242423",
"9 c #252525",
"0 c #2B2B2A",
"q c gray18",
"w c #30302F",
"e c #212F34",
"r c #223036",
"t c #26373D",
"y c #27383F",
"u c #28393F",
"i c gray19",
"p c gray20",
"a c #343434",
"s c gray21",
"d c #373737",
"f c #383837",
"g c gray23",
"h c #293B42",
"j c #2A3D44",
"k c #2B3E46",
"l c #2D4047",
"z c #2E434B",
"x c #2F454D",
"c c #314750",
"v c #314851",
"b c #324952",
"n c #334A54",
"m c #344C55",
"M c #364F59",
"N c #36505A",
"B c #38525C",
"V c #38525D",
"C c #38535E",
"Z c #395560",
"A c #3B5763",
"S c #3C5A65",
"D c #3C5A66",
"F c #3D5B68",
"G c #3D5C68",
"H c #3E5D69",
"J c #40606D",
"K c #40606E",
"L c #40616F",
"P c #416370",
"I c #426472",
"U c #426573",
"Y c #436574",
"T c #436674",
"R c #436775",
/* pixels */
"gggggf8<pggggggg9<0ggggggggggggg",
"gggg0    Oggggd     dggggggggggg",
"gggp 6PRV Oggd :KRD oggggggggggg",
"gggO@RRRRV pg- RRRRH 9gggggggggg",
"ggg tRRURR 7g 3RRRRR -gggggggggg",
"ggg 2RURRP 0gO$RTRRT 7gggggggggg",
"ggg9 MTTR* ggp xRTR4 dgggggggggg",
"gggg; :6  qggg1 %6o 0ggggggggggg",
"gggggp-#7ggggggd<#<dgggggggggggg",
"gd7<7097092<1<799990<<7dgggggggg",
"p                       0ggggg<-",
" *KRUURRTTTRUUURUUUUURU6 ggg9   ",
" cTTTRRRTTRRRRRRRRRRTTRH dp  eu ",
" zTURPcbbbcbcbcbbcbnPTRF   :ZRm ",
" zTURM              FTRF OMRRRk ",
" zRRRPHHHHHHHHHDHHFHPRRZ ZRRURz ",
" zRTTRRRRRRRRTTTRRRRTTTZ ZTTTRz ",
" xRTTTTTTTTTTTTTURRUTTRA VTTTTz ",
" zRTTTTTTTTTTTTTTTURRPRZ NRTRRl ",
" zRTTTTTTTTTTTTTTPRURRRV DRUURl ",
" zRRTTTTTTTTTTTTTTTTTTRD jRTRRl ",
" zPRTTTTTTTTUUTTTTTTTTRD  OCRRl ",
" cTTTTTTTTTTRUURTTTTTTRD 9O 2Pm ",
" hTTRRRRRRRRRRRRTRRRRRRV gg0  Oo",
"< rhhtyhyythzzzkthtttht #gggg8  ",
"g,                     -ggggggsp",
"gggggggggggd -#Ogggggggggggggggg",
"ggggggggggg Ogg -ggggggggggggggg",
"gggggggggg  gggp <gggggggggggggg",
"ggggggggg- dggggq 7ggggggggggggg",
"gggggggg< pgggggg9 qgggggggggggg",
"ggggggggqqgggggggg0pgggggggggggg"
};
