/* XPM */
static char *_551673241004[] = {
/* columns rows colors chars-per-pixel */
"32 32 64 1 ",
"  c black",
". c #050809",
"X c #090909",
"o c gray5",
"O c gray6",
"+ c #0C1214",
"@ c #0E1619",
"# c #131313",
"$ c #181818",
"% c gray11",
"& c #121C20",
"* c #152125",
"= c #19262B",
"- c #1A282D",
"; c #1C2B31",
": c #1E2D34",
"> c gray13",
", c gray15",
"< c #203037",
"1 c #21333A",
"2 c #24363E",
"3 c #253941",
"4 c #2D454F",
"5 c #2E4650",
"6 c #2F4751",
"7 c #2F4852",
"8 c #314C57",
"9 c #35525E",
"0 c #395864",
"q c #3C5D6A",
"w c #414141",
"e c #464646",
"r c #4B4B4B",
"t c #505050",
"y c gray33",
"u c #5A5A5A",
"i c gray37",
"p c #406370",
"a c #446978",
"s c #476E7D",
"d c #626262",
"f c gray39",
"g c gray45",
"h c #747474",
"j c #767676",
"k c #777777",
"l c #507A8B",
"z c #558294",
"x c #578698",
"c c #58889A",
"v c #598A9D",
"b c #5A8A9D",
"n c #5B8A9E",
"m c #5A8B9E",
"M c #6092A7",
"N c #669CB2",
"B c #6BA3BA",
"V c #70AAC2",
"C c #70ABC3",
"Z c #7DC0DB",
"A c #84C9E5",
"S c #86CCE9",
"D c #86CDEA",
"F c SkyBlue",
/* pixels */
"kkkkkkkkkkkkkgw  wgkkkkkkkkkkkkk",
"kkkkkkkkkkkke  CC  ekkkkkkkkkkkk",
"kkkkkkkkkkr  BFFFFB  rkkkkkkkkkk",
"kkkkkkkkt  NSFFFFFFSN  tkkkkkkkk",
"kkkkkky  MFFFFFFFFFFFFM  ykkkkkk",
"kkkku  nSFFFFFFFFFFFFFFSn  ukkkk",
"kki  zSSFFFFFFFFFFFFFFFFFSz  ikk",
"f  lAFFFFFFFFFFFFFFFFFFFFFSAl  f",
"X ZFFFFFFFFFFFFFFFFFFFFFFFFFFZ  ",
"   lAFFFFFFFFFFFFFFFFFFFFFFAl   ",
" 73  zSFFFFFFFFFFFFFFFFFFSz  sm ",
" 7772  nSFFFFFFFFFFFFFFSn  ammm ",
" 777771  MSFFFFFFFFFSFM  pmmmmm ",
" 77777771  NFFFFFFFFN  qnmmmmmm ",
" 777777766:  BFFFSB  0nmmmmmmmm ",
" 77777777776;  CC  0cmmmmmmmmmm ",
" 7777777777774-  8xmmmmmmmmmmmm ",
" 77777777777777  nmmmmmmmmmmmmm ",
" 77777777777777  mmmmmmmmmmmmmm ",
" 77777777777777  mmmmmmmmmmmmmm ",
" 77777777777777  mmmmmmmmmmmmmm ",
" 77777777777777  mmmmmmmmmmmmmm ",
" 77777777777777  mmmmmmmmmmmmmm ",
" 77777777777777  mmmmmmmmmmmmmm ",
">-4677777777777  mmmmmmmmmmmmx8>",
"f,.;66777777777  mmmmmmmmmmc9o,f",
"kki>o:677777777  mmmmmmmmn0+>ikk",
"kkkku%#<7777777  mmmmmmnq@%ukkkk",
"kkkkkky$$177777  mmmmmp&$ykkkkkk",
"kkkkkkkkt#%2777  mmma*#tkkkkkkkk",
"kkkkkkkkkkro>37  ms=Orkkkkkkkkkk",
"kkkkkkkkkkkkeo,  ,oegkkkkkkkkkkk"
};
