/* XPM */
static char *_551673243875[] = {
/* columns rows colors chars-per-pixel */
"32 32 59 1 ",
"  c black",
". c #020404",
"X c #040404",
"o c #060606",
"O c #070707",
"+ c #06090A",
"@ c #070B0C",
"# c #090909",
"$ c #0C0C0C",
"% c #0E0E0E",
"& c #090E10",
"* c #0A1012",
"= c #0C1315",
"- c #0D1416",
"; c #0E1518",
": c #0F161A",
"> c #101010",
", c #131313",
"< c #10181B",
"1 c #10191D",
"2 c #121B1F",
"3 c #121C20",
"4 c #162227",
"5 c #172328",
"6 c #172429",
"7 c #18262B",
"8 c #1A292F",
"9 c #1C2C32",
"0 c #1E2E35",
"q c #202020",
"w c #232323",
"e c #252525",
"r c #282828",
"t c #2A2A2A",
"y c #2D2D2D",
"u c #2F2F2F",
"i c #203138",
"p c #22343C",
"a c #23373E",
"s c #313131",
"d c #393939",
"f c #3A3A3A",
"g c gray23",
"h c #283D45",
"j c #2A414A",
"k c #2B434C",
"l c #2C444D",
"z c #2C454E",
"x c #2D454E",
"c c #2D454F",
"v c #304953",
"b c #334E59",
"n c #35515D",
"m c #385561",
"M c #3E606D",
"N c #426472",
"B c #436674",
"V c #436675",
"C c #436775",
/* pixels */
"gggggggggggggdw  wdggggggggggggg",
"ggggggggggggw  mm  wgggggggggggg",
"gggggggggge  nCCCCn  egggggggggg",
"ggggggggt  bBBCCCCBBb  tgggggggg",
"ggggggt  vCCCCCCCCCCCCv  tgggggg",
"ggggy  cBCCCCCCCCCCCCCCBc  ygggg",
"ggu  jBBCCCCCCCCCCCCCCCCCCj  ygg",
"s  hNCCCCCCCCCCCCCCCCCCCCCCNh  s",
"X MCCCCCCCCCCCCCCCCCCCCCCCCCCM  ",
"   hNBCCCCCCCCCCCCCCCCCCCCCNh   ",
" 63  jBCCCCCCCCCCCCCCCCCCCj  ac ",
" 6663  cBCCCCCCCCCCCCCCBc  pccc ",
" 666661  vBCCCCCCCCCBBv  iccccc ",
" 66666661  bCCCCCCCCb  0ccccccc ",
" 666666665:  nBCBBn  9ccccccccc ",
" 66666666665:  mm  9ccccccccccc ",
" 6666666666664-  7lcccccccccccc ",
" 66666666666666  cccccccccccccc ",
" 66666666666666  cccccccccccccc ",
" 66666666666666  cccccccccccccc ",
" 66666666666666  cccccccccccccc ",
" 66666666666666  cccccccccccccc ",
" 66666666666666  cccccccccccccc ",
" 66666666666666  cccccccccccccc ",
">-4665664747476  ccccccccccccc6>",
"s>.:47667474746  ccccccccccl8X,s",
"ggs>X:474775474  ccccccccc9+>ugg",
"ggggy%#<7555747  ccccccc0@%ygggg",
"ggggggt%@177666  ccccci@%tgggggg",
"ggggggggr#%2666  cccp*#tgggggggg",
"ggggggggggeO>37  ca-Xegggggggggg",
"ggggggggggggeX,  ,Xwgggggggggggg"
};
